<?xml version="1.0" standalone="no"?>
<!DOCTYPE svg PUBLIC "-//W3C//DTD SVG 1.1//EN" "http://www.w3.org/Graphics/SVG/1.1/DTD/svg11.dtd" >
<svg>
<metadata>
Created by FontForge 20090622 at Wed Dec 28 16:28:20 2016
 By deploy user
&#194;&#169; Carlsberg  ||  SWF-eXtract by uazero.
</metadata>
<defs>
<font id="CarlsbergSans-Light" horiz-adv-x="565" >
  <font-face 
    font-family="Carlsberg Sans"
    font-weight="300"
    font-stretch="normal"
    units-per-em="1000"
    panose-1="2 11 6 0 5 3 2 2 2 4"
    ascent="800"
    descent="-200"
    x-height="527"
    cap-height="744"
    bbox="-90 -230.182 1286 941"
    underline-thickness="0"
    underline-position="-229"
    unicode-range="U+0020-U+212E"
  />
<missing-glyph horiz-adv-x="512" 
 />
    <glyph glyph-name=".notdef" horiz-adv-x="512" 
 />
    <glyph glyph-name="space" unicode=" " horiz-adv-x="287" 
d="M0 1v-1v1z" />
    <glyph glyph-name="exclam" unicode="!" horiz-adv-x="247" 
d="M82 0v91h104v-91h-104zM173 187v-1h-56q-13 0 -17 6q-5 5 -5 18v534h57l16 -5l5 -18v-535v1z" />
    <glyph glyph-name="quotedbl" unicode="&#x22;" horiz-adv-x="296" 
d="M80 527q-12 0 -16 6q-5 6 -6 18l-9 193h52l17 -5q6 -6 5 -18l-11 -194h-32zM246 528v-1h-32q-12 0 -16 6q-5 7 -5 18l-9 193h52l17 -5l4 -18l-11 -194v1z" />
    <glyph glyph-name="numbersign" unicode="#" horiz-adv-x="689" 
d="M467 469h-184l-60 -250h185zM659 533v-1v-63h-123l-60 -250h105v-64h-120l-50 -209l-7 -17l-16 -4h-51l55 230h-184l-50 -209l-7 -17l-16 -4h-51l56 230h-109v64h124l59 250h-105v63h121l46 191q1 11 7 17l15 4h51l-51 -212h185l46 191q1 11 7 17l15 4h51l-51 -212h108v1
z" />
    <glyph glyph-name="dollar" unicode="$" horiz-adv-x="579" 
d="M317 64q50 10 77 34q27 25 34 53q4 14 6 28.5t1 28.5q0 37 -16 59q-17 24 -43 35l-59 21v-259zM251 667q-54 -12 -81 -50q-26 -38 -26 -98q0 -35 17 -58q16 -22 41 -35q24 -12 49 -18v259zM317 -114v-1h-44l-17 6q-5 7 -5 18v77l-90 9l-65 14l-25 7l14 65l27 -6l63 -10
l76 -6v276q-56 10 -100 32q-44 21 -66 57q-23 38 -23 95q-2 45 15 92q15 47 56 82q43 37 118 47v96h44l17 -5l5 -18v-70l87 -9l56 -14l20 -7l-23 -69l-5 -7l-9 -3q-1 0 -7 2l-10 6q-23 16 -50 23l-59 7v-277l103 -30q46 -18 71 -54q26 -38 26 -103q0 -103 -51 -157
q-49 -54 -149 -63v-103v1z" />
    <glyph glyph-name="percent" unicode="%" horiz-adv-x="928" 
d="M626 724l14 16l19 4h64l-23 -40l-61 -103l-84 -142l-91 -154l-83 -141l-61 -104l-24 -40l-14 -16l-19 -4h-27h-26h-12zM430 576q0 -61 -23 -102q-22 -40 -64 -60t-94 -20q-53 0 -95 20t-64 60q-24 40 -24 102q0 61 24 102q23 41 64 61q42 20 95 20q52 0 94 -20
q41 -20 64 -61t23 -102zM352 576q0 60 -27 92q-27 30 -76 30q-47 1 -76 -28q-28 -28 -28 -94q0 -62 28 -91q28 -31 76 -31q51 0 77 29q26 31 26 93zM863 171q-2 -62 -24 -102q-23 -42 -63 -61q-42 -20 -95 -20q-52 0 -95 20q-41 20 -64 61q-24 40 -24 102q0 61 24 102
q22 40 64 60q43 20 95 20q53 0 95 -20q40 -20 63 -60q22 -41 24 -102zM785 172v-1q0 61 -27 91q-27 31 -77 31q-47 0 -76 -29q-28 -28 -28 -93q0 -60 29 -92q28 -30 75 -30q51 -2 77 29q27 28 27 93v1z" />
    <glyph glyph-name="ampersand" unicode="&#x26;" horiz-adv-x="748" 
d="M384 154v-1h-67q-1 9 0.5 20t3.5 24q5 26 26 61q11 17 29 37t43 42l172 148l47 50l21 43l7 41h67l-4 -44q-4 -24 -26 -60q-11 -17 -28.5 -37t-42.5 -43l-57 -51l13 -10l28 -32q8 -11 15 -24t14 -30q11 -30 13 -75q0 -58 -29 -110q-29 -51 -95 -83q-66 -31 -176 -33
q-108 2 -170 34q-62 33 -90 84q-27 52 -26 108q1 54 15 89q13 34 31 52l31 25l35 18q15 7 16 19l-16 17l-32 22q-14 10 -31 39q-14 27 -16 83q0 63 30 102q28 39 80 57q51 17 114 17l88 -8l62 -16l23 -8l-23 -69l-5 -6l-9 -3l-8 2l-9 5q-23 16 -52 25l-67 9q-68 0 -106 -26
q-39 -27 -39 -79q0 -66 40 -100q40 -35 117 -36h36v-68h-49q-86 -2 -132 -43q-45 -41 -45 -120q0 -51 27 -85q28 -36 74 -52q46 -18 107 -18q61 -1 112 14t79 48q27 32 29 89q-2 44 -16 71l-29 42l-16 15l-58 -49q-32 -26 -48 -50q-16 -22 -21 -43l-7 -41v1z" />
    <glyph glyph-name="quotesingle" unicode="'" horiz-adv-x="173" 
d="M112 528v-1h-32q-12 0 -16 6q-5 6 -6 18l-9 193h52l17 -5q6 -6 5 -18l-11 -194v1z" />
    <glyph glyph-name="parenleft" unicode="(" horiz-adv-x="349" 
d="M278 -42v-1v-66q-81 2 -126 52q-45 51 -63 150q-9 50 -13.5 110.5t-3.5 132.5q-1 72 3.5 132.5t13.5 111.5q18 99 63 150t126 51v-62q-52 -3 -79 -43q-27 -39 -38 -124q-5 -42 -8 -95t-2 -119q-1 -64 2 -116.5t8 -94.5q11 -83 39 -125q27 -42 78 -45v1z" />
    <glyph glyph-name="parenright" unicode=")" horiz-adv-x="349" 
d="M72 -108v-1v63q51 3 79 43q28 41 38 123q5 42 7.5 95.5t2.5 119.5q0 64 -3 116t-8 94q-11 86 -38 125q-28 41 -78 46v65q81 0 126 -51q46 -52 62 -151q18 -99 18 -242q0 -145 -18 -244q-16 -98 -62 -150q-45 -50 -126 -52v1z" />
    <glyph glyph-name="asterisk" unicode="*" horiz-adv-x="334" 
d="M282 503v-1l-40 -29q-8 -7 -16 -5l-13 11l-43 83l-58 -100l-39 29q-10 6 -11 13q-2 7 7 16l66 67l-114 25l15 46q3 11 10 15l18 -2l84 -42l-14 115h50l16 -5q6 -4 4 -16l-13 -95l105 48l16 -46v-16q-5 -8 -16 -9l-91 -17l77 -86v1z" />
    <glyph glyph-name="plus" unicode="+" horiz-adv-x="471" 
d="M271 85v-1h-48q-12 0 -17 5q-5 7 -5 18v135h-154v68h154v159h48l17 -6l5 -18v-135h154v-68h-154v-158v1z" />
    <glyph glyph-name="comma" unicode="," horiz-adv-x="221" 
d="M91 -128v-1l-29 32l12 13l24 34q12 22 13 50h-45v91h104v-69q0 -40 -12 -68q-12 -30 -27 -47l-27 -28l-13 -8v1z" />
    <glyph glyph-name="hyphen" unicode="-" horiz-adv-x="390" 
d="M329 241v-1v0h-267v72h267v-72v1z" />
    <glyph glyph-name="period" unicode="." horiz-adv-x="225" 
d="M165 1v-1v0h-104v91h104v-91v1z" />
    <glyph glyph-name="slash" unicode="/" horiz-adv-x="415" 
d="M55 -90v-1v0h-55l335 905l9 17l17 4h54l-335 -905l-9 -17l-16 -4v1z" />
    <glyph glyph-name="zero" unicode="0" horiz-adv-x="641" 
d="M320 -14q-98 0 -156 43q-59 42 -84 127q-13 42 -19.5 94.5t-5.5 115.5q-1 64 5.5 116.5t19.5 95.5q26 87 84 130q59 44 156 44t156 -44t85 -130q27 -87 26 -212q1 -125 -26 -210q-25 -84 -85 -127q-58 -43 -156 -43zM320 59v-1q64 -1 105 29q39 29 59 98q18 67 18 181
q0 112 -18 183q-20 69 -59 100q-42 32 -105 31q-64 1 -104 -30t-58 -101q-20 -69 -18 -183q-2 -113 18 -180q18 -68 58 -99q41 -30 104 -29v1z" />
    <glyph glyph-name="one" unicode="1" horiz-adv-x="317" 
d="M223 1v-1h-59q-11 0 -16 5q-5 7 -5 18v662h-78v59h136l17 -5l5 -18v-721v1z" />
    <glyph glyph-name="two" unicode="2" horiz-adv-x="538" 
d="M485 1v-1h-420q-12 0 -17 5q-5 7 -5 18v96q2 67 31 111q27 45 75 77q23 16 46.5 30.5t48.5 27.5q22 11 41.5 23t38.5 25q19 12 34.5 25.5t26.5 29.5q23 30 24 73q0 55 -22 86q-21 31 -60 43l-90 12l-86 -11l-55 -20l-20 -10l-20 64l22 12q11 5 26.5 11t36.5 11l100 11
q122 2 184 -48q63 -49 64 -154q-2 -68 -32 -110q-15 -22 -34.5 -40t-42.5 -34l-97 -58l-79 -49q-38 -26 -60 -60q-21 -31 -23 -81v-46h364v-70v1z" />
    <glyph glyph-name="three" unicode="3" horiz-adv-x="520" 
d="M0 25v-1l21 60l21 -7q19 -8 60 -15l95 -7q93 0 140 38t47 104q1 48 -18 82q-18 34 -60 52q-41 18 -111 18h-40v71h26q71 0 112 21q39 19 56 54q16 32 16 72q-2 62 -41 90q-41 27 -111 27l-80 -10l-55 -17l-20 -9l-21 65l24 10l63 18l89 9l119 -15q53 -17 83 -57
q30 -39 32 -113q-2 -40 -10 -64q-11 -29 -23 -42l-23 -24l-31 -22q-14 -8 -15 -18q2 -11 16 -18l34 -18l29 -24q15 -15 29 -48q13 -30 13 -84q1 -54 -21 -103q-22 -48 -81 -80q-60 -32 -169 -33l-107 10q-44 9 -66 18l-22 9v1z" />
    <glyph glyph-name="four" unicode="4" horiz-adv-x="551" 
d="M476 1v-1h-58q-12 0 -17 5q-5 7 -5 18v125h-341q-12 0 -16 6q-5 7 -5 18v67q2 61 25 105q23 45 63 83l82 70l44.5 34.5t41.5 35.5t37 37.5t30 41.5q25 42 27 98h60l17 -5l5 -18q-1 -60 -33 -110t-79 -90l-47.5 -40l-49.5 -39l-71 -61q-16 -16 -28.5 -32t-22.5 -33
q-20 -34 -20 -73v-28h281v146h59l16 -6l5 -18v-337v1z" />
    <glyph glyph-name="five" unicode="5" horiz-adv-x="539" 
d="M28 26v-1l21 66l22 -9q21 -10 56 -17l80 -9q75 0 119 26t62 66t18 90q0 44 -15 76q-15 33 -49 52q-33 17 -94 19l-104 -7l-56 -8q-11 0 -15 6q-6 6 -6 18v350h384v-70h-308v-232l18 3l46 7l63 3q85 -2 135 -33q49 -31 69 -80q19 -47 19 -99q0 -19 -2.5 -39.5t-7.5 -42.5
q-11 -44 -39 -83q-27 -39 -81 -65q-52 -24 -139 -26l-106 10l-67 18l-23 10v1z" />
    <glyph glyph-name="six" unicode="6" horiz-adv-x="570" 
d="M448 232q-2 91 -41 133q-40 43 -116 43q-72 1 -114 -39q-43 -40 -44 -122q1 -92 42 -145q41 -51 116 -53q54 0 89 23q34 22 51 64t17 96zM530 233v-1q0 -73 -28 -128q-28 -54 -81 -86q-51 -30 -130 -32q-81 2 -126 29q-49 29 -72 71q-25 43 -33 92q-4 25 -6 47.5t-2 43.5
q0 158 40 263t131 159q91 53 239 53v-67q-46 -1 -83.5 -7t-68.5 -19q-61 -25 -97 -64q-35 -38 -52 -84q-16 -43 -18 -83l18 14q8 7 21 13t30 13q35 14 86 15q112 -2 171 -62q59 -61 61 -181v1z" />
    <glyph glyph-name="seven" unicode="7" horiz-adv-x="488" 
d="M198 1v-1h-57q-11 0 -16 5q-5 7 -5 18v67q-1 61 8 116q9 52 32 101q23 48 68 96l32.5 32t30.5 26l52 45q23 23 36 50t13 72v46h-371v70h447v-107q0 -54 -11 -90q-13 -37 -34 -61q-23 -26 -56 -53l-75 -68q-46 -44 -65 -90q-20 -45 -25 -94q-2 -23 -3.5 -45.5t-0.5 -45.5
v-90v1z" />
    <glyph glyph-name="eight" unicode="8" horiz-adv-x="616" 
d="M562 204q0 -102 -65 -161q-64 -56 -189 -58q-125 2 -189 58q-64 58 -65 161q1 47 12 79q12 31 27 49l28 26l36 21q15 7 16 17q-1 10 -14 16l-33 23q-16 13 -30 44q-14 29 -16 77q0 58 27 102q27 43 77 69q50 23 125 25q75 -2 123 -25q52 -26 77 -69q27 -44 27 -102
q-2 -48 -16 -77q-13 -29 -31 -44l-32 -23q-13 -6 -14 -16q1 -10 16 -17l36 -21l28 -26l27 -49q12 -32 12 -79zM482 204q0 72 -45 113q-46 41 -129 41q-82 0 -128 -41q-44 -40 -46 -113q2 -50 23 -81q21 -33 62 -50q42 -17 89 -17q49 0 89 17q41 17 62 50q23 34 23 81z
M456 557v-1q-2 48 -20 75q-21 30 -52 43q-34 14 -75 14t-77 -14q-32 -13 -52 -44q-18 -27 -20 -75q1 -63 39 -98q37 -33 110 -33q71 0 109 35t38 97v1z" />
    <glyph glyph-name="nine" unicode="9" horiz-adv-x="570" 
d="M437 489q0 93 -42 146q-40 51 -115 53q-55 -2 -89 -24t-51 -64t-17 -96q2 -90 41 -132q41 -44 116 -44q71 0 114 40q42 39 43 121zM518 469v-1q1 -155 -40 -261q-41 -104 -130 -156q-90 -51 -239 -51v67q92 2 152 25q59 22 97 61q35 37 52 81q8 22 12 42.5t5 40.5
l-17 -14q-17 -14 -51 -27q-17 -7 -38.5 -10t-47.5 -4q-112 0 -171 62q-59 61 -61 180q0 74 28 129q28 54 81 86q52 31 130 31q79 -2 126 -28q48 -29 72 -72q24 -44 33 -92l7 -90v1z" />
    <glyph glyph-name="colon" unicode=":" horiz-adv-x="279" 
d="M87 0v91h105v-91h-105zM192 406v-1v0h-105v91h105v-91v1z" />
    <glyph glyph-name="semicolon" unicode=";" horiz-adv-x="252" 
d="M87 405v91h105v-91h-105zM113 -128v-1l-30 32l13 13l24 34q11 23 12 50h-45v91h105v-69q-2 -41 -13 -68l-27 -47l-27 -28l-12 -8v1z" />
    <glyph glyph-name="less" unicode="&#x3c;" horiz-adv-x="484" 
d="M423 90v-1l-361 185v36l361 185v-14v-25l-4 -27l-22 -16l-243 -116l237 -120l26 -17q7 -9 6 -28v-17v-18v-8v1z" />
    <glyph glyph-name="equal" unicode="=" horiz-adv-x="492" 
d="M62 311v68h368v-68h-368zM430 243v-1v0v-67h-368v67h368v1z" />
    <glyph glyph-name="greater" unicode="&#x3e;" horiz-adv-x="484" 
d="M423 275v-1l-361 -185v8v18v17q-1 19 6 28q9 9 25 17l238 120l-243 116l-22 16q-5 9 -4 27v25v14l361 -185v-36v1z" />
    <glyph glyph-name="question" unicode="?" horiz-adv-x="539" 
d="M110 0v91h104v-91h-104zM201 187v-1h-56q-13 0 -17 6q-5 5 -5 18v30q2 57 25 88q22 31 58 50l71 36l46 28q21 17 34 41q11 23 13 63q-2 53 -23 82q-23 29 -57 41l-77 11l-74 -8q-28 -9 -44 -21l-10 -6l-8 -2l-7 4q-3 2 -5 10l-21 67l23 7l61 13l92 8q68 0 119 -21
q52 -21 81 -66q28 -43 30 -116q-2 -62 -20 -96q-20 -35 -51 -57l-67 -41l-54 -29q-13 -7 -23 -16.5t-18 -20.5q-15 -22 -16 -59v-44v1z" />
    <glyph glyph-name="at" unicode="@" horiz-adv-x="1052" 
d="M991 312q0 -98 -28 -167q-29 -71 -90 -108q-63 -39 -166 -39l-26 5q-9 4 -12 14l-8 13l-7 3l-11 -3l-12 -7q-24 -13 -56 -21l-69 -8q-60 0 -107 26q-46 27 -73 81q-26 54 -28 139q2 85 30 140q14 28 33.5 48.5t42.5 34.5q46 27 102 27l69 -9q16 -4 30 -9.5t26 -12.5
l12 -5l11 -2q5 0 10 5l9 11q5 7 11 9l23 2h29v-385l2 -24q3 -6 16 -6q44 0 78 22q35 23 56 77q20 53 22 148q-2 180 -91 272q-90 91 -257 93q-123 -2 -216 -53q-96 -53 -148 -147q-53 -94 -55 -224q2 -120 37 -198q36 -79 95 -126q58 -46 128 -66q69 -19 138 -19l98 11
l69 23l35 18l27 21q12 10 18 12l8 -5l8 -16l19 -48l-23 -13l-62 -28q-20 -8 -44 -15t-52 -13l-124 -12q-74 -1 -156 25q-81 26 -147 80q-68 56 -110 147q-41 90 -43 222q0 96 33 185q33 88 96 157q64 69 155 109q88 39 206 41q125 -2 208 -37q85 -37 136 -99q51 -63 73 -139
q22 -75 22 -157zM660 110v-1v260l-1 13l-9 11l-22 14l-38 16l-54 7q-45 0 -79 -18q-35 -18 -56 -59q-20 -41 -22 -112q0 -91 39 -140q37 -48 114 -48l58 8q25 8 39 16l23 17l6 7l2 8v1z" />
    <glyph glyph-name="A" unicode="A" horiz-adv-x="674" 
d="M337 673l-161 -436h322zM669 1v-1h-64l-16 4q-5 4 -10 17l-53 144h-377l-52 -144l-10 -17l-17 -4h-65l281 744h83l17 -4l10 -17l273 -723v1z" />
    <glyph glyph-name="B" unicode="B" horiz-adv-x="699" 
d="M92 748l99 2l109 2l172 -13q66 -13 100 -56q33 -42 33 -125q1 -52 -15 -91q-17 -39 -50 -63l-9 -8l-3 -9q0 -9 9 -13q46 -26 66 -69q19 -41 19 -105q0 -86 -32 -132q-33 -45 -104 -60l-186 -14l-70 1l-66 2l-50 3q-12 0 -17 5q-5 7 -5 18v725zM441 414q26 0 37 8l16 19
l21 50l8 60q0 53 -16 82q-15 29 -59 43l-123 12l-84 -1l-70 -3v-270h270zM434 347v-1h-263v-283l47 -2l57 -1l57 -1l127 13q43 13 60 45q16 31 15 86q-2 44 -10 71q-9 29 -22 45l-18 19l-19 7l-31 1v1z" />
    <glyph glyph-name="C" unicode="C" horiz-adv-x="617" 
d="M555 78v-1l12 -60l-60 -14l-72 -11l-73 -5q-102 0 -170 38q-68 37 -102 123q-33 85 -33 227q2 136 39 221q39 85 106 124q67 40 155 40l103 -10l77 -18l30 -10l-24 -69l-5 -8l-8 -3l-8 2q-6 2 -10 5q-27 19 -64 29l-88 11q-62 1 -113 -28q-49 -28 -78 -98t-29 -188
q-1 -121 23 -191t76 -98q53 -29 140 -27l61 3l62 7l53 8v1z" />
    <glyph glyph-name="D" unicode="D" horiz-adv-x="718" 
d="M92 749h25l60 1l76 1l73 1q103 0 166 -19q66 -20 101 -62q37 -44 50 -117q14 -76 14 -180q0 -113 -15 -186q-15 -75 -55 -116q-38 -43 -111 -61l-185 -17l-66 1l-62 2l-49 3q-12 0 -17 5q-5 7 -5 18v726zM172 686v-1v-620h22l54 -1l72 -1l125 12q51 14 78 47q28 32 40 95
q11 64 11 159t-11 159q-12 61 -40 95q-29 33 -78 45l-125 12h-46l-48 -1h-38l-16 -1v1z" />
    <glyph glyph-name="E" unicode="E" horiz-adv-x="612" 
d="M551 1v-1h-437q-12 0 -17 5q-5 7 -5 18v721h445v-70h-366v-260h341v-68h-341v-273h380v-73v1z" />
    <glyph glyph-name="F" unicode="F" horiz-adv-x="579" 
d="M538 675v-1h-367v-260h341v-68h-341v-346h-57q-12 0 -17 5q-5 7 -5 18v721h446v-70v1z" />
    <glyph glyph-name="G" unicode="G" horiz-adv-x="693" 
d="M618 1v-1h-38l-22 3l-13 10l-10 12l-15 6l-12 -3l-12 -6l-74 -25l-83 -10q-93 0 -155 38q-63 38 -95 124q-32 87 -32 227q0 137 40 221q41 86 113 124q72 39 172 39l102 -10l74 -18l29 -10l-24 -70l-5 -8q-2 -3 -7 -3q-8 0 -21 9q-30 20 -63 29l-81 10q-76 1 -130 -27
q-54 -29 -83 -98t-29 -188q-1 -59 5 -105t17 -81q22 -70 76 -100q53 -30 146 -29l68 8l46 15l16 7l20 20l3 30v226h55l17 -5l5 -18v-344v1z" />
    <glyph glyph-name="H" unicode="H" horiz-adv-x="750" 
d="M658 1v-1h-57q-11 0 -16 5q-5 7 -5 18v320h-408v-343h-58q-12 0 -17 5q-5 7 -5 18v721h59l16 -5l5 -18v-306h408v329h56l17 -5l5 -18v-721v1z" />
    <glyph glyph-name="I" unicode="I" horiz-adv-x="264" 
d="M172 1v-1h-58q-12 0 -17 5q-5 7 -5 18v721h59l16 -5l5 -18v-721v1z" />
    <glyph glyph-name="J" unicode="J" horiz-adv-x="484" 
d="M398 226v-1q-2 -96 -27 -147q-25 -52 -74 -72t-113 -19l-83 6l-58 9l-22 6l15 68l20 -4l49 -8l65 -4l73 9q34 11 53 44q20 35 21 103v528h59l17 -5l5 -18v-496v1z" />
    <glyph glyph-name="K" unicode="K" horiz-adv-x="662" 
d="M662 1v-1h-85l-19 4l-16 16l-259 331h-111v-351h-58q-12 0 -17 5q-5 7 -5 18v721h59l16 -5l5 -18v-298h108l220 301l16 16l19 4h73l-254 -348l308 -396v1z" />
    <glyph glyph-name="L" unicode="L" horiz-adv-x="554" 
d="M517 1v-1h-403q-12 0 -17 5q-5 7 -5 18v721h58l16 -5l5 -18v-644h346v-77v1z" />
    <glyph glyph-name="M" unicode="M" horiz-adv-x="951" 
d="M890 1v-1h-56q-11 0 -16 5l-6 18l-79 650l-206 -673h-83l-17 4l-9 17l-200 652l-78 -650l-6 -18q-5 -5 -16 -5h-56l87 744h108l17 -4l9 -17l192 -652l200 673h110l15 -5l6 -18l84 -721v1z" />
    <glyph glyph-name="N" unicode="N" horiz-adv-x="770" 
d="M678 1v-1h-109q-9 0 -16 6l-14 22l-370 645v-673h-55q-12 0 -17 5q-5 7 -5 18v721h119l14 -6l14 -21l364 -646v673h54l16 -5l5 -18v-721v1z" />
    <glyph glyph-name="O" unicode="O" horiz-adv-x="738" 
d="M369 56q82 -1 133 28t73 99q11 35 17 81.5t5 106.5q1 114 -23 186q-23 69 -74 101t-131 30q-77 1 -128 -28q-50 -29 -75 -99q-24 -69 -24 -190q0 -116 25 -185q25 -68 75 -100q51 -31 127 -30zM370 -16v-1q-160 0 -237 95q-77 97 -76 292q-1 197 76 293q77 95 237 95
q161 0 238 -95q75 -95 74 -293q1 -195 -74 -292q-77 -95 -238 -95v1z" />
    <glyph glyph-name="P" unicode="P" horiz-adv-x="635" 
d="M114 0q-12 0 -17 5q-5 7 -5 18v725l99 2l110 2q105 0 170 -21q62 -22 91 -72q29 -51 27 -137q1 -91 -26 -144q-29 -55 -91 -77q-64 -23 -171 -23h-130v-278h-57zM171 344v-1h143q73 -1 116 15q42 15 60 53q18 39 17 104q1 67 -17 105t-60 53q-43 16 -116 15l-104 -1
l-39 -2v-342v1z" />
    <glyph glyph-name="Q" unicode="Q" horiz-adv-x="744" 
d="M369 54q83 -2 133 29q52 29 74 99q11 35 17 82t5 107q1 115 -23 187q-24 69 -75 101t-131 31q-76 1 -128 -29q-50 -29 -75 -99q-24 -71 -24 -191q0 -116 25 -185q26 -71 76 -102q49 -32 126 -30zM370 -19q-161 0 -237 96q-77 99 -76 293q-1 197 76 294q76 96 237 96
t238 -96q76 -96 75 -294q1 -196 -75 -293q-77 -96 -238 -96zM718 -135v-1l34 -57l-13 -7l-37 -14l-58 -7q-47 2 -79 16q-35 17 -61 37l-55 37q-26 14 -60 16l-60 -9l-20 -10l-34 56l13 8l37 13l57 8q23 -1 43 -5t37 -12l60 -37l55 -36q25 -15 60 -17q41 2 61 10l20 10v1z
" />
    <glyph glyph-name="R" unicode="R" horiz-adv-x="671" 
d="M527 0q-11 0 -16 5q-5 7 -5 18l-6 165q-1 44 -14 72q-14 27 -41 38l-77 11h-197v-309h-57q-12 0 -17 5q-5 7 -5 18v725l51 1l62 2l86 1l173 -16q64 -16 91 -62q27 -45 27 -129q0 -66 -16 -110q-15 -45 -54 -67l-11 -8l-4 -9q-1 -4 4 -9l21 -14q24 -16 37 -41l15 -53
l5 -58l6 -176h-58zM171 378v-1h226l40 2q13 2 17 6l11 13q8 13 14.5 26.5t11.5 29.5t7.5 35.5t3.5 44.5q1 57 -14 93q-14 33 -56 47q-43 14 -121 13h-77l-63 -3v-307v1z" />
    <glyph glyph-name="S" unicode="S" horiz-adv-x="568" 
d="M66 17v-1l14 67l27 -6l62 -11l75 -6q82 1 123 24q41 24 53 59q12 33 10 70q0 43 -23 69q-23 24 -60 36l-77 20l-7 1l-12 2l-6 2q-87 13 -137 56q-50 44 -51 128q-2 37 9 78q10 39 36 74q24 33 73 55q45 20 120 22l96 -8l62 -14l22 -8l-23 -70l-5 -7l-9 -3l-7 2
q-6 2 -10 6q-25 16 -54 23l-69 7q-79 0 -120 -41q-39 -41 -39 -116q2 -45 25 -68q24 -25 56 -35l58 -16l52 -11q43 -7 87 -26q41 -17 68 -54q26 -38 27 -104q0 -118 -63 -172q-61 -55 -184 -55l-99 8l-72 14l-28 8v1z" />
    <glyph glyph-name="T" unicode="T" horiz-adv-x="602" 
d="M341 1v-1h-58q-12 0 -17 5q-5 7 -5 18v651h-251v70h582v-70h-251v-674v1z" />
    <glyph glyph-name="U" unicode="U" horiz-adv-x="740" 
d="M649 1v-1h-40l-21 2l-13 10l-10 13l-16 6l-10 -3l-14 -6q-26 -13 -75 -23l-118 -12q-99 2 -153 35q-55 34 -76 98q-22 64 -21 155l1 63v95l1 107l1 101v74v29h58l16 -5l5 -18v-28l-1 -71v-94l-1 -98l-1 -83v-47q-1 -85 15 -139q15 -52 59 -78q45 -26 130 -25l79 7l60 16
l36 15q21 8 25 18l4 34v596h58l17 -5l5 -18v-721v1z" />
    <glyph glyph-name="V" unicode="V" horiz-adv-x="639" 
d="M377 1v-1h-96l-17 4q-4 4 -9 17l-250 723h68l17 -4l9 -17l221 -652l221 652q3 13 9 17l17 4h67l-257 -744v1z" />
    <glyph glyph-name="W" unicode="W" horiz-adv-x="976" 
d="M767 1v-1h-99l-17 4q-6 4 -9 17l-154 658l-158 -679h-100l-17 4q-6 4 -9 17l-183 723h60l17 -4l9 -17l162 -652l158 673h100l17 -4l8 -17l156 -652l163 652l8 17l17 4h60l-189 -744v1z" />
    <glyph glyph-name="X" unicode="X" horiz-adv-x="622" 
d="M601 1v-1v0h-73l-19 4l-14 16l-184 291l-185 -291l-14 -16l-19 -4h-71l238 373l-239 371h71l19 -4l14 -16l186 -294l178 294l14 16l18 4h73l-232 -370l239 -374v1z" />
    <glyph glyph-name="Y" unicode="Y" horiz-adv-x="583" 
d="M331 1v-1h-58q-12 0 -17 5q-5 7 -5 18v201l-251 520h71l16 -4l10 -17l195 -418l193 418l10 17l15 4h73l-252 -520v-224v1z" />
    <glyph glyph-name="Z" unicode="Z" horiz-adv-x="559" 
d="M518 1v-1h-477v29q0 14 5 29l12 27l361 587h-371v72h465v-35l-3 -26l-12 -24l-363 -587h383v-72v1z" />
    <glyph glyph-name="bracketleft" unicode="[" horiz-adv-x="315" 
d="M244 -101v-1h-140q-13 0 -17 6q-5 7 -5 18v853h162v-63h-86v-751h86v-63v1z" />
    <glyph glyph-name="backslash" unicode="\" horiz-adv-x="415" 
d="M415 -90v-1v0h-54l-17 4l-9 17l-335 905h55l16 -4l9 -17l335 -905v1z" />
    <glyph glyph-name="bracketright" unicode="]" horiz-adv-x="315" 
d="M234 -101v-1v0h-162v63h86v751h-86v63h140l17 -6l5 -18v-853v1z" />
    <glyph glyph-name="asciicircum" unicode="^" horiz-adv-x="717" 
d="M645 390v-1v0h-81l-206 292l-205 -292h-81l261 361h51l261 -361v1z" />
    <glyph glyph-name="underscore" unicode="_" horiz-adv-x="585" 
d="M595 -110v-1v0h-605v58h605v-58v1z" />
    <glyph glyph-name="grave" unicode="`" horiz-adv-x="300" 
d="M276 607v-1h-63l-23 4q-5 2 -11.5 5.5t-13.5 8.5l-137 99h91l21 -2q11 -3 24 -16l112 -99v1z" />
    <glyph glyph-name="a" unicode="a" 
d="M465 0l-23 2q-7 3 -11 10l-9 14l-10 5l-11 -2l-12 -7q-23 -14 -58 -25l-71 -10q-59 0 -108 29q-48 29 -77 89q-14 31 -21 70t-8 87q2 97 31 157q32 63 79 91q49 30 104 30l71 -10l58 -25l12 -7l11 -3q5 1 10 6l9 14q4 7 11 10l23 2h29v-527h-29zM418 119v-1v291l-2 12
l-9 10l-23 16l-40 17l-55 8q-43 1 -82 -19q-35 -19 -58 -66q-20 -45 -22 -124q0 -103 40 -155q39 -53 118 -53l59 8l41 17l22 16l9 10l2 12v1z" />
    <glyph glyph-name="b" unicode="b" 
d="M72 0v744h54l17 -5l5 -18v-201l2 -16l8 -5l7 1l9 5q24 13 58 24l73 11q59 0 108 -29q48 -28 77 -89q29 -63 29 -157q-2 -97 -31 -157q-31 -63 -79 -91q-48 -30 -104 -30l-70 10q-34 10 -59 25l-12 7l-10 3l-10 -6l-10 -14l-11 -10l-22 -2h-29zM148 411v-1v-292
q-1 -6 1 -12l10 -10l22 -16l40 -17l56 -8q43 -1 81 19q36 19 58 67q22 45 22 123q0 102 -39 155q-41 53 -118 53l-60 -8l-40 -17l-22 -16l-9 -9l-2 -12v1z" />
    <glyph glyph-name="c" unicode="c" horiz-adv-x="460" 
d="M413 66v-1l10 -54l-20 -6l-53 -12l-74 -6q-107 0 -168 66q-60 66 -62 209q2 100 32 160q31 61 86 90q55 28 124 28l82 -8l54 -15l-20 -48l-9 -16q-3 -7 -8 -5q-6 0 -11 4l-22 12l-27 8l-36 4q-51 1 -88 -20q-36 -20 -56 -68t-20 -125q-2 -101 39 -156q40 -54 134 -56
l51 3l44 7l18 4v1z" />
    <glyph glyph-name="d" unicode="d" 
d="M465 0l-23 2q-7 3 -11 10l-9 14l-10 5l-11 -2l-12 -7q-23 -14 -58 -25l-71 -10q-59 0 -108 29t-77 90q-27 58 -29 156q2 97 31 157q32 63 79 91q49 30 104 30l73 -11l58 -24l10 -5l7 -1q5 0 7 5l3 16v224h54l17 -5l5 -18v-721h-29zM418 119v-1v291l-2 12l-9 10l-23 16
l-40 17l-55 8q-43 1 -82 -19q-35 -19 -58 -66q-20 -45 -22 -124q0 -103 40 -155q39 -53 118 -53l59 8l41 17l22 16l9 10l2 12v1z" />
    <glyph glyph-name="e" unicode="e" horiz-adv-x="523" 
d="M457 13l-25 -7l-59 -12l-71 -7q-130 1 -193 72q-63 70 -63 205q2 132 59 203t168 73q32 -1 60 -6.5t51 -16.5q48 -23 73 -61q24 -36 26 -90q0 -37 -12 -65q-12 -29 -33 -48q-33 -27 -77 -38l-105 -11l-91 7l-36 8q6 -65 30 -103q26 -36 67 -51q42 -15 99 -14l50 4l50 8
l22 4zM127 279v-1l49 -12l73 -4l88 10q32 11 47 32l13 27l4 33q0 34 -13 59q-14 26 -42 41q-28 16 -74 16q-44 0 -72 -19q-27 -19 -44 -49q-8 -16 -13.5 -32.5t-9.5 -33.5q-6 -35 -6 -68v1z" />
    <glyph glyph-name="f" unicode="f" horiz-adv-x="344" 
d="M174 1v-1h-54q-12 0 -17 5q-5 7 -5 18v445h-76v59h76v64q0 87 34 125q34 39 110 39l48 -2l42 -7l-4 -54l-11 1l-25 2l-30 1q-52 0 -71 -24q-18 -26 -17 -76v-69h139v-59h-139v-468v1z" />
    <glyph glyph-name="g" unicode="g" 
d="M418 7l-3 16q-2 5 -7 5l-7 -1l-10 -5l-58 -24l-73 -11q-59 0 -108 29q-48 29 -77 89q-14 31 -21 70t-8 87q2 97 31 157q32 63 79 91q49 30 104 30l71 -10l58 -25l12 -7l11 -3q5 1 10 6l9 14q4 7 11 10l23 2h29v-30v-79v-107v-117v-108v-78v-31q-2 -79 -25 -123
q-25 -46 -68 -65q-42 -19 -99 -19q-44 1 -78 15q-33 13 -57 32l-34 32l-12 14l44 41l10 -11l27 -24l42 -24q25 -11 53 -11q52 -2 87 27q32 28 34 98v48zM418 118v-1v292l-2 12l-9 10l-23 16l-40 17l-55 8q-43 1 -82 -19q-35 -19 -58 -66q-20 -45 -22 -124q0 -103 40 -155
q39 -53 118 -53l59 8l41 17l22 16l9 9l2 12v1z" />
    <glyph glyph-name="h" unicode="h" horiz-adv-x="563" 
d="M497 1v-1h-54q-12 0 -17 5q-5 7 -5 18v320q2 69 -28 100q-29 31 -103 29l-63 -8l-44 -17l-24 -16l-10 -10l-1 -11v-410h-55q-11 0 -16 5q-5 7 -5 18v721h54l17 -5l5 -18v-201l2 -16l8 -5l7 1l9 5q25 13 59 24l73 11q96 0 143 -43q48 -44 48 -133v-364v1z" />
    <glyph glyph-name="i" unicode="i" horiz-adv-x="225" 
d="M60 653v91h105v-91h-105zM151 1v-1h-55q-11 0 -16 5q-5 7 -5 18v504h54l17 -5l5 -18v-504v1z" />
    <glyph glyph-name="j" unicode="j" horiz-adv-x="231" 
d="M-20 -167l28 -3h13q37 -1 49 21q14 21 12 68v608h55l16 -5l5 -18v-579q1 -75 -23 -115q-22 -40 -84 -40l-38 2l-38 5zM173 654v-1h-105v91h105v-91v1z" />
    <glyph glyph-name="k" unicode="k" horiz-adv-x="520" 
d="M515 1v-1h-79q-12 0 -17 4l-15 16l-176 244h-80v-264h-55q-11 0 -16 5q-5 7 -5 18v721h54l17 -5l5 -18v-386h85l136 172l15 16l18 4h76l-182 -227l219 -300v1z" />
    <glyph glyph-name="l" unicode="l" horiz-adv-x="264" 
d="M251 56v-1l5 -56l-38 -5l-38 -2q-62 0 -84 40q-24 40 -23 115v597h54l17 -5l5 -18v-580q-2 -47 12 -68q12 -22 49 -21h13l28 3v1z" />
    <glyph glyph-name="m" unicode="m" horiz-adv-x="890" 
d="M824 1v-1h-55q-11 0 -16 5q-5 7 -5 18v320q0 45 -11 75q-10 28 -38 42q-29 12 -76 12l-61 -8l-42 -17l-23 -16l-10 -10q-2 -5 -1 -11v-410h-55q-11 0 -16 5q-5 7 -5 18v320q0 45 -11 75q-10 28 -38 42q-29 12 -76 12l-61 -8l-42 -17l-23 -16l-10 -10q-2 -6 -1 -12v-409
h-55q-11 0 -16 5q-5 7 -5 18v504h29l22 -2l11 -10l10 -14q3 -5 10 -5l10 2l12 7q24 14 57 25l67 10l81 -11q32 -10 52 -27l15 -15q5 -6 13 -7l11 3l12 7q16 11 37 21l50 20l67 9q93 0 139 -43q47 -44 47 -133v-364v1z" />
    <glyph glyph-name="n" unicode="n" horiz-adv-x="563" 
d="M497 1v-1h-54q-12 0 -17 5q-5 7 -5 18v320q2 69 -28 100q-29 31 -103 29l-63 -8l-44 -17l-24 -16l-10 -10q-2 -6 -1 -12v-409h-55q-11 0 -16 5q-5 7 -5 18v504h29l22 -2l11 -10l10 -14q3 -5 10 -5l10 2l12 7q25 15 59 25l71 10q96 0 143 -43q48 -44 48 -133v-364v1z" />
    <glyph glyph-name="o" unicode="o" horiz-adv-x="580" 
d="M533 264q-1 -135 -63 -206q-61 -69 -180 -71q-119 2 -180 71q-62 71 -63 206q2 136 63 206q61 69 180 71q119 -2 180 -71q62 -71 63 -206zM452 265v-1q0 107 -40 160q-41 54 -122 54q-82 0 -122 -54q-40 -53 -40 -160t40 -160q40 -54 122 -54q81 0 122 54q40 53 40 160v1
z" />
    <glyph glyph-name="p" unicode="p" horiz-adv-x="555" 
d="M83 -183q-12 0 -16 6l-5 18v686h29l22 -2l11 -10l10 -14q3 -5 10 -5l10 2l12 7l59 25l70 10q59 0 108 -29q48 -28 77 -89q29 -63 29 -157q-2 -97 -31 -157q-31 -63 -79 -91q-48 -30 -104 -30l-73 11q-34 11 -58 24l-9 5l-7 1l-8 -5l-2 -16v-190h-55zM138 410v-1v-291
q-1 -6 1 -12l10 -10l22 -16q8 -5 18 -9t22 -8l56 -8q43 -1 81 19q37 19 58 66q22 45 22 124q0 102 -39 155q-41 53 -118 53l-60 -8l-40 -17l-22 -16l-9 -10l-2 -12v1z" />
    <glyph glyph-name="q" unicode="q" 
d="M439 -183q-12 0 -16 6q-5 7 -5 18v166l-3 16q-2 5 -7 5l-7 -1l-10 -5l-58 -24l-73 -11q-59 0 -108 29q-48 29 -77 89q-14 31 -21 70t-8 87q2 97 31 157q32 63 79 91q49 30 104 30l71 -10l58 -25l12 -7l11 -3q5 1 10 6l9 14q4 7 11 10l23 2h29v-710h-55zM418 118v-1v292
l-2 12l-9 10l-23 16l-40 17l-55 8q-43 1 -82 -19q-35 -19 -58 -66q-20 -45 -22 -124q0 -103 40 -155q39 -53 118 -53l59 8l41 17l22 16l9 9l2 12v1z" />
    <glyph glyph-name="r" unicode="r" horiz-adv-x="350" 
d="M148 1v-1h-55q-11 0 -16 5q-5 7 -5 18v504h29l22 -2l11 -10l10 -14q3 -5 10 -5l10 2l12 7q25 15 59 25l70 10l13 -1h7v-12v-25v-24v-12l-15 2l-30 1l-56 -8l-42 -17l-23 -16l-10 -10l-1 -11v-407v1z" />
    <glyph glyph-name="s" unicode="s" horiz-adv-x="443" 
d="M45 13v-1l11 56l20 -4l51 -9l71 -4q60 -1 92 20t32 70q0 24 -9 42q-7 19 -33 31q-13 7 -31 11.5t-41 8.5q-51 7 -90 23q-38 15 -57 43q-20 29 -20 77q-1 36 16 76q16 37 61 62q42 24 128 26l82 -8l53 -15l-19 -48l-8 -16q-3 -6 -9 -5q-3 0 -11 5l-27 14l-26 7l-33 2
q-70 0 -98 -25q-29 -25 -28 -66q0 -33 15 -51q14 -17 42 -26l68 -15q81 -15 119 -50q37 -34 37 -97q0 -78 -50 -119q-48 -39 -156 -41l-69 7l-58 11l-25 7v1z" />
    <glyph glyph-name="t" unicode="t" horiz-adv-x="351" 
d="M327 51v-1l4 -54l-42 -7l-48 -2q-76 0 -110 39q-34 38 -34 125v317h-76v59h76v115l76 22v-137h141v-59h-141v-322q-1 -50 17 -76q19 -24 71 -24l30 1l25 2l11 1v1z" />
    <glyph glyph-name="u" unicode="u" horiz-adv-x="557" 
d="M486 1v-1h-29l-23 2q-7 3 -11 10l-9 14l-10 5l-11 -2l-12 -7q-22 -14 -57 -25l-69 -10q-94 0 -141 43q-47 44 -47 133v364h54l17 -5l5 -18v-320q-1 -69 27 -100q29 -30 101 -29l61 8l43 17l24 16l9 11l2 12v408h54l17 -5l5 -18v-504v1z" />
    <glyph glyph-name="v" unicode="v" horiz-adv-x="484" 
d="M299 1v-1v0h-95l-17 4l-9 17l-173 506h64l16 -4l9 -17l149 -452l147 452l9 17l17 4h63l-180 -527v1z" />
    <glyph glyph-name="w" unicode="w" horiz-adv-x="781" 
d="M625 1v-1h-97l-17 4q-6 4 -9 17l-112 452l-115 -473h-96l-17 4q-5 5 -8 17l-144 506h58l17 -4l8 -17l122 -452l118 473h95l17 -4l9 -17l114 -452l122 452q3 13 9 17l17 4h55l-146 -527v1z" />
    <glyph glyph-name="x" unicode="x" horiz-adv-x="503" 
d="M483 1v-1v0h-71l-18 4l-15 16l-128 196l-127 -196l-14 -16l-19 -4h-69l178 264l-179 263h69l19 -4l14 -16l128 -197l123 197l14 16l19 4h70l-174 -262l180 -265v1z" />
    <glyph glyph-name="y" unicode="y" horiz-adv-x="557" 
d="M410 -40v-1v48l-3 16l-7 5l-7 -1l-10 -5q-26 -14 -58 -24l-73 -11q-93 0 -139 43t-46 133v364h54l17 -5l5 -18v-320q-1 -69 27 -100q29 -30 101 -29l61 8l43 17l24 16l9 10l2 12v409h54l17 -5l5 -18v-504q-1 -47 -7 -82.5t-19 -60.5q-25 -49 -70 -69q-44 -20 -100 -18
l-80 15l-54 33l-31 33l-10 15l44 41l9 -11l24 -24q17 -14 40 -24q25 -11 54 -11l62 11q28 10 45 38q15 24 17 73v1z" />
    <glyph glyph-name="z" unicode="z" horiz-adv-x="458" 
d="M407 1v-1v0h-356v33l4 26l12 24l247 379h-255v65h343v-39l-3 -23l-12 -22l-247 -378h267v-65v1z" />
    <glyph glyph-name="braceleft" unicode="{" horiz-adv-x="344" 
d="M273 -101v-1h-53q-49 1 -71 16t-28 37q-6 24 -5 45v220q0 31 -15 57q-13 25 -46 36v55q33 11 46 36q15 25 15 57v220q-1 21 5 45q6 22 28 37t71 16h53v-63h-52q-13 0 -21 -7q-8 -8 -8 -22v-201l-4 -60l-10 -34l-17 -20l-26 -18q-9 -5 -9 -14t9 -13l26 -18l17 -20l10 -34
l4 -60v-201q0 -14 8 -22q8 -7 21 -7h52v-63v1z" />
    <glyph glyph-name="bar" unicode="|" horiz-adv-x="229" 
d="M148 -182v-1h-44q-13 0 -17 6q-5 7 -5 18v1006h44q12 0 17 -6l5 -18v-1006v1z" />
    <glyph glyph-name="braceright" unicode="}" horiz-adv-x="344" 
d="M124 -101v-1h-52v63h51l21 7q9 7 9 22v201q0 37 3 60q5 24 11 34l17 20l26 18q8 5 8 13q0 9 -8 14l-26 18q-10 7 -17 20q-6 10 -11 34q-3 22 -3 60v201q0 14 -9 22l-21 7h-51v63h52q49 -1 71 -16q23 -16 29 -37l5 -45v-220q0 -31 14 -57q15 -26 46 -36v-55
q-31 -10 -46 -36q-14 -26 -14 -57v-220l-5 -45q-6 -21 -29 -37q-22 -15 -71 -16v1z" />
    <glyph glyph-name="asciitilde" unicode="~" horiz-adv-x="641" 
d="M570 362v-1v-63q-37 -31 -77 -42l-68 -10q-23 1 -44 4t-39 10l-64 26q-14 7 -29 10t-30 4l-42 -3l-46 -14l-59 -35v63q38 32 77 42l67 10q24 -1 45 -4t38 -10l65 -26q14 -7 29 -10t29 -4l42 3l47 14q13 5 27.5 14t31.5 21v1z" />
    <glyph glyph-name="exclamdown" unicode="&#xa1;" horiz-adv-x="247" 
d="M82 471v91h104v-91h-104zM173 -182v-1h-56l-17 6q-5 7 -5 18v535h57q11 0 16 -6l5 -18v-535v1z" />
    <glyph glyph-name="cent" unicode="&#xa2;" horiz-adv-x="460" 
d="M259 -115q-12 0 -16 6q-5 7 -5 18v80q-90 11 -140 77q-50 65 -52 196q2 87 25 144q26 59 68 89q45 33 99 40v97h44l16 -6l5 -18v-69l72 -8l49 -14l-20 -48l-9 -17l-8 -5q-4 0 -11 5l-23 12l-21 7l-29 4v-424l50 3l42 7l18 4l10 -54l-35 -10l-85 -13v-103h-44zM238 60v-1
v411q-54 -14 -82 -63q-29 -50 -29 -144q0 -82 26 -134q25 -52 85 -70v1z" />
    <glyph glyph-name="sterling" unicode="&#xa3;" horiz-adv-x="577" 
d="M567 1v-1h-510v70h77l17 79l6 72l1 57l-1 36l-4 36h-77v71h70l-2 42l-1 50q0 113 54 175q55 60 174 62l90 -7l56 -15l19 -7l-24 -62l-5 -6q-3 -3 -8 -3l-8 2q-6 2 -10 5q-25 16 -51 20l-55 5q-81 2 -119 -39q-37 -40 -37 -132l1 -48l3 -42h196v-71h-189l1 -27l1 -27
l-1 -62l-6 -80l-15 -84h357v-70v1z" />
    <glyph glyph-name="currency" unicode="&#xa4;" horiz-adv-x="567" 
d="M405 169q-27 -21 -55 -29l-66 -10l-58 9q-34 11 -62 31l-68 -69l-44 46l68 66q-17 24 -27 54q-5 15 -7.5 31.5t-3.5 33.5q0 38 10 65q11 32 28 53l-68 67l44 46l68 -69q31 21 63 30l57 9l61 -9q33 -9 59 -29l68 68l44 -46l-68 -67q19 -24 28 -57q10 -29 10 -61
q-1 -17 -3.5 -33.5t-7.5 -31.5q-11 -30 -28 -54l69 -66l-44 -46zM284 193v-1q40 2 70 20q32 18 50 50q19 31 19 71t-20 72q-19 31 -52 48q-32 18 -66 18q-42 -2 -72 -20q-33 -21 -50 -50q-18 -32 -18 -68q0 -40 19 -71q17 -29 50 -50q30 -18 70 -20v1z" />
    <glyph glyph-name="yen" unicode="&#xa5;" horiz-adv-x="562" 
d="M496 226v-1h-175v-225h-59q-11 0 -16 5q-5 7 -5 18v202h-175v68h148l-30 70h-118v68h89l-134 313h63l16 -4l10 -17l172 -418l169 418l9 17l16 4h66l-135 -313h89v-68h-119l-30 -70h149v-68v1z" />
    <glyph glyph-name="brokenbar" unicode="&#xa6;" horiz-adv-x="221" 
d="M104 414q-13 0 -17 6q-5 7 -5 18v409h44q12 0 17 -6l5 -18v-409h-44zM148 -182v-1h-44q-13 0 -17 6q-5 7 -5 18v410h44q12 0 17 -6l5 -18v-410v1z" />
    <glyph glyph-name="section" unicode="&#xa7;" horiz-adv-x="547" 
d="M404 311q0 24 -9 44q-11 21 -38 37t-85 25l-19 4l-22 5q-25 -11 -39 -28t-22 -39q-6 -21 -6 -40q0 -36 17 -56q18 -21 48 -31l76 -20l43 -9q27 16 42 47q14 31 14 61zM475 318v-1q0 -42 -19 -76q-19 -38 -49 -62q34 -22 47 -52q15 -31 14 -70q0 -83 -56 -127
q-56 -42 -173 -44l-59 5l-60 12l-48 14l10 60l73 -15l85 -9q69 -1 112 20q41 21 43 77q0 26 -10 46q-11 20 -39 35q-30 16 -82 23q-86 12 -129 49q-44 38 -45 106q0 36 18 74q18 37 61 67q-34 22 -49 52q-15 32 -14 68q-1 20 3.5 39.5t12.5 39.5q17 41 62 67q44 26 130 28
l84 -8l57 -14l-20 -48l-7 -17l-9 -5q-4 0 -11 6l-27 15l-30 7l-36 4q-73 -2 -104 -28q-32 -27 -32 -74q0 -37 15 -58q16 -21 45 -31q14 -5 33 -10t42 -9q82 -16 122 -55t39 -102v1z" />
    <glyph glyph-name="dieresis" unicode="&#xa8;" horiz-adv-x="309" 
d="M13 620v96h100v-96h-100zM296 621v-1v0h-99v96h99v-96v1z" />
    <glyph glyph-name="copyright" unicode="&#xa9;" horiz-adv-x="907" 
d="M847 368q-2 -110 -52 -198q-50 -87 -139 -140q-88 -52 -202 -54q-115 2 -202 50q-88 49 -139 138q-50 88 -52 205q2 111 52 199q50 87 139 140q88 52 202 54q115 -2 202 -50q88 -49 139 -138q51 -88 52 -206zM782 368q-2 100 -44 175q-43 74 -117 118q-73 43 -167 43
q-93 -1 -167 -45q-74 -45 -117 -120q-42 -75 -44 -170q2 -101 44 -174q43 -74 117 -118q73 -43 167 -43q93 1 167 45q73 45 117 120q42 75 44 169zM580 165v-1l-60 -13l-65 -6q-61 0 -101 22q-42 23 -61 73q-20 51 -20 133q0 79 23 130t63 73q41 23 93 23l63 -7l49 -13
l19 -7l-17 -52l-6 -7l-6 -1l-4 1q-3 0 -6 3l-39 19l-51 6q-35 1 -60 -15q-26 -16 -41 -52q-14 -36 -16 -101q0 -68 13 -104q12 -37 40 -53q29 -15 74 -14l54 4l54 10l8 -52v1z" />
    <glyph glyph-name="ordfeminine" unicode="&#xaa;" horiz-adv-x="376" 
d="M256 657l-1 9l-7 8l-25 14l-34 6q-37 1 -62 -27q-24 -27 -26 -92q0 -56 21 -87q22 -30 64 -32l41 8q18 8 22 12l6 6l1 9v166zM315 411v-1h-21l-16 4l-10 10l-9 5l-11 -2q-17 -10 -34 -14l-43 -6q-37 0 -67 18q-30 16 -48 54q-17 36 -19 96q1 29 5.5 53t14.5 43
q19 36 50 55q30 18 64 18l44 -6l37 -15h8l9 7l7 5l15 2h24v-327v1z" />
    <glyph glyph-name="guillemotleft" unicode="&#xab;" horiz-adv-x="512" 
d="M221 153l-19 5l-17 16l-144 198l144 195l17 16l18 5h61l-160 -213l166 -222h-66zM461 154v-1v0h-65l-20 5l-17 16l-144 198l144 195l16 16l19 5h61l-160 -213l166 -222v1z" />
    <glyph glyph-name="logicalnot" unicode="&#xac;" horiz-adv-x="492" 
d="M430 123v-1h-46q-11 0 -16 5q-5 7 -5 18v97h-301v68h347l16 -6l5 -18v-164v1z" />
    <glyph glyph-name="uni00AD" unicode="&#xad;" horiz-adv-x="390" 
d="M329 241v-1v0h-267v72h267v-72v1z" />
    <glyph glyph-name="registered" unicode="&#xae;" horiz-adv-x="906" 
d="M846 368q-2 -110 -52 -198q-50 -87 -140 -140q-89 -53 -201 -54q-114 2 -202 51q-89 51 -138 139q-50 88 -52 202q2 111 52 199q49 88 138 141q88 52 202 54q113 -2 201 -52q88 -49 140 -139q51 -88 52 -203zM781 368q-2 100 -44 175q-43 74 -117 118q-73 43 -167 43
q-94 -1 -167 -46q-74 -44 -116 -120q-42 -75 -44 -170q2 -101 44 -174q42 -75 116 -117q73 -43 167 -43q94 2 167 45q73 45 117 120q42 75 44 169zM597 432l-10 -37l-19 -27l-13 -8l-6 -6q0 -3 3 -4l13 -7q21 -15 27 -37l6 -47l4 -109h-41q-10 0 -15 5q-6 4 -6 16l-3 94
q0 31 -15 45q-15 15 -52 14h-101v-174h-42q-10 0 -15 5q-6 4 -6 17v418l41 1l47 1l33 1l103 -10q38 -11 54 -37q17 -29 16 -78zM538 463v-1q0 32 -7 47q-7 16 -29 24l-63 7l-29 -1l-29 -1h-12v-161h119l22 4l9 9l13 29l6 43v1z" />
    <glyph glyph-name="macron" unicode="&#xaf;" horiz-adv-x="333" 
d="M309 634v-1v0h-285v59h285v-59v1z" />
    <glyph glyph-name="degree" unicode="&#xb0;" horiz-adv-x="439" 
d="M378 593q-2 -73 -44 -114q-41 -41 -113 -43q-70 -1 -115 37q-42 38 -44 120q1 70 44 113q42 42 115 44q71 0 113 -39q42 -38 44 -118zM221 491v-1q23 0 47 11q22 12 36 35q12 21 14 57q-2 36 -14 57q-14 24 -36 34l-47 11q-24 0 -48 -11q-11 -5 -19.5 -14t-15.5 -20
q-14 -23 -15 -57q1 -35 15 -57q14 -24 35 -35q24 -11 48 -11v1z" />
    <glyph glyph-name="plusminus" unicode="&#xb1;" horiz-adv-x="502" 
d="M62 31v67h378v-67h-378zM440 295v-1h-154v-138h-48q-12 -2 -17 5t-5 18v115h-154v67h154v138h48l17 -5l5 -18v-115h154v-67v1z" />
    <glyph glyph-name="twosuperior" unicode="&#xb2;" horiz-adv-x="353" 
d="M306 322v-1h-239q-11 0 -16 5t-5 17v52q1 40 18 66t44 44q13 9 27 17l28 16l41 25q20 12 32 29q12 16 12 41q0 36 -24 50q-23 13 -63 13l-47 -7l-33 -11l-13 -7l-16 49l15 8l38 14l58 8q69 0 107 -27q36 -26 38 -85q0 -50 -29 -84q-28 -33 -82 -61l-44 -26l-34 -31
q-13 -17 -13 -42v-17h200v-56v1z" />
    <glyph glyph-name="threesuperior" unicode="&#xb3;" horiz-adv-x="367" 
d="M42 340v-1l15 49q3 -3 29 -10l74 -10q48 2 71 19q23 20 23 51q2 36 -21 56q-22 20 -74 20h-30v55h22q55 2 74 22q20 22 19 51q0 29 -20 43q-22 14 -55 13l-45 -6l-33 -12l-13 -6l-16 53l16 6l39 11l52 6l70 -9q31 -11 48 -34q17 -22 19 -63q-1 -29 -12 -49l-23 -28
l-15 -11l-7 -8l4 -6l17 -10l30 -27q14 -19 16 -64q0 -32 -12 -60q-13 -28 -47 -47q-34 -18 -98 -19l-63 6l-40 12l-14 6v1z" />
    <glyph glyph-name="acute" unicode="&#xb4;" horiz-adv-x="300" 
d="M273 724v-1l-138 -99l-25 -14l-23 -4h-62l111 99q14 13 24 16l20 2h93v1z" />
    <glyph glyph-name="mu" unicode="&#xb5;" horiz-adv-x="562" 
d="M491 1v-1h-29l-23 2l-11 10l-9 14l-10 5l-11 -2l-12 -7q-22 -14 -57 -25l-69 -10q-43 0 -70 12t-42 35v-217h-55q-12 0 -16 6q-5 7 -5 18v686h54l17 -5l5 -18v-24v-59v-77v-77v-59v-24q-1 -69 27 -100q29 -30 101 -29l61 8q14 4 24.5 8t18.5 9l24 16l10 11l1 12v30v76v98
v98v76v30h54l17 -5l5 -18v-504v1z" />
    <glyph glyph-name="paragraph" unicode="&#xb6;" horiz-adv-x="715" 
d="M551 -91v-1h-44l-16 6q-5 7 -5 18v755h-60v-629q1 -49 -8 -85q-8 -35 -31 -52q-23 -18 -63 -18l-37 2l-39 6l5 50l28 -3h13q37 -1 52 21q15 21 15 68v294q-43 1 -77 6.5t-60 16.5q-53 21 -77 67t-24 121t26 119q27 44 84 62q57 19 150 19l89 -1l79 -2v-841v1z" />
    <glyph glyph-name="periodcentered" unicode="&#xb7;" horiz-adv-x="225" 
d="M165 327v-1v0h-104v91h104v-91v1z" />
    <glyph glyph-name="cedilla" unicode="&#xb8;" horiz-adv-x="227" 
d="M31 -178v-1l7 24q1 7 7 13l15 3l16 -2l20 -2l33 5q11 7 10 19q-2 14 -19 18l-43 4l16 105h49l-8 -67q23 -2 42 -13q20 -14 21 -44q-2 -31 -16 -47q-13 -15 -38 -23l-45 -6l-35 3l-32 10v1z" />
    <glyph glyph-name="onesuperior" unicode="&#xb9;" horiz-adv-x="205" 
d="M154 319v-1h-40q-10 0 -15 5q-6 4 -6 17v355h-42v49h83l15 -5l5 -16v-405v1z" />
    <glyph glyph-name="ordmasculine" unicode="&#xba;" horiz-adv-x="377" 
d="M186 407q-72 2 -110 44q-37 43 -39 124q2 81 42 124q40 45 113 45q71 0 109 -44q39 -44 39 -125q-2 -81 -42 -124q-40 -42 -112 -44zM189 458v-1q43 0 66 29q22 28 22 89q0 62 -22 90q-23 29 -66 29q-44 0 -67 -29q-21 -29 -21 -90t21 -89q23 -29 67 -29v1z" />
    <glyph glyph-name="guillemotright" unicode="&#xbb;" horiz-adv-x="512" 
d="M221 153l160 213l-166 222h66l20 -5l17 -16l143 -198l-143 -195l-17 -16l-19 -5h-61zM108 154v-1h-61l160 213l-166 222h66l20 -5l17 -16l143 -198l-143 -195l-17 -16q-8 -5 -19 -5v1z" />
    <glyph glyph-name="onequarter" unicode="&#xbc;" horiz-adv-x="718" 
d="M131 318q-10 0 -15 5t-5 17v355h-42v49h83l15 -5l4 -16v-405h-40zM72 -33l457 772l13 17l17 5h57l-459 -773l-14 -17l-17 -4h-54zM667 1v-1h-40q-11 0 -16 5t-5 16v61h-179q-10 0 -15 5t-5 16v37q0 36 15 63q14 26 38 48l49 41l23 18t21 19q20 20 33 43q13 22 13 55h42
l15 -5l5 -17q-2 -32 -16 -58q-18 -29 -40 -50l-51 -42l-59 -53q-26 -29 -27 -60v-7h138v80h40l16 -5l5 -16v-194v1z" />
    <glyph glyph-name="onehalf" unicode="&#xbd;" horiz-adv-x="777" 
d="M138 318q-10 0 -15 5t-5 17v355h-42v49h83l15 -5l4 -16v-405h-40zM486 0q-11 0 -16 5t-5 16v53q2 40 18 65q16 26 44 45l55 33l41 24l31 30q11 16 13 41q-2 36 -25 49q-26 14 -62 13l-47 -6l-33 -12l-13 -6l-16 49l15 8l38 14l58 8q68 0 106 -27q38 -29 38 -86
q0 -51 -28 -83q-28 -33 -82 -61l-44 -26l-34 -32q-13 -16 -13 -41v-18h199v-55h-238zM123 -32v-1h-54l457 772l13 17l17 5h57l-459 -773l-14 -17l-17 -4v1z" />
    <glyph glyph-name="threequarters" unicode="&#xbe;" horiz-adv-x="814" 
d="M168 -33l457 772l14 17l17 5h56l-459 -773l-13 -17l-17 -4h-55zM67 388q3 -3 29 -10l74 -10q48 2 71 19q23 20 23 51q2 36 -21 56q-22 20 -74 20h-30v55h22q55 2 74 22q20 22 19 51q0 29 -20 43q-22 14 -55 13l-45 -6l-33 -12l-13 -6l-16 53l16 6l39 11l52 6l70 -9
q31 -11 48 -34q17 -22 19 -63q-1 -29 -12 -49l-23 -28l-15 -11l-7 -8l4 -6l17 -10l30 -27q14 -19 16 -64q0 -32 -12 -60q-13 -28 -47 -47q-34 -18 -98 -19l-63 6l-40 12l-14 6zM763 1v-1h-40q-11 0 -16 5l-4 16v61h-179q-10 0 -15 5q-6 4 -6 16v37q2 37 16 63t38 48l49 42
l44 36l33 43q11 21 13 55h42l15 -5l4 -17q0 -32 -16 -58l-39 -50l-51 -42q-17 -13 -32 -26t-28 -27q-24 -27 -26 -60v-7h138v80h40l16 -5l4 -16v-194v1z" />
    <glyph glyph-name="questiondown" unicode="&#xbf;" horiz-adv-x="539" 
d="M289 473v91h104v-91h-104zM439 -92v-1l20 -67l-22 -7l-61 -13l-92 -8q-68 0 -120 21q-53 21 -81 66q-28 43 -30 116q2 62 20 96q19 34 51 57q31 22 68 40l54 30q25 13 40 36q16 22 16 59v45h57l16 -6l5 -18v-31q-1 -56 -24 -88q-23 -30 -59 -49l-71 -36l-46 -28
q-21 -17 -34 -41q-11 -23 -13 -63q2 -53 23 -82q23 -29 57 -41l77 -11l75 8q27 9 44 21l10 6l7 2l8 -4l5 -10v1z" />
    <glyph glyph-name="Agrave" unicode="&#xc0;" horiz-adv-x="674" 
d="M337 673l-161 -436h322zM605 0l-16 4q-5 4 -10 17l-53 144h-377l-52 -144l-10 -17l-17 -4h-65l281 744h83l17 -4l10 -17l273 -723h-64zM390 824v-1h-62l-23 4q-6 2 -12 5.5t-13 8.5l-137 99h91l21 -2q11 -3 24 -16l111 -99v1z" />
    <glyph glyph-name="Aacute" unicode="&#xc1;" horiz-adv-x="674" 
d="M337 673l-161 -436h322zM605 0l-16 4q-5 4 -10 17l-53 144h-377l-52 -144l-10 -17l-17 -4h-65l281 744h83l17 -4l10 -17l273 -723h-64zM529 941v-1l-138 -99q-7 -5 -13.5 -8.5t-11.5 -5.5l-23 -4h-62l111 99l24 16l20 2h93v1z" />
    <glyph glyph-name="Acircumflex" unicode="&#xc2;" horiz-adv-x="674" 
d="M337 673l-161 -436h322zM605 0l-16 4q-5 4 -10 17l-53 144h-377l-52 -144l-10 -17l-17 -4h-65l281 744h83l17 -4l10 -17l273 -723h-64zM516 824v-1h-69l-23 4q-5 2 -11.5 5.5t-13.5 8.5l-62 45l-62 -45q-8 -5 -14.5 -8.5t-11.5 -5.5l-22 -4h-62l138 117h54l20 -3
q11 -3 24 -16l115 -98v1z" />
    <glyph glyph-name="Atilde" unicode="&#xc3;" horiz-adv-x="674" 
d="M337 673l-161 -436h322zM605 0l-16 4q-5 4 -10 17l-53 144h-377l-52 -144l-10 -17l-17 -4h-65l281 744h83l17 -4l10 -17l273 -723h-64zM495 936v-1v-37l-4 -20l-15 -18q-17 -14 -39 -22l-37 -7l-51 10l-38 19q-16 10 -34 10l-32 -5q-9 -4 -23 -13t-33 -25v38q-1 11 4 20
l14 18l39 22l38 7l51 -11l38 -19q15 -8 35 -10l19 2l26 11l42 30v1z" />
    <glyph glyph-name="Adieresis" unicode="&#xc4;" horiz-adv-x="674" 
d="M337 673l-161 -436h322zM606 0q-13 0 -17 4q-5 4 -10 17l-53 144h-377l-53 -144l-9 -17l-17 -4h-65l281 744h83l17 -4l10 -17l273 -723h-63zM199 837v96h99v-96h-99zM482 838v-1h-100v96h100v-96v1z" />
    <glyph glyph-name="Aring" unicode="&#xc5;" horiz-adv-x="674" 
d="M361 608l-12 -1h-12h-12l-12 1l-137 -371h322zM408 720q-2 34 -21 51q-19 16 -50 16t-50 -16q-20 -17 -21 -51q2 -35 22 -51q20 -17 49 -17t49 17q20 16 22 51zM669 1v-1h-64l-16 4q-5 4 -10 17l-54 144h-376l-53 -144l-10 -17l-16 -4h-65l239 634l-11 8l-20 28
q-8 18 -10 50q0 55 35 84t99 29t99 -29t35 -84q-2 -34 -11 -52q-11 -21 -20 -27l-11 -8l240 -633v1z" />
    <glyph glyph-name="AE" unicode="&#xc6;" horiz-adv-x="954" 
d="M501 0q-12 0 -17 5q-5 7 -5 18v323h-23l-128 -15q-61 -16 -107 -55q-47 -39 -74 -110l-53 -145l-10 -17l-16 -4h-63l251 660q15 41 39 59q22 17 66 22l116 3h402v-70h-321v-260h296v-68h-296v-273h335v-73h-392zM479 675v-1h-36l-69 -3q-23 -3 -34 -14q-10 -10 -18 -32
l-108 -281l15 11l45 24q29 13 77 24l112 11h16v260v1z" />
    <glyph glyph-name="Ccedilla" unicode="&#xc7;" horiz-adv-x="624" 
d="M573 18v-1l-61 -14l-72 -11l-74 -5l-5 -46q23 -2 42 -13q19 -13 20 -44q0 -31 -16 -47l-37 -23l-45 -6l-35 3q-20 3 -33 10l7 24q1 7 7 13l16 3l15 -2l21 -2l33 5q10 6 10 19q-2 14 -19 18l-44 4l14 87q-86 8 -142 50q-57 42 -85 124q-28 81 -28 211q1 135 39 221
q39 85 106 125q67 39 156 39l103 -10l77 -18l30 -10l-24 -69l-5 -8l-8 -3l-8 2q-6 2 -10 5q-27 19 -64 29l-88 11q-62 1 -113 -28t-79 -97q-29 -70 -29 -189q-1 -121 23 -191q24 -69 77 -98t140 -27l61 3l62 7l53 8l12 -60v1z" />
    <glyph glyph-name="Egrave" unicode="&#xc8;" horiz-adv-x="612" 
d="M114 0q-12 0 -17 5q-5 7 -5 18v721h445v-70h-366v-260h341v-68h-341v-273h380v-73h-437zM410 824v-1h-63l-23 4l-25 14l-137 99h91l21 -2l24 -16l112 -99v1z" />
    <glyph glyph-name="Eacute" unicode="&#xc9;" horiz-adv-x="612" 
d="M114 0q-12 0 -17 5q-5 7 -5 18v721h445v-70h-366v-260h341v-68h-341v-273h380v-73h-437zM472 941v-1l-137 -99l-25 -14l-23 -4h-63l112 99l24 16l20 2h92v1z" />
    <glyph glyph-name="Ecircumflex" unicode="&#xca;" horiz-adv-x="612" 
d="M114 0q-12 0 -17 5q-5 7 -5 18v721h445v-70h-366v-260h341v-68h-341v-273h380v-73h-437zM498 824v-1h-70l-23 4q-5 2 -11.5 5.5t-13.5 8.5l-61 45l-63 -45q-7 -5 -13.5 -8.5t-11.5 -5.5l-23 -4h-61l138 117h53l21 -3l23 -16l116 -98v1z" />
    <glyph glyph-name="Edieresis" unicode="&#xcb;" horiz-adv-x="612" 
d="M114 0q-12 0 -17 5q-5 7 -5 18v721h445v-70h-366v-260h341v-68h-341v-273h380v-73h-437zM172 837v96h100v-96h-100zM455 838v-1h-100v96h100v-96v1z" />
    <glyph glyph-name="Igrave" unicode="&#xcc;" horiz-adv-x="264" 
d="M114 0q-12 0 -17 5q-5 7 -5 18v721h59l16 -5l5 -18v-721h-58zM184 824v-1h-62l-23 4l-25 14l-137 99h91l21 -2l24 -16l111 -99v1z" />
    <glyph glyph-name="Iacute" unicode="&#xcd;" horiz-adv-x="264" 
d="M114 0q-12 0 -17 5q-5 7 -5 18v721h59l16 -5l5 -18v-721h-58zM318 941v-1l-138 -99l-25 -14l-23 -4h-62l111 99q13 13 24 16l20 2h93v1z" />
    <glyph glyph-name="Icircumflex" unicode="&#xce;" horiz-adv-x="264" 
d="M114 0q-12 0 -17 5q-5 7 -5 18v721h59l16 -5l5 -18v-721h-58zM308 824v-1h-69l-23 4q-5 2 -11.5 5.5t-13.5 8.5l-62 45l-62 -45l-26 -14l-22 -4h-62l138 117h54l20 -3l24 -16l115 -98v1z" />
    <glyph glyph-name="Idieresis" unicode="&#xcf;" horiz-adv-x="264" 
d="M114 0q-12 0 -17 5q-5 7 -5 18v721h59l16 -5l5 -18v-721h-58zM-9 837v96h99v-96h-99zM274 838v-1h-100v96h100v-96v1z" />
    <glyph glyph-name="Eth" unicode="&#xd0;" horiz-adv-x="718" 
d="M92 349h-81v66h81v334h25l60 1l76 1l73 1q103 0 166 -19q66 -20 101 -62q37 -44 50 -117q7 -37 10.5 -82t3.5 -99q0 -112 -15 -185q-15 -74 -55 -117q-39 -42 -111 -60l-185 -17l-66 1l-62 2l-49 3q-12 0 -17 5q-5 7 -5 18v326zM319 350v-1h-147v-284h22l54 -1l72 -1
l125 12q51 14 78 47q28 32 40 95q5 31 8 70t3 88q0 95 -11 159q-12 63 -40 95q-28 34 -78 46l-125 12h-46l-48 -1h-38l-16 -1v-270h147v-66v1z" />
    <glyph glyph-name="Ntilde" unicode="&#xd1;" horiz-adv-x="770" 
d="M569 0q-9 0 -16 6l-14 22l-370 645v-673h-55q-12 0 -17 5q-5 7 -5 18v721h119l14 -6l14 -21l364 -646v673h54l16 -5l5 -18v-721h-109zM550 936v-1v-37l-4 -20l-14 -18q-19 -14 -40 -22l-37 -7l-51 10l-37 19l-35 10l-32 -5q-9 -4 -23 -13t-33 -25v38l4 20l14 18
q19 14 40 22l37 7l51 -11l38 -19q16 -10 35 -10l20 2q8 1 26 11l41 30v1z" />
    <glyph glyph-name="Ograve" unicode="&#xd2;" horiz-adv-x="749" 
d="M374 56q82 -1 133 28t73 99q11 35 17 81.5t5 106.5q1 114 -23 186q-23 69 -74 101t-131 30q-77 1 -128 -28q-50 -29 -75 -99q-24 -69 -24 -190q0 -116 25 -185q25 -68 75 -100q51 -31 127 -30zM375 -17q-160 0 -237 95q-77 97 -76 292q-1 197 76 293q77 95 237 95
q161 0 238 -95q75 -95 74 -293q1 -195 -74 -292q-77 -95 -238 -95zM457 824v-1h-63l-23 4q-13 5 -25 15l-137 98h91l22 -2l23 -16l112 -99v1z" />
    <glyph glyph-name="Oacute" unicode="&#xd3;" horiz-adv-x="749" 
d="M374 56q82 -1 133 28t73 99q11 35 17 81.5t5 106.5q1 114 -23 186q-23 69 -74 101t-131 30q-77 1 -128 -28q-50 -29 -75 -99q-24 -69 -24 -190q0 -116 25 -185q25 -68 75 -100q51 -31 127 -30zM375 -17q-160 0 -237 95q-77 97 -76 292q-1 197 76 293q77 95 237 95
q161 0 238 -95q75 -95 74 -293q1 -195 -74 -292q-77 -95 -238 -95zM539 941v-1l-137 -98q-14 -10 -26 -15l-22 -4h-63l112 99l23 16l21 2h92v1z" />
    <glyph glyph-name="Ocircumflex" unicode="&#xd4;" horiz-adv-x="749" 
d="M374 56q82 -1 133 28t73 99q11 35 17 81.5t5 106.5q1 114 -23 186q-23 69 -74 101t-131 30q-77 1 -128 -28q-50 -29 -75 -99q-24 -69 -24 -190q0 -116 25 -185q25 -68 75 -100q51 -31 127 -30zM375 -17q-160 0 -237 95q-77 97 -76 292q-1 197 76 293q77 95 237 95
q161 0 238 -95q75 -95 74 -293q1 -195 -74 -292q-77 -95 -238 -95zM555 824v-1h-69l-23 4l-26 15l-61 45l-62 -45q-14 -10 -26 -15l-23 -4h-61l138 117h53l21 -3l24 -16l115 -98v1z" />
    <glyph glyph-name="Otilde" unicode="&#xd5;" horiz-adv-x="749" 
d="M374 56q82 -1 133 28t73 99q11 35 17 81.5t5 106.5q1 114 -23 186q-23 69 -74 101t-131 30q-77 1 -128 -28q-50 -29 -75 -99q-24 -69 -24 -190q0 -116 25 -185q25 -68 75 -100q51 -31 127 -30zM375 -17q-160 0 -237 95q-77 97 -76 292q-1 197 76 293q77 95 237 95
q161 0 238 -95q75 -95 74 -293q1 -195 -74 -292q-77 -95 -238 -95zM528 936v-1v-37l-4 -20l-15 -18q-18 -14 -39 -22l-38 -7l-51 10l-37 19q-16 10 -35 10l-31 -5q-10 -4 -24 -13t-33 -25v38l4 20l15 18q18 14 39 22l38 7l51 -11l38 -19q16 -10 35 -10l19 2q8 1 26 11l42 30
v1z" />
    <glyph glyph-name="Odieresis" unicode="&#xd6;" horiz-adv-x="749" 
d="M374 56q82 -1 133 28t73 99q11 35 17 81.5t5 106.5q1 114 -23 186q-23 69 -74 101t-131 30q-77 1 -128 -28q-50 -29 -75 -99q-24 -69 -24 -190q0 -116 25 -185q25 -68 75 -100q51 -31 127 -30zM375 -17q-160 0 -237 95q-77 97 -76 292q-1 197 76 293q77 95 237 95
q161 0 238 -95q75 -95 74 -293q1 -195 -74 -292q-77 -95 -238 -95zM233 838v95h99v-95h-99zM515 839v-1h-99v95h99v-95v1z" />
    <glyph glyph-name="multiply" unicode="&#xd7;" horiz-adv-x="430" 
d="M332 111v-1v0l-120 118l-111 -115l-46 46l114 116l-118 120l48 47l119 -118l112 115l46 -46l-115 -116l118 -120l-47 -47v1z" />
    <glyph glyph-name="Oslash" unicode="&#xd8;" horiz-adv-x="749" 
d="M375 -17q-160 0 -237 95q-77 97 -76 292q-1 197 76 293q77 95 237 95q162 0 237 -95q77 -95 75 -293q1 -196 -75 -292q-75 -95 -237 -95zM534 634q-28 27 -68 41l-92 13q-76 1 -129 -28q-50 -29 -75 -99q-25 -68 -25 -190q0 -74 11 -132q10 -56 33 -93zM566 590v-1
l-343 -485q28 -25 66 -37q39 -11 85 -11q82 -1 133 28q52 29 74 99q24 70 23 188q0 73 -9 126t-29 92v1z" />
    <glyph glyph-name="Ugrave" unicode="&#xd9;" horiz-adv-x="740" 
d="M609 0l-21 2l-13 10l-10 13l-16 6l-10 -3l-14 -6q-26 -13 -75 -23l-118 -12q-99 2 -153 35q-55 34 -76 98q-22 64 -21 155l1 63v95l1 107l1 101v74v29h58l16 -5l5 -18v-28l-1 -71v-94l-1 -98l-1 -83v-47q-1 -85 15 -139q15 -52 59 -78q45 -26 130 -25l79 7l60 16l36 15
q21 8 25 18l4 34v596h58l17 -5l5 -18v-721h-40zM450 824v-1h-62l-24 4l-25 14l-137 99h91l22 -2l23 -16l112 -99v1z" />
    <glyph glyph-name="Uacute" unicode="&#xda;" horiz-adv-x="740" 
d="M609 0l-21 2l-13 10l-10 13l-16 6l-10 -3l-14 -6q-26 -13 -75 -23l-118 -12q-99 2 -153 35q-55 34 -76 98q-22 64 -21 155l1 63v95l1 107l1 101v74v29h58l16 -5l5 -18v-28l-1 -71v-94l-1 -98l-1 -83v-47q-1 -85 15 -139q15 -52 59 -78q45 -26 130 -25l79 7l60 16l36 15
q21 8 25 18l4 34v596h58l17 -5l5 -18v-721h-40zM529 941v-1l-137 -99q-8 -5 -14.5 -8.5t-11.5 -5.5l-23 -4h-62l112 99q12 12 23 16l21 2h92v1z" />
    <glyph glyph-name="Ucircumflex" unicode="&#xdb;" horiz-adv-x="740" 
d="M609 0l-21 2l-13 10l-10 13l-16 6l-10 -3l-14 -6q-26 -13 -75 -23l-118 -12q-99 2 -153 35q-55 34 -76 98q-22 64 -21 155l1 63v95l1 107l1 101v74v29h58l16 -5l5 -18v-28l-1 -71v-94l-1 -98l-1 -83v-47q-1 -85 15 -139q15 -52 59 -78q45 -26 130 -25l79 7l60 16l36 15
q21 8 25 18l4 34v596h58l17 -5l5 -18v-721h-40zM546 824v-1h-69l-23 4l-26 14l-61 45l-62 -45l-26 -14l-23 -4h-61l138 117h54l20 -3l24 -16l115 -98v1z" />
    <glyph glyph-name="Udieresis" unicode="&#xdc;" horiz-adv-x="740" 
d="M609 0l-21 2l-13 10l-10 13l-16 6l-11 -3l-13 -6q-26 -13 -75 -23l-118 -12q-99 2 -153 35q-55 34 -76 98q-22 64 -21 155l1 63v95l1 107l1 101v74v29h58l16 -5l5 -18v-28l-1 -71v-94l-1 -98l-1 -83v-47q-1 -85 15 -139q15 -52 59 -78q45 -26 130 -25l79 7l60 16l36 15
q21 8 25 18l4 34v596h58l17 -5l5 -18v-721h-40zM229 837v96h99v-96h-99zM511 838v-1h-99v96h99v-96v1z" />
    <glyph glyph-name="Yacute" unicode="&#xdd;" horiz-adv-x="583" 
d="M273 0q-12 0 -17 5q-5 7 -5 18v201l-251 520h71l16 -4l10 -17l195 -418l193 418l10 17l15 4h73l-252 -520v-224h-58zM449 941v-1l-137 -99l-25 -14l-23 -4h-63l112 99q12 12 23 16l21 2h92v1z" />
    <glyph glyph-name="Thorn" unicode="&#xde;" horiz-adv-x="635" 
d="M114 0q-12 0 -17 5q-5 7 -5 18v721h59l16 -5l5 -18v-107l61 2l68 1q106 1 170 -21q62 -21 91 -72q29 -50 27 -136q1 -91 -26 -144q-29 -55 -91 -77q-64 -23 -171 -23h-129v-144h-58zM172 210v-1h142q73 -1 116 15q42 15 60 53q18 39 17 104q1 65 -17 104q-18 37 -60 54
q-44 15 -116 15l-102 -2l-40 -1v-342v1z" />
    <glyph glyph-name="germandbls" unicode="&#xdf;" horiz-adv-x="625" 
d="M237 10v-1l8 56l17 -2l37 -4l36 -3q61 0 92 14q29 14 38 45q8 34 8 87q-2 43 -10 73q-9 32 -22 49q-15 19 -30 24l-44 5h-88v66h98q27 0 37 7l19 19l21 48q7 24 7 58q1 65 -32 102q-35 35 -109 35q-54 0 -83 -13t-43 -36t-17 -52q-3 -30 -3 -63v-524h-54q-12 0 -17 5
q-5 7 -5 18v445h-76v59h76v13q0 22 2 42t6 40q8 39 30 67q23 29 67 46q23 8 52 12t66 5q79 -2 125 -24q47 -25 68 -67q21 -44 21 -103q0 -54 -15 -88q-15 -35 -51 -57l-12 -10l-4 -12q2 -11 14 -15l34 -21q18 -12 35 -48q8 -17 12 -43t5 -60q2 -69 -15 -116q-16 -46 -63 -70
t-136 -24l-48 4l-38 7l-16 4v1z" />
    <glyph glyph-name="agrave" unicode="&#xe0;" 
d="M293 606l-23 4q-5 2 -11.5 5.5t-13.5 8.5l-137 99h91l21 -2l24 -16l112 -99h-63zM465 0l-23 2q-7 3 -11 10l-9 14l-10 5l-11 -2l-12 -7q-23 -14 -58 -25l-71 -10q-59 0 -108 29q-48 29 -77 89q-14 31 -21 70t-8 87q2 97 31 157q32 63 79 91q49 30 104 30l71 -10l58 -25
l12 -7l11 -3q5 1 10 6l9 14q4 7 11 10l23 2h29v-39v-98v-126v-127v-98v-39h-29zM418 119v-1v291l-1 12l-10 10l-23 16l-40 17l-55 8q-43 1 -82 -19q-35 -19 -58 -66q-20 -45 -22 -124q0 -103 40 -155q39 -53 118 -53l59 8l41 17l22 16l9 10l2 12v1z" />
    <glyph glyph-name="aacute" unicode="&#xe1;" 
d="M306 624l-25 -14l-23 -4h-62l111 99q14 13 24 16l20 2h93zM465 0l-23 2q-7 3 -11 10l-9 14l-10 5l-11 -2l-12 -7q-23 -14 -58 -25l-71 -10q-59 0 -108 29q-48 29 -77 89q-14 31 -21 70t-8 87q2 97 31 157q32 63 79 91q49 30 104 30l71 -10l58 -25l12 -7l11 -3q5 1 10 6
l9 14q4 7 11 10l23 2h29v-39v-98v-126v-127v-98v-39h-29zM418 119v-1v291l-1 12l-10 10l-23 16l-40 17l-55 8q-43 1 -82 -19q-35 -19 -58 -66q-20 -45 -22 -124q0 -103 40 -155q39 -53 118 -53l59 8l41 17l22 16l9 10l2 12v1z" />
    <glyph glyph-name="acircumflex" unicode="&#xe2;" 
d="M391 606l-23 4q-5 2 -11 5.5l-14 8.5l-61 45l-63 -45l-25 -14l-23 -4h-61l138 117h53l21 -3l23 -16l116 -98h-70zM465 0l-23 2q-7 3 -11 10l-9 14l-10 5l-11 -2l-12 -7q-23 -14 -58 -25l-71 -10q-59 0 -108 29q-48 29 -77 89q-14 31 -21 70t-8 87q2 97 31 157
q32 63 79 91q49 30 104 30l71 -10l58 -25l12 -7l11 -3q5 1 10 6l9 14q4 7 11 10l23 2h29v-39v-98v-126v-127v-98v-39h-29zM418 119v-1v291l-1 12l-10 10l-23 16l-40 17l-55 8q-43 1 -82 -19q-35 -19 -58 -66q-20 -45 -22 -124q0 -103 40 -155q39 -53 118 -53l59 8l41 17
l22 16l9 10l2 12v1z" />
    <glyph glyph-name="atilde" unicode="&#xe3;" 
d="M430 681l-4 -20l-14 -18q-18 -14 -39 -22l-38 -7q-31 2 -51 10l-37 19l-35 10l-32 -5q-9 -4 -23 -13t-33 -25v38l4 20l15 18q17 14 39 22l37 7l52 -11l37 -19q16 -10 35 -10l20 2l26 11l41 30v-37zM465 0l-23 2q-7 3 -11 10l-9 14l-10 5l-11 -2l-12 -7q-23 -14 -58 -25
l-71 -10q-59 0 -108 29q-48 29 -77 89q-14 31 -21 70t-8 87q2 97 31 157q32 63 79 91q49 30 104 30l71 -10l58 -25l12 -7l11 -3q5 1 10 6l9 14q4 7 11 10l23 2h29v-39v-98v-126v-127v-98v-39h-29zM418 119v-1v291l-1 12l-10 10l-23 16l-40 17l-55 8q-43 1 -82 -19
q-35 -19 -58 -66q-20 -45 -22 -124q0 -103 40 -155q39 -53 118 -53l59 8l41 17l22 16l9 10l2 12v1z" />
    <glyph glyph-name="adieresis" unicode="&#xe4;" 
d="M136 620v96h100v-96h-100zM320 620v96h99v-96h-99zM465 0l-22 2l-12 10l-9 14l-10 5l-10 -2l-13 -7q-23 -14 -58 -25l-71 -10q-59 0 -108 29q-48 29 -77 89q-14 31 -21 70t-8 87q2 97 31 157q32 63 79 91q49 30 104 30l71 -10l58 -25l13 -7q4 -3 10 -3q7 1 10 6l9 14
l12 10l22 2h29v-39v-98v-126v-127v-98v-39h-29zM418 119v-1v291l-1 12l-10 10l-23 16l-40 17l-55 8q-43 1 -82 -19q-35 -19 -58 -66q-20 -45 -22 -124q0 -103 40 -155q39 -53 118 -53l60 8l40 17l22 16l9 10l2 12v1z" />
    <glyph glyph-name="aring" unicode="&#xe5;" 
d="M465 0l-22 2l-12 10l-9 14l-10 5l-11 -2l-12 -7q-23 -14 -58 -25l-71 -10q-59 0 -108 29q-48 29 -77 89q-14 31 -21 70t-8 87q2 97 31 157q32 63 79 91q49 30 104 30l71 -10l58 -25l12 -7l11 -3q5 1 10 6l9 14l12 10l22 2h29v-39v-98v-126v-127v-98v-39h-29zM447 681
q-2 -55 -37 -83q-36 -29 -99 -30q-64 1 -100 30q-35 28 -37 83q1 55 36 84t101 29q65 0 100 -29q34 -29 36 -84zM381 681q0 34 -20 51q-19 16 -50 16q-32 0 -51 -16q-20 -17 -20 -51q1 -35 21 -51q22 -17 50 -17q27 0 49 17q19 16 21 51zM418 119v-1v291l-1 12l-10 10
l-23 16l-40 17l-55 8q-43 1 -82 -19q-35 -19 -58 -66q-20 -45 -22 -124q0 -103 40 -155q39 -53 118 -53l60 8l40 17l22 16l9 10l2 12v1z" />
    <glyph glyph-name="ae" unicode="&#xe6;" horiz-adv-x="828" 
d="M762 13l-23 -7l-57 -12l-70 -7l-91 12q-36 11 -54 22l-22 16l-9 9l-9 4l-8 -2l-10 -8l-32 -23q-18 -11 -49 -21l-70 -9q-60 0 -107 29q-47 28 -76 89q-14 31 -21 70t-8 87q1 48 8.5 87t23.5 70q30 62 80 91q49 30 109 30l73 -9q14 -4 25.5 -9t20.5 -10l27 -20l12 -10
q4 -4 10 -4q5 0 12 5l14 11l24 16l45 20l62 10q68 -2 110 -23q42 -22 65 -60q21 -39 21 -91q-2 -61 -29 -96q-27 -36 -77 -51t-116 -15l-74 7l-31 8q2 -72 25 -109q26 -36 64 -48l84 -11l63 5l55 11zM385 402l-1 17l-8 16q-18 19 -45 30l-55 11q-44 1 -78 -20t-52 -69
q-19 -45 -19 -124q-2 -102 33 -155q33 -53 111 -53l57 9q24 7 45 20l30 21l-3 8l-3 11l-8 43l-4 85v150zM706 365v-1q1 47 -25 80q-25 30 -90 32l-62 -9l-38 -17l-12 -10l-15 -17q-3 -8 -3 -20v-125l26 -8l82 -8q54 0 84 12t42 35q11 24 11 55v1z" />
    <glyph glyph-name="ccedilla" unicode="&#xe7;" horiz-adv-x="460" 
d="M423 12v-1l-20 -6l-53 -12l-70 -6l-5 -46q23 -2 42 -13q19 -13 20 -44q0 -31 -16 -47q-14 -15 -37 -23l-45 -6l-35 3q-20 3 -33 10l7 24q1 7 7 13l16 3l15 -2l21 -2l33 5q10 6 10 19q-2 14 -20 18l-43 4l14 87q-86 12 -135 78q-48 66 -50 194q2 100 32 160q31 61 86 90
q55 28 124 28l82 -8l54 -15l-20 -48l-9 -16q-3 -7 -8 -5q-6 0 -11 4l-22 12l-27 8l-36 4q-51 1 -88 -20q-36 -20 -56 -68t-20 -125q-1 -99 40 -156q40 -54 133 -56l51 3l44 7l18 4l10 -54v1z" />
    <glyph glyph-name="egrave" unicode="&#xe8;" horiz-adv-x="523" 
d="M457 13l-25 -7l-59 -12l-71 -7q-130 1 -193 72q-63 70 -63 205q2 132 59 203t168 73q32 -1 60 -6.5t51 -16.5q48 -23 73 -61q24 -36 26 -90q0 -37 -12 -65q-12 -29 -33 -48q-33 -27 -77 -38l-105 -11l-91 7l-36 8q6 -65 30 -103q26 -36 67 -51q42 -15 99 -14l50 4l50 8
l22 4zM176 266l73 -4l88 10q32 11 47 32l13 27l4 33q0 34 -13 59q-14 26 -42 41q-28 16 -74 16q-44 0 -72 -19q-27 -19 -44 -49q-8 -16 -13.5 -32.5t-9.5 -33.5q-6 -35 -6 -68zM352 607v-1h-63l-23 4q-13 5 -25 15l-137 98h91l21 -2l24 -16l112 -99v1z" />
    <glyph glyph-name="eacute" unicode="&#xe9;" horiz-adv-x="523" 
d="M457 13l-25 -7l-59 -12l-71 -7q-130 1 -193 72q-63 70 -63 205q2 132 59 203t168 73q32 -1 60 -6.5t51 -16.5q48 -23 73 -61q24 -36 26 -90q0 -37 -12 -65q-12 -29 -33 -48q-33 -27 -77 -38l-105 -11l-91 7l-36 8q6 -65 30 -103q26 -36 67 -51q42 -15 99 -14l50 4l50 8
l22 4zM176 266l73 -4l88 10q32 11 47 32l13 27l4 33q0 34 -13 59q-14 26 -42 41q-28 16 -74 16q-44 0 -72 -19q-27 -19 -44 -49q-8 -16 -13.5 -32.5t-9.5 -33.5q-6 -35 -6 -68zM449 724v-1l-137 -98q-14 -10 -26 -15l-23 -4h-62l112 99q12 12 23 16l21 2h92v1z" />
    <glyph glyph-name="ecircumflex" unicode="&#xea;" horiz-adv-x="523" 
d="M457 13l-25 -7l-59 -12l-71 -7q-130 1 -193 72q-63 70 -63 205q2 132 59 203t168 73q32 -1 60 -6.5t51 -16.5q48 -23 73 -61q24 -36 26 -90q0 -37 -12 -65q-12 -29 -33 -48q-33 -27 -77 -38l-105 -11l-91 7l-36 8q6 -65 30 -103q26 -36 67 -51q42 -15 99 -14l50 4l50 8
l22 4zM176 266l73 -4l88 10q32 11 47 32l13 27l4 33q0 34 -13 59q-14 26 -42 41q-28 16 -74 16q-44 0 -72 -19q-27 -19 -44 -49q-8 -16 -13.5 -32.5t-9.5 -33.5q-6 -35 -6 -68zM454 607v-1h-70l-23 4l-25 15l-61 45l-63 -45q-12 -10 -25 -15l-23 -4h-61l138 117h53l21 -3
l23 -16l116 -98v1z" />
    <glyph glyph-name="edieresis" unicode="&#xeb;" horiz-adv-x="523" 
d="M457 13l-25 -7l-59 -12l-71 -7q-130 1 -193 72q-63 70 -63 205q2 132 59 203t168 73q32 -1 60 -6.5t51 -16.5q48 -23 73 -61q24 -36 26 -90q0 -37 -12 -65q-12 -29 -33 -48q-33 -27 -77 -38l-105 -11l-91 7l-36 8q6 -65 30 -103q26 -36 67 -51q42 -15 99 -14l50 4l50 8
l22 4zM176 266l73 -4l88 10q32 11 47 32l13 27l4 33q0 34 -13 59q-14 26 -42 41q-28 16 -74 16q-44 0 -72 -19q-27 -19 -44 -49q-8 -16 -13.5 -32.5t-9.5 -33.5q-6 -35 -6 -68zM133 621v95h100v-95h-100zM416 622v-1h-99v95h99v-95v1z" />
    <glyph glyph-name="igrave" unicode="&#xec;" horiz-adv-x="225" 
d="M96 0q-11 0 -16 5q-5 7 -5 18v504h54l17 -5l5 -18v-504h-55zM158 607v-1h-63l-23 4q-5 2 -11.5 5.5t-13.5 8.5l-137 99h91l21 -2l24 -16l112 -99v1z" />
    <glyph glyph-name="iacute" unicode="&#xed;" horiz-adv-x="225" 
d="M96 0q-11 0 -16 5q-5 7 -5 18v504h54l17 -5l5 -18v-504h-55zM310 724v-1l-137 -99l-25 -14l-23 -4h-62l111 99l24 16l20 2h92v1z" />
    <glyph glyph-name="icircumflex" unicode="&#xee;" horiz-adv-x="225" 
d="M96 0q-11 0 -16 5q-5 7 -5 18v504h54l17 -5l5 -18v-504h-55zM291 607v-1h-70l-23 4q-5 2 -11.5 5.5t-13.5 8.5l-61 45l-63 -45l-25 -14l-23 -4h-61l138 117h53l21 -3l23 -16l116 -98v1z" />
    <glyph glyph-name="idieresis" unicode="&#xef;" horiz-adv-x="225" 
d="M96 0q-11 0 -16 5q-5 7 -5 18v504h54l17 -5l5 -18v-504h-55zM-29 620v96h100v-96h-100zM254 621v-1h-99v96h99v-96v1z" />
    <glyph glyph-name="eth" unicode="&#xf0;" horiz-adv-x="574" 
d="M328 685l67 -83l65 -102q15 -28 27 -57t22 -58q10 -30 14.5 -60t5.5 -61q0 -133 -59 -204q-60 -72 -181 -73q-123 2 -183 73q-60 70 -60 204q0 87 28 147q29 62 82 96q53 32 133 34l57 -9l25 -10l-38 62l-53 64l-69 -53l-34 43l65 50l-27 28l-12 12l49 37l39 -39l62 48
l33 -43zM289 51v-1q84 -1 124 52q38 53 38 162q0 53 -11 95q-10 40 -31 68q-18 24 -50 38q-30 13 -70 13q-82 0 -122 -54q-41 -55 -41 -160q0 -37 6 -74q8 -39 25 -69q16 -31 49 -51q32 -20 83 -20v1z" />
    <glyph glyph-name="ntilde" unicode="&#xf1;" horiz-adv-x="563" 
d="M445 681l-4 -20l-15 -18l-39 -22l-37 -7q-33 2 -51 10l-38 19l-34 10l-32 -5q-10 -4 -24 -13t-33 -25v38l4 20l15 18q18 14 39 22l38 7l51 -11l38 -19q16 -10 35 -10l19 2q10 1 26 11l42 30v-37zM497 1v-1h-54q-12 0 -17 5q-5 7 -5 18v320q2 69 -28 100q-29 31 -103 29
l-63 -8l-44 -17l-24 -16l-10 -10q-2 -6 -1 -12v-409h-55q-11 0 -16 5q-5 7 -5 18v504h29l22 -2l11 -10l10 -14q3 -5 10 -5l10 2l12 7q25 15 59 25l71 10q96 0 143 -43q48 -44 48 -133v-364v1z" />
    <glyph glyph-name="ograve" unicode="&#xf2;" horiz-adv-x="580" 
d="M533 264q-1 -135 -63 -206q-61 -69 -180 -71q-119 2 -180 71q-62 71 -63 206q2 136 63 206q61 69 180 71q119 -2 180 -71q62 -71 63 -206zM452 264q0 107 -40 160q-41 54 -122 54q-82 0 -122 -54q-40 -53 -40 -160t40 -160q40 -54 122 -54q81 0 122 54q40 53 40 160z
M369 607v-1h-63l-23 4l-25 15l-137 98h91l22 -2l23 -16l112 -99v1z" />
    <glyph glyph-name="oacute" unicode="&#xf3;" horiz-adv-x="580" 
d="M533 264q-1 -135 -63 -206q-61 -69 -180 -71q-119 2 -180 71q-62 71 -63 206q2 136 63 206q61 69 180 71q119 -2 180 -71q62 -71 63 -206zM452 264q0 107 -40 160q-41 54 -122 54q-82 0 -122 -54q-40 -53 -40 -160t40 -160q40 -54 122 -54q81 0 122 54q40 53 40 160z
M455 724v-1l-137 -98q-14 -10 -26 -15l-22 -4h-63l112 99l23 16l21 2h92v1z" />
    <glyph glyph-name="ocircumflex" unicode="&#xf4;" horiz-adv-x="580" 
d="M533 264q-1 -135 -63 -206q-61 -69 -180 -71q-119 2 -180 71q-62 71 -63 206q2 136 63 206q61 69 180 71q119 -2 180 -71q62 -71 63 -206zM452 264q0 107 -40 160q-41 54 -122 54q-82 0 -122 -54q-40 -53 -40 -160t40 -160q40 -54 122 -54q81 0 122 54q40 53 40 160z
M465 607v-1h-70l-22 4l-26 15l-61 45l-63 -45l-25 -15l-23 -4h-61l138 117h53l21 -3l23 -16l116 -98v1z" />
    <glyph glyph-name="otilde" unicode="&#xf5;" horiz-adv-x="580" 
d="M533 264q-1 -135 -63 -206q-61 -69 -180 -71q-119 2 -180 71q-62 71 -63 206q2 136 63 206q61 69 180 71q119 -2 180 -71q62 -71 63 -206zM452 264q0 107 -40 160q-41 54 -122 54q-82 0 -122 -54q-40 -53 -40 -160t40 -160q40 -54 122 -54q81 0 122 54q40 53 40 160z
M443 719v-1v-37l-4 -20l-15 -18q-18 -14 -39 -22l-38 -7l-51 10l-37 19l-35 10l-31 -5q-10 -4 -24 -13t-33 -25v38l4 20l15 18q18 14 39 22l38 7l51 -11l38 -19q16 -10 35 -10l19 2q8 1 26 11l42 30v1z" />
    <glyph glyph-name="odieresis" unicode="&#xf6;" horiz-adv-x="580" 
d="M533 264q-1 -135 -63 -206q-61 -69 -180 -71q-119 2 -180 71q-62 71 -63 206q2 136 63 206q61 69 180 71q119 -2 180 -71q62 -71 63 -206zM452 264q0 107 -40 160q-41 54 -122 54q-82 0 -122 -54q-40 -53 -40 -160t40 -160q40 -54 122 -54q81 0 122 54q40 53 40 160z
M149 621v95h99v-95h-99zM431 622v-1h-99v95h99v-95v1z" />
    <glyph glyph-name="divide" unicode="&#xf7;" horiz-adv-x="471" 
d="M46 242v68h379v-68h-379zM181 63v91h105v-91h-105zM286 400v-1v0h-105v91h105v-91v1z" />
    <glyph glyph-name="oslash" unicode="&#xf8;" horiz-adv-x="581" 
d="M534 264q-1 -135 -63 -206q-61 -69 -180 -71q-120 2 -181 71q-62 71 -63 206q2 136 63 206q61 69 181 71q119 -2 180 -71q62 -71 63 -206zM393 444q-21 18 -44 26l-58 8q-82 0 -122 -54q-41 -55 -41 -160q0 -38 6 -75q8 -40 25 -71zM423 408v-1l-232 -325q18 -15 43 -24
l57 -8q84 -1 124 52q38 53 38 162q0 43 -8 80t-22 63v1z" />
    <glyph glyph-name="ugrave" unicode="&#xf9;" horiz-adv-x="557" 
d="M295 606l-23 4l-25 14l-137 99h91l21 -2l24 -16l112 -99h-63zM486 1v-1h-29l-23 2q-7 3 -11 10l-9 14l-10 5l-11 -2l-12 -7q-22 -14 -57 -25l-69 -10q-94 0 -141 43q-47 44 -47 133v364h54l17 -5l5 -18v-320q-1 -69 27 -100q29 -30 101 -29l61 8l43 17l24 16l9 11l2 12
v408h54l17 -5l5 -18v-504v1z" />
    <glyph glyph-name="uacute" unicode="&#xfa;" horiz-adv-x="557" 
d="M291 624l-25 -14l-23 -4h-62l111 99q13 13 24 16l20 2h92zM486 1v-1h-29l-23 2q-7 3 -11 10l-9 14l-10 5l-11 -2l-12 -7q-22 -14 -57 -25l-69 -10q-94 0 -141 43q-47 44 -47 133v364h54l17 -5l5 -18v-320q-1 -69 27 -100q29 -30 101 -29l61 8l43 17l24 16l9 11l2 12v408
h54l17 -5l5 -18v-504v1z" />
    <glyph glyph-name="ucircumflex" unicode="&#xfb;" horiz-adv-x="557" 
d="M384 606l-23 4q-5 2 -11.5 5.5t-13.5 8.5l-61 45l-63 -45l-25 -14l-23 -4h-61l138 117h53l21 -3l23 -16l116 -98h-70zM486 1v-1h-29l-23 2q-7 3 -11 10l-9 14l-10 5l-11 -2l-12 -7q-22 -14 -57 -25l-69 -10q-94 0 -141 43q-47 44 -47 133v364h54l17 -5l5 -18v-320
q-1 -69 27 -100q29 -30 101 -29l61 8l43 17l24 16l9 11l2 12v408h54l17 -5l5 -18v-504v1z" />
    <glyph glyph-name="udieresis" unicode="&#xfc;" horiz-adv-x="557" 
d="M134 620v96h100v-96h-100zM318 620v96h99v-96h-99zM486 1v-1h-29l-23 2q-7 3 -11 10l-9 14l-10 5l-11 -2l-12 -7q-22 -14 -57 -25l-69 -10q-94 0 -141 43q-47 44 -47 133v364h54l17 -5l5 -18v-320q-1 -69 27 -100q29 -30 101 -29l61 8q14 4 24.5 8t18.5 9l24 16l9 11
l2 12v408h54l17 -5l5 -18v-504v1z" />
    <glyph glyph-name="yacute" unicode="&#xfd;" horiz-adv-x="557" 
d="M301 624l-25 -14l-23 -4h-62l111 99l24 16l20 2h93zM410 -40v-1v48l-3 16l-7 5l-7 -1l-10 -5q-26 -14 -58 -24l-73 -11q-93 0 -139 43t-46 133v364h54l17 -5l5 -18v-320q-1 -69 27 -100q29 -30 101 -29l61 8l43 17l24 16l9 10l2 12v409h54l17 -5l5 -18v-504
q-1 -47 -7 -82.5t-19 -60.5q-25 -49 -70 -69q-44 -20 -100 -18l-80 15l-54 33l-31 33l-10 15l44 41l9 -11l24 -24q17 -14 40 -24q25 -11 54 -11l62 11q28 10 45 38q15 24 17 73v1z" />
    <glyph glyph-name="thorn" unicode="&#xfe;" 
d="M93 -183q-12 0 -16 6q-5 7 -5 18v903h54l17 -5l5 -18v-201l2 -16l8 -5l7 1l9 5q24 13 58 24l73 11q59 0 108 -29q48 -28 77 -89q29 -63 29 -157q-2 -97 -31 -157q-31 -63 -79 -91q-48 -30 -104 -30l-73 11q-34 11 -58 24l-9 5l-7 1l-8 -5l-2 -16v-190h-55zM148 411v-1
v-292q-1 -6 1 -12l10 -10l22 -16l40 -17l56 -8q43 -1 81 19q37 19 58 66q22 45 22 124q0 102 -39 155q-41 53 -118 53l-60 -8l-40 -17l-22 -16l-9 -9l-2 -12v1z" />
    <glyph glyph-name="ydieresis" unicode="&#xff;" horiz-adv-x="557" 
d="M133 620v96h100v-96h-100zM317 620v96h99v-96h-99zM410 -40v-1v48l-3 16l-7 5l-7 -1l-10 -5q-26 -14 -58 -24l-73 -11q-93 0 -139 43t-46 133v364h54l17 -5l5 -18v-320q-1 -69 27 -100q29 -30 101 -29l61 8l43 17l24 16l9 10l2 12v409h54l17 -5l5 -18v-504
q-1 -47 -7 -82.5t-19 -60.5q-25 -49 -70 -69q-44 -20 -100 -18l-80 15l-54 33l-31 33l-10 15l44 41l9 -11l24 -24q17 -14 40 -24q25 -11 54 -11l62 11q28 10 45 38q15 24 17 73v1z" />
    <glyph glyph-name="circumflex" unicode="&#x2c6;" horiz-adv-x="396" 
d="M374 607v-1v0h-70l-23 4l-25 14l-61 45l-63 -45l-25 -14l-23 -4h-61l138 117h53l21 -3l23 -16l116 -98v1z" />
    <glyph glyph-name="tilde" unicode="&#x2dc;" horiz-adv-x="353" 
d="M330 719v-1v-37l-4 -20l-14 -18q-19 -14 -40 -22l-37 -7q-33 2 -51 10l-38 19l-34 10l-32 -5l-56 -38v38l4 20l14 18q18 14 39 22l38 7l51 -11l38 -19q16 -10 35 -10l20 2q8 1 26 11l41 30v1z" />
    <glyph glyph-name="endash" unicode="&#x2013;" horiz-adv-x="584" 
d="M512 240v-1v0h-440v73h440v-73v1z" />
    <glyph glyph-name="emdash" unicode="&#x2014;" horiz-adv-x="1024" 
d="M953 240v-1v0h-881v73h881v-73v1z" />
    <glyph glyph-name="quoteleft" unicode="&#x2018;" horiz-adv-x="180" 
d="M146 535v-1h-105v69q2 42 13 69q10 27 27 47l27 27l12 9l30 -32l-13 -13l-24 -35q-11 -23 -12 -49h45v-92v1z" />
    <glyph glyph-name="quoteright" unicode="&#x2019;" horiz-adv-x="180" 
d="M61 525v-1l-30 32l13 13l24 35q11 23 12 49h-45v91h105v-68q-2 -42 -13 -69q-11 -29 -27 -47l-27 -27l-12 -9v1z" />
    <glyph glyph-name="quotesinglbase" unicode="&#x201a;" horiz-adv-x="180" 
d="M61 -128v-1l-30 32l13 13l24 34q11 23 12 50h-45v91h105v-69q-2 -41 -13 -68q-11 -29 -27 -47l-27 -28l-12 -8v1z" />
    <glyph glyph-name="quotedblleft" unicode="&#x201c;" horiz-adv-x="351" 
d="M212 534v69q2 42 13 69q10 27 27 47l27 27l12 9l30 -32l-13 -13l-24 -35q-11 -23 -12 -50h45v-91h-105zM146 535v-1h-105v69q2 42 13 69q10 27 27 47l27 27l12 9l30 -32l-13 -13l-24 -35q-11 -23 -12 -50h45v-91v1z" />
    <glyph glyph-name="quotedblright" unicode="&#x201d;" horiz-adv-x="351" 
d="M31 556l13 13l24 35q11 23 12 49h-45v91h105v-68q-2 -42 -13 -69q-11 -29 -27 -47l-27 -27l-12 -9zM232 525v-1l-30 32l13 13l24 35q11 23 12 49h-45v91h105v-68q-2 -42 -13 -69q-11 -29 -27 -47l-27 -27l-12 -9v1z" />
    <glyph glyph-name="quotedblbase" unicode="&#x201e;" horiz-adv-x="351" 
d="M31 -97l13 13l24 34q11 23 12 50h-45v91h105v-69q-2 -41 -13 -68q-11 -29 -27 -47l-27 -28l-12 -8zM232 -128v-1l-30 32l13 13l24 34q11 23 12 50h-45v91h105v-69q-2 -41 -13 -68l-27 -47l-27 -28l-12 -8v1z" />
    <glyph glyph-name="dagger" unicode="&#x2020;" horiz-adv-x="538" 
d="M302 -182v-1h-44q-12 0 -16 6q-5 7 -5 18v611h-206v66h206v226h44l16 -5l5 -18v-203h205v-66h-205v-635v1z" />
    <glyph glyph-name="daggerdbl" unicode="&#x2021;" horiz-adv-x="538" 
d="M301 -182v-1h-44q-12 0 -16 6q-5 7 -5 18v202h-205v65h206v344h-206v66h206v226h44l16 -5l5 -18v-203h205v-66h-205v-344h205v-65h-206v-226v1z" />
    <glyph glyph-name="bullet" unicode="&#x2022;" horiz-adv-x="399" 
d="M200 271v-1q-25 0 -47 12q-22 10 -36 34q-14 23 -14 57t14 57q14 24 36 34q24 11 47 11t47 -11q22 -10 36 -34q14 -23 14 -57t-14 -57q-14 -24 -36 -34q-23 -12 -47 -12v1z" />
    <glyph glyph-name="ellipsis" unicode="&#x2026;" horiz-adv-x="676" 
d="M61 0v91h104v-91h-104zM286 0v91h104v-91h-104zM616 1v-1v0h-105v91h105v-91v1z" />
    <glyph glyph-name="perthousand" unicode="&#x2030;" horiz-adv-x="1352" 
d="M626 724l14 16l19 4h64l-23 -40l-61 -103l-84 -142l-91 -154l-83 -141l-61 -104l-24 -40l-14 -16l-19 -4h-27h-26h-12zM430 576q0 -61 -23 -102q-22 -40 -64 -60t-94 -20q-53 0 -95 20t-64 60q-24 40 -24 102q0 61 24 102q23 41 64 61q42 20 95 20q52 0 94 -20
q41 -20 64 -61t23 -102zM352 576q0 60 -27 92q-27 30 -76 30q-47 1 -76 -28q-28 -28 -28 -94q0 -62 28 -91q28 -31 76 -31q51 0 77 29q26 31 26 93zM863 171q-2 -62 -24 -102q-23 -42 -63 -61q-42 -20 -95 -20q-52 0 -95 20q-41 20 -64 61q-24 40 -24 102q0 61 24 102
q22 40 64 60q43 20 95 20q53 0 95 -20q40 -20 63 -60q22 -41 24 -102zM785 171q0 61 -27 91q-27 31 -77 31q-47 0 -76 -29q-28 -28 -28 -93q0 -60 29 -92q28 -30 75 -30q51 -2 77 29q27 28 27 93zM1286 171q0 -61 -23 -102t-64 -61q-42 -20 -94 -20q-53 0 -95 20
q-41 20 -64 61q-24 40 -24 102q0 61 24 102q22 40 64 60t95 20q52 0 94 -20t64 -60q23 -41 23 -102zM1208 172v-1q0 61 -27 91q-27 31 -76 31q-47 0 -76 -29q-28 -28 -28 -93q0 -61 28 -92q28 -30 76 -30q51 -2 77 29q26 29 26 93v1z" />
    <glyph glyph-name="guilsinglleft" unicode="&#x2039;" horiz-adv-x="338" 
d="M287 154v-1v0h-66l-19 5l-17 16l-144 198l144 195l17 16l18 5h61l-160 -213l166 -222v1z" />
    <glyph glyph-name="guilsinglright" unicode="&#x203a;" horiz-adv-x="338" 
d="M108 154v-1v0h-61l160 213l-166 222h66l19 -5l18 -16l143 -198l-143 -195l-18 -16l-18 -5v1z" />
    <glyph glyph-name="fraction" unicode="&#x2044;" horiz-adv-x="482" 
d="M24 -32v-1v0h-54l456 772l14 17l17 5h56l-458 -773l-14 -17l-17 -4v1z" />
    <glyph glyph-name="Euro" unicode="&#x20ac;" horiz-adv-x="609" 
d="M572 78v-1l11 -60l-90 -20l-105 -10q-91 0 -148 28q-59 29 -92 92q-32 64 -41 166h-66v69h62v33v24l1 23h-63v68h69q21 141 92 206q72 65 181 64l101 -10l72 -19l28 -10l-23 -69l-6 -8q-3 -3 -8 -3l-7 2q-2 1 -5 2t-5 3q-25 17 -61 28l-83 11q-47 2 -86 -18
q-39 -18 -67 -61q-27 -44 -39 -118h266v-68h-273l-1 -23v-24v-33h274v-69h-270q4 -41 11.5 -73t20.5 -55q25 -48 69 -67q23 -10 51.5 -15t63.5 -4l87 6l79 12v1z" />
    <glyph glyph-name="trademark" unicode="&#x2122;" horiz-adv-x="843" 
d="M180 390l-14 4l-4 15v285h-121v50h296v-50h-121v-304h-36zM781 391v-1h-35l-15 4q-4 3 -5 14l-32 282l-94 -296h-43l-13 5q-5 5 -8 16l-87 274l-30 -281l-5 -14l-14 -4h-35l44 354h59l12 -3l8 -13l85 -279l90 295h58l14 -4l5 -14l41 -336v1z" />
    <glyph glyph-name="Omega" unicode="&#x2126;" horiz-adv-x="723" 
d="M659 1v-1h-237v68q32 27 65 80t56 124q22 72 24 155q1 81 -19 139t-64 86q-46 29 -120 29q-103 0 -155 -61t-52 -194q1 -41 6.5 -79t16.5 -73q22 -70 56 -125q33 -53 66 -81v-68h-238v68h152q-65 67 -103 156q-36 88 -36 215q0 92 33 163q31 70 96 109q64 39 158 39
q101 0 164 -39q64 -40 92 -109q29 -71 28 -161q0 -116 -38 -212q-38 -95 -105 -161h154v-68v1z" />
    <glyph glyph-name="estimated" unicode="&#x212e;" horiz-adv-x="727" 
d="M181 327v-226q38 -36 82 -54q44 -19 98 -19q90 1 147 42q57 40 97 107l20 -12l19 -12q-31 -48 -71 -87q-38 -37 -91 -58q-51 -20 -121 -21q-100 2 -169 47q-72 46 -111 123q-38 75 -40 171q2 97 39 173q39 76 111 123q73 45 173 46q103 -2 172 -47q73 -47 110 -123
q38 -75 40 -173h-505zM544 369v-1v188q-35 32 -82 53q-48 20 -99 20q-54 0 -100 -18t-82 -54v-189h363v1z" />
    </font>
</defs>
</svg>
