<?xml version="1.0" standalone="no"?>
<!DOCTYPE svg PUBLIC "-//W3C//DTD SVG 1.1//EN" "http://www.w3.org/Graphics/SVG/1.1/DTD/svg11.dtd" >
<svg>
<metadata>
Created by FontForge 20090622 at Wed Dec 28 16:23:16 2016
 By deploy user
The Carlsberg font family was designed by Kontrapunkt A/S in 2006, 2008, 2014 and the copyright belongs to Carlsberg A/S. All rights reserved.
</metadata>
<defs>
<font id="Carlsberg-Bold" horiz-adv-x="600" >
  <font-face 
    font-family="Carlsberg"
    font-weight="700"
    font-stretch="normal"
    units-per-em="1000"
    panose-1="2 6 8 3 4 5 2 2 2 4"
    ascent="777"
    descent="-223"
    x-height="515"
    cap-height="727"
    bbox="-69 -223 1417 977"
    underline-thickness="118"
    underline-position="-35"
    unicode-range="U+000D-U+FB04"
  />
<missing-glyph horiz-adv-x="582" 
d="M291 474q12 0 20.5 8.5t8.5 20.5v55q0 18 10.5 29.5t26.5 11.5q12 0 33.5 -14t47.5 -14q12 0 27 5t27 5q25 0 40.5 -17.5t15.5 -38.5t-13.5 -35.5t-27 -32.5t-13.5 -47q0 -2 0.5 -9t0.5 -11q0 -16 -12 -26.5t-27 -10.5q-12 0 -20 5l-46 27q-10 6 -19 6q-12 0 -19.5 -9
t-7.5 -20q0 -16 16 -25l46 -27q22 -13 22 -34q0 -16 -11 -27q-5 -5 -20.5 -12.5t-24.5 -16.5q-16 -16 -23 -44t-19 -40q-15 -15 -39 -15t-39 15q-12 12 -19 40t-23 44q-9 9 -24.5 16.5t-20.5 12.5q-11 11 -11 27q0 21 22 34l46 27q16 9 16 25q0 11 -7.5 20t-19.5 9
q-9 0 -19 -6l-46 -27q-8 -5 -20 -5q-15 0 -27 10.5t-12 26.5q0 4 0.5 11t0.5 9q0 29 -13.5 47t-27 32.5t-13.5 35.5t15.5 38.5t40.5 17.5q12 0 27 -5t27 -5q26 0 47.5 14t33.5 14q16 0 26.5 -11.5t10.5 -29.5v-55q0 -12 8.5 -20.5t20.5 -8.5z" />
    <glyph glyph-name="ff" unicode="ff" horiz-adv-x="690" 
d="M636 0h-221v403h-175v-302l56 -9v-92h-221v403h-68v102l68 10v73q0 94 52 147.5t155 53.5q70 0 127 -25l-68 -118q-23 23 -55 23q-46 0 -46 -75v-79h175v73q0 94 52 147.5t155 53.5q70 0 127 -25l-68 -118q-23 23 -55 23q-46 0 -46 -75v-79h102v-112h-102v-302l56 -9v-92
z" />
    <glyph glyph-name="fi" unicode="fi" horiz-adv-x="646" 
d="M627 92v-92h-221v403h-166v-302l56 -9v-92h-221v403h-68v102l68 10v83q0 90 49.5 140.5t146.5 50.5q70 0 116 -22l-50 -120q-24 22 -53 22q-44 0 -44 -72v-82h272q36 0 47.5 -13t11.5 -44v-357zM571 727v-146h-165v146h165z" />
    <glyph glyph-name="fl" unicode="fl" horiz-adv-x="641" 
d="M622 92v-92h-221v670q-37 7 -68 7q-48 0 -70.5 -23t-22.5 -84v-55h92v-112h-92v-302l56 -9v-92h-221v403h-68v102l68 10v48q0 114 62 170t202 56q103 0 227 -19v-669z" />
    <glyph glyph-name="ffi" unicode="ffi" horiz-adv-x="986" 
d="M967 0h-221v403h-166v-302l56 -9v-92h-221v403h-175v-302l56 -9v-92h-221v403h-68v102l68 10v73q0 94 52 147.5t155 53.5q70 0 127 -25l-68 -118q-23 23 -55 23q-46 0 -46 -75v-79h175v83q0 90 49.5 140.5t146.5 50.5q70 0 116 -22l-50 -120q-24 22 -53 22q-44 0 -44 -72
v-82h272q36 0 47.5 -13t11.5 -44v-357l56 -9v-92zM911 727v-146h-165v146h165z" />
    <glyph glyph-name="ffl" unicode="ffl" horiz-adv-x="981" 
d="M962 92v-92h-221v670q-37 7 -68 7q-48 0 -70.5 -23t-22.5 -84v-55h92v-112h-92v-302l56 -9v-92h-221v403h-175v-302l56 -9v-92h-221v403h-68v102l68 10v73q0 94 52 147.5t155 53.5q70 0 127 -25l-68 -118q-23 23 -55 23q-46 0 -46 -75v-79h175v48q0 114 62 170t202 56
q103 0 227 -19v-669z" />
    <glyph glyph-name=".notdef" horiz-adv-x="582" 
d="M291 474q12 0 20.5 8.5t8.5 20.5v55q0 18 10.5 29.5t26.5 11.5q12 0 33.5 -14t47.5 -14q12 0 27 5t27 5q25 0 40.5 -17.5t15.5 -38.5t-13.5 -35.5t-27 -32.5t-13.5 -47q0 -2 0.5 -9t0.5 -11q0 -16 -12 -26.5t-27 -10.5q-12 0 -20 5l-46 27q-10 6 -19 6q-12 0 -19.5 -9
t-7.5 -20q0 -16 16 -25l46 -27q22 -13 22 -34q0 -16 -11 -27q-5 -5 -20.5 -12.5t-24.5 -16.5q-16 -16 -23 -44t-19 -40q-15 -15 -39 -15t-39 15q-12 12 -19 40t-23 44q-9 9 -24.5 16.5t-20.5 12.5q-11 11 -11 27q0 21 22 34l46 27q16 9 16 25q0 11 -7.5 20t-19.5 9
q-9 0 -19 -6l-46 -27q-8 -5 -20 -5q-15 0 -27 10.5t-12 26.5q0 4 0.5 11t0.5 9q0 29 -13.5 47t-27 32.5t-13.5 35.5t15.5 38.5t40.5 17.5q12 0 27 -5t27 -5q26 0 47.5 14t33.5 14q16 0 26.5 -11.5t10.5 -29.5v-55q0 -12 8.5 -20.5t20.5 -8.5z" />
    <glyph glyph-name=".null" horiz-adv-x="0" 
 />
    <glyph glyph-name=".null" horiz-adv-x="0" 
 />
    <glyph glyph-name="nonmarkingreturn" horiz-adv-x="333" 
 />
    <glyph glyph-name="CR" unicode="&#xd;" horiz-adv-x="250" 
 />
    <glyph glyph-name="space" unicode=" " horiz-adv-x="250" 
 />
    <glyph glyph-name="space" unicode="&#xa0;" horiz-adv-x="250" 
 />
    <glyph glyph-name="exclam" unicode="!" horiz-adv-x="315" 
d="M84 279l-20 500h185l-20 -557h-86q-36 0 -47.5 13t-11.5 44zM74 0v156h165v-156h-165z" />
    <glyph glyph-name="quotedbl" unicode="&#x22;" horiz-adv-x="495" 
d="M230 779l-20 -239h-135l-20 239h175zM440 779l-20 -239h-135l-20 239h175z" />
    <glyph glyph-name="numbersign" unicode="#" horiz-adv-x="843" 
d="M738 185h-179l-46 -185h-136l46 185h-134l-46 -185h-136l46 185h-88v118h118l32 129h-150v118h179l45 177h137l-45 -177h133l45 177h137l-45 -177h87v-118h-117l-32 -129h149v-118zM351 432l-32 -129h134l32 129h-134z" />
    <glyph glyph-name="dollar" unicode="$" horiz-adv-x="618" 
d="M263 837h106v-119q101 -9 188 -50l-70 -120q-31 30 -76 49.5t-92 19.5q-55 0 -82.5 -22.5t-27.5 -57.5q0 -42 38 -70t92 -46t108.5 -40t92.5 -65t38 -107q0 -71 -51 -126t-158 -71v-122h-106v116q-149 5 -245 75l65 113q99 -82 204 -82q59 0 88 23t29 64q0 40 -37.5 67
t-90.5 45t-106.5 40t-91 66.5t-37.5 110.5q0 75 55.5 127t166.5 63v119z" />
    <glyph glyph-name="percent" unicode="%" horiz-adv-x="998" 
d="M253 380q-98 0 -152 50.5t-54 144.5q0 95 56 146t153 51q99 0 153 -50.5t54 -144.5q0 -95 -56 -146t-154 -51zM319 575q0 105 -65 105q-63 0 -63 -104t65 -104q63 0 63 103zM292 -52h-141l555 831h141zM741 -45q-98 0 -152 50.5t-54 144.5q0 95 56 146t153 51
q99 0 153 -50.5t54 -144.5q0 -95 -56 -146t-154 -51zM807 150q0 105 -65 105q-63 0 -63 -104t65 -104q63 0 63 103z" />
    <glyph glyph-name="ampersand" unicode="&#x26;" horiz-adv-x="876" 
d="M823 443l-75 -54q70 -78 70 -151q0 -117 -95.5 -185.5t-280.5 -68.5q-178 0 -277.5 62.5t-99.5 183.5q0 70 36 118.5t84 65.5q-85 60 -85 150q0 64 26 110.5t70 70t90.5 34t97.5 10.5q116 0 218 -41l-78 -136q-66 55 -144 55q-53 0 -81.5 -26.5t-28.5 -68.5
q0 -93 119 -93h26v-114h-26q-71 0 -110 -33t-39 -92q0 -62 51 -96.5t155 -34.5q92 0 148 28t56 87q0 37 -31 71l-80 -58l-74 91l284 206z" />
    <glyph glyph-name="quotesingle" unicode="'" horiz-adv-x="285" 
d="M230 779l-20 -239h-135l-20 239h175z" />
    <glyph glyph-name="parenleft" unicode="(" horiz-adv-x="338" 
d="M318 -212h-122q-141 244 -141 506q0 275 141 526h122q-110 -270 -110 -513q0 -104 20 -211.5t40 -169t50 -138.5z" />
    <glyph glyph-name="parenright" unicode=")" horiz-adv-x="338" 
d="M142 -212h-122q32 78 52.5 137.5t39 160.5t18.5 205q0 107 -20 216t-39.5 171t-50.5 142h122q141 -250 141 -515q0 -270 -141 -517z" />
    <glyph glyph-name="asterisk" unicode="*" horiz-adv-x="482" 
d="M383 448l-100 -65l-52 120l-50 -119l-104 58l86 100l-127 -12v112l122 -13l-71 101l103 59l45 -121l47 122l101 -66l-77 -95l123 12v-111l-125 13z" />
    <glyph glyph-name="plus" unicode="+" 
d="M365 84h-130v182h-175v118h175v178h130v-178h175v-118h-175v-182z" />
    <glyph glyph-name="comma" unicode="," horiz-adv-x="290" 
d="M235 190v-190q0 -92 -54 -147.5t-154 -54.5v89q50 4 77 32.5t25 80.5h-74v190h180z" />
    <glyph glyph-name="hyphen" unicode="-" horiz-adv-x="360" 
d="M45 238v120h270v-120h-270z" />
    <glyph glyph-name="hyphen" unicode="&#xad;" horiz-adv-x="360" 
d="M45 238v120h270v-120h-270z" />
    <glyph glyph-name="period" unicode="." horiz-adv-x="290" 
d="M235 190v-190h-180v190h180z" />
    <glyph glyph-name="slash" unicode="/" horiz-adv-x="501" 
d="M311 779h165l-300 -819h-164z" />
    <glyph glyph-name="zero" unicode="0" horiz-adv-x="750" 
d="M372 -16q-155 0 -240 98t-85 280q0 183 88.5 282t242.5 99q155 0 240 -98t85 -280q0 -183 -88.5 -282t-242.5 -99zM376 95q148 0 148 268q0 269 -150 269q-148 0 -148 -269q0 -268 150 -268z" />
    <glyph glyph-name="one" unicode="1" horiz-adv-x="441" 
d="M407 0h-362v92l96 20v499l-106 20v96h221q57 0 57 -57v-558l94 -20v-92z" />
    <glyph glyph-name="two" unicode="2" horiz-adv-x="611" 
d="M569 0h-462q-57 0 -57 57v82q0 71 34 122t82 79.5t96.5 53t82.5 58.5t34 79q0 43 -24 70.5t-75 27.5q-47 0 -80 -21.5t-68 -64.5l-76 132q106 68 237 68q128 0 197.5 -54t69.5 -154q0 -70 -37.5 -121.5t-91 -81.5t-107 -55.5t-91 -57.5t-37.5 -73v-10h235l20 75h118v-211
z" />
    <glyph glyph-name="three" unicode="3" horiz-adv-x="608" 
d="M12 49l72 125q80 -78 178 -78q60 0 92.5 27.5t32.5 76.5q0 53 -39 86t-124 33h-39v108h41q133 0 133 107q0 44 -26.5 71t-75.5 27q-86 0 -149 -87l-73 127q101 71 235 71q130 0 194.5 -56t64.5 -142q0 -106 -97 -150v-2q58 -19 97 -62.5t39 -117.5q0 -109 -83.5 -169
t-226.5 -60q-140 0 -246 65z" />
    <glyph glyph-name="four" unicode="4" horiz-adv-x="617" 
d="M335 727h195l-338 -407v-24h172v133h111q57 0 57 -57v-259l77 -21v-92h-322v92l77 21v53h-336v130q0 54 26 86z" />
    <glyph glyph-name="five" unicode="5" horiz-adv-x="628" 
d="M532 727v-136h-302v-153q42 8 78 8q146 0 212 -64t66 -162q0 -108 -78.5 -172t-233.5 -64q-140 0 -246 65l65 127q89 -80 185 -80q127 0 127 113q0 112 -134 112q-49 0 -95 -11t-52 -11q-20 0 -32 14.5t-12 41.5v372h452z" />
    <glyph glyph-name="six" unicode="6" horiz-adv-x="660" 
d="M549 733v-116q-93 3 -148 -3t-96 -28.5t-59 -64t-24 -111.5q73 39 160 39q48 0 88.5 -10t78 -33t59 -68.5t21.5 -108.5q0 -111 -80 -178t-212 -67q-293 0 -293 333q0 127 27 210t89 131.5t155.5 65t233.5 9.5zM336 337q-57 0 -117 -39q3 -105 32.5 -152.5t89.5 -47.5
q57 0 83.5 34t26.5 89q0 116 -115 116z" />
    <glyph glyph-name="seven" unicode="7" horiz-adv-x="546" 
d="M329 0h-128q-33 0 -42.5 16.5t-1.5 51.5q25 115 86.5 267.5t126.5 255.5h-217l-20 -76h-118v212h516v-128q0 -38 -15 -67q-139 -255 -187 -532z" />
    <glyph glyph-name="eight" unicode="8" horiz-adv-x="683" 
d="M339 -16q-140 0 -220.5 56t-80.5 168q0 73 50 123q13 13 27 23t22 14t13 8.5t5 9.5q0 6 -6.5 11t-21.5 14.5t-28 22.5q-39 39 -39 100q0 99 76 154t208 55q133 0 206 -54.5t73 -155.5q0 -57 -39 -96q-13 -13 -28 -22.5t-21.5 -14.5t-6.5 -11q0 -5 5 -9.5t13 -8.5t22 -14
t27 -23q50 -50 50 -122q0 -112 -81.5 -170t-224.5 -58zM466 210q0 116 -125 116q-124 0 -124 -116q0 -115 125 -115q124 0 124 115zM447 530q0 102 -106 102q-105 0 -105 -102q0 -101 106 -101q105 0 105 101z" />
    <glyph glyph-name="nine" unicode="9" horiz-adv-x="660" 
d="M101 -5v116q187 -9 256 30.5t81 174.5q-74 -38 -160 -38q-48 0 -88.5 10t-78 33t-59 68.5t-21.5 108.5q0 111 80 178t212 67q293 0 293 -333q0 -170 -51.5 -263.5t-161.5 -128.5t-302 -23zM324 390q59 0 116 38q-3 106 -32 153.5t-89 47.5q-57 0 -83.5 -34t-26.5 -89
q0 -116 115 -116z" />
    <glyph glyph-name="colon" unicode=":" horiz-adv-x="310" 
d="M245 180v-180h-180v180h180zM245 515v-180h-180v180h180z" />
    <glyph glyph-name="semicolon" unicode=";" horiz-adv-x="310" 
d="M245 180v-180q0 -92 -54 -147.5t-154 -54.5v89q50 4 77 32.5t25 80.5h-74v180h180zM245 515v-180h-180v180h180z" />
    <glyph glyph-name="less" unicode="&#x3c;" 
d="M70 268v114l440 220v-138l-285 -139l285 -139v-138z" />
    <glyph glyph-name="equal" unicode="=" 
d="M60 384v118h480v-118h-480zM60 148v118h480v-118h-480z" />
    <glyph glyph-name="greater" unicode="&#x3e;" 
d="M530 382v-114l-440 -220v138l285 139l-285 139v138z" />
    <glyph glyph-name="question" unicode="?" horiz-adv-x="598" 
d="M334 222h-144l-1 25q-2 65 15.5 110.5t45 68t55 40t47 42t19.5 59.5q0 42 -28.5 68t-81.5 26q-85 0 -160 -82l-80 135q120 75 254 75q131 0 203.5 -55.5t72.5 -160.5q0 -57 -22 -98t-53.5 -64.5t-63 -43.5t-54 -46.5t-23.5 -61.5zM344 156v-156h-165v156h165z" />
    <glyph glyph-name="at" unicode="@" horiz-adv-x="1150" 
d="M627 212l35 179q-30 24 -68 24q-40 0 -67.5 -20t-39 -51t-16 -54t-4.5 -43q0 -76 59 -76q40 0 101 41zM860 -22l42 -93q-161 -90 -355 -90q-229 0 -365.5 124t-136.5 324q0 108 40 205t112 171.5t181.5 118.5t240.5 44q229 0 362.5 -118t133.5 -296q0 -82 -26 -145
t-69 -98.5t-92 -52.5t-102 -17q-116 0 -163 62q-89 -62 -175 -62q-85 0 -135 52t-50 133q0 126 76 207t207 81q90 0 136 -47l24 34h103l-53 -267q-15 -77 46 -77q46 0 84.5 46.5t38.5 144.5q0 134 -94.5 220.5t-258.5 86.5q-113 0 -208 -51t-152 -147t-57 -219
q0 -152 98.5 -248t264.5 -96q161 0 302 70z" />
    <glyph glyph-name="A" unicode="A" horiz-adv-x="815" 
d="M800 92v-92h-307v92l77 12l-37 101h-295l-37 -101l62 -12v-92h-248v92l43 12l200 520l-74 12v91h273q39 0 53.5 -9t25.5 -38l222 -576zM276 310h219l-109 304z" />
    <glyph glyph-name="B" unicode="B" horiz-adv-x="761" 
d="M35 0v92l76 12v519l-74 13v91h407q121 0 185 -46.5t64 -134.5q0 -59 -35.5 -101t-86.5 -59v-3q70 -18 116 -67t46 -117q0 -92 -71.5 -145.5t-194.5 -53.5h-432zM281 620v-201h184q52 32 52 105q0 53 -34 74.5t-113 21.5h-89zM281 107h115q79 0 116 25.5t37 80.5
q0 48 -31.5 76.5t-98.5 28.5h-138v-211z" />
    <glyph glyph-name="C" unicode="C" horiz-adv-x="725" 
d="M652 185l51 -88q-118 -113 -283 -113q-171 0 -276 101t-105 274q0 78 24 145.5t71 121.5t124 85.5t176 31.5q131 0 247 -54l-81 -140q-72 69 -174 69q-99 0 -152 -71t-53 -182q0 -123 60.5 -189t173.5 -66q96 0 197 75z" />
    <glyph glyph-name="D" unicode="D" horiz-adv-x="818" 
d="M35 0v92l76 12v520l-74 12v91h349q177 0 288 -92.5t111 -262.5q0 -171 -110 -271.5t-316 -100.5h-324zM281 107h89q117 0 176 70t59 186q0 122 -62.5 189.5t-172.5 67.5h-89v-513z" />
    <glyph glyph-name="E" unicode="E" horiz-adv-x="676" 
d="M633 182v-182h-598v92l76 12v520l-74 12v91h575v-181h-108l-20 74h-203v-198h222v-106h-222v-209h224l20 75h108z" />
    <glyph glyph-name="F" unicode="F" horiz-adv-x="667" 
d="M367 92v-92h-332v92l76 12v520l-74 12v91h568v-181h-108l-20 74h-196v-216h243v-106h-243v-191z" />
    <glyph glyph-name="G" unicode="G" horiz-adv-x="800" 
d="M732 0h-114l-14 36q-77 -52 -190 -52q-166 0 -270.5 103t-104.5 272q0 78 24 145.5t71.5 121.5t125.5 85.5t178 31.5q141 0 268 -61l-80 -139q-82 75 -195 75q-100 0 -156 -71.5t-56 -181.5q0 -119 62 -187.5t174 -68.5q62 0 114 25v243h106q57 0 57 -57v-320z" />
    <glyph glyph-name="H" unicode="H" horiz-adv-x="900" 
d="M865 0h-322v92l76 12v212h-338v-212l76 -12v-92h-322v92l76 12v520l-74 12v91h318v-91l-74 -12v-198h338v198l-74 12v91h318v-91l-74 -12v-520l76 -12v-92z" />
    <glyph glyph-name="I" unicode="I" horiz-adv-x="392" 
d="M357 0h-322v92l76 12v520l-74 12v91h318v-91l-74 -12v-520l76 -12v-92z" />
    <glyph glyph-name="J" unicode="J" horiz-adv-x="476" 
d="M213 624l-74 12v91h308v-91l-64 -12v-415q0 -112 -56.5 -168.5t-157.5 -56.5q-107 0 -168 63l48 83q54 -34 90 -34q74 0 74 113v415z" />
    <glyph glyph-name="K" unicode="K" horiz-adv-x="811" 
d="M797 92v-92h-164q-45 0 -69 31l-206 258q-13 17 -23 22t-30 5h-24v-212l76 -12v-92h-322v92l76 12v520l-74 12v91h318v-91l-74 -12v-198h61l182 198l-57 12v91h263v-103l-241 -237q12 -11 34 -37l190 -236z" />
    <glyph glyph-name="L" unicode="L" horiz-adv-x="640" 
d="M613 0h-578v92l76 12v520l-74 12v91h318v-91l-74 -12v-517h204l20 75h108v-182z" />
    <glyph glyph-name="M" unicode="M" horiz-adv-x="1166" 
d="M1146 92v-92h-304v92l70 12l-56 496l-193 -600h-138q-52 0 -67 46l-177 554l-56 -496l70 -12v-92h-275v92l59 12l67 520l-74 12v91h300q52 0 67 -46l153 -473l153 474q15 45 67 45h282v-91l-74 -12l67 -520z" />
    <glyph glyph-name="N" unicode="N" horiz-adv-x="872" 
d="M761 0h-189q-28 0 -42.5 9t-24.5 33l-258 569v-507l76 -12v-92h-288v92l76 12v520l-74 12v91h294q27 0 41.5 -9t24.5 -33l228 -511v449l-76 12v92h288v-92l-76 -12v-623z" />
    <glyph glyph-name="O" unicode="O" horiz-adv-x="850" 
d="M812 370q0 -181 -107.5 -283.5t-285.5 -102.5q-182 0 -281.5 96t-99.5 277t107.5 283.5t285.5 102.5q182 0 281.5 -96t99.5 -277zM632 363q0 133 -52.5 201t-154.5 68q-207 0 -207 -268q0 -133 52.5 -201t154.5 -68q207 0 207 268z" />
    <glyph glyph-name="P" unicode="P" horiz-adv-x="720" 
d="M35 0v92l76 12v520l-74 12v91h372q148 0 217 -56t69 -185q0 -56 -15.5 -99t-51.5 -78.5t-103 -54.5t-163 -19h-81v-128l86 -15v-92h-332zM281 342h90q152 0 152 133q0 80 -35 112.5t-116 32.5h-91v-278z" />
    <glyph glyph-name="Q" unicode="Q" horiz-adv-x="850" 
d="M796 35l25 -132q-51 -23 -121 -23q-45 0 -86.5 16t-67.5 36t-60 36t-66 16h-1q-182 0 -281.5 96t-99.5 277t107.5 283.5t285.5 102.5q182 0 281.5 -96t99.5 -277q0 -121 -49 -208t-138 -133q11 -1 34 -7.5t44 -6.5q42 0 93 20zM632 363q0 133 -52.5 201t-154.5 68
q-207 0 -207 -268q0 -133 52.5 -201t154.5 -68q207 0 207 268z" />
    <glyph glyph-name="R" unicode="R" horiz-adv-x="785" 
d="M697 104l64 -12v-92h-167q-31 0 -46.5 11.5t-22.5 37.5l-35 134q-12 48 -42 71.5t-98 23.5h-69v-174l76 -12v-92h-322v92l76 12v520l-74 12v91h396q126 0 198 -51.5t72 -160.5q0 -58 -37.5 -107.5t-91.5 -72.5v-7q33 -9 52.5 -35t33.5 -71zM281 384h173q30 15 49.5 45.5
t19.5 71.5q0 64 -35.5 91.5t-115.5 27.5h-91v-236z" />
    <glyph glyph-name="S" unicode="S" horiz-adv-x="655" 
d="M18 64l69 120q106 -87 216 -87q63 0 94 24.5t31 67.5t-40 71.5t-96.5 47.5t-113 42.5t-96.5 70.5t-40 117q0 91 75 148t224 57q132 0 249 -56l-74 -128q-33 32 -81 53t-97 21q-59 0 -88 -24t-29 -61q0 -33 21.5 -57.5t56 -40.5t76.5 -30t83.5 -32t76 -40.5t56 -60.5
t21.5 -88q0 -91 -76.5 -153t-237.5 -62q-80 0 -155.5 22t-124.5 58z" />
    <glyph glyph-name="T" unicode="T" horiz-adv-x="702" 
d="M436 105l86 -13v-92h-342v92l86 13v515h-121l-20 -74h-108v181h668v-181h-108l-20 74h-121v-515z" />
    <glyph glyph-name="U" unicode="U" horiz-adv-x="840" 
d="M811 727v-91l-64 -12v-332q0 -145 -84 -226.5t-247 -81.5q-157 0 -240 74t-83 210v356l-64 12v91h308v-91l-74 -12v-333q0 -188 158 -188q156 0 156 190v331l-74 12v91h308z" />
    <glyph glyph-name="V" unicode="V" horiz-adv-x="777" 
d="M484 0h-128q-39 0 -53.5 9t-25.5 38l-220 577l-42 12v91h281v-91l-56 -12l172 -465h2l162 465l-56 12v91h242v-91l-42 -12z" />
    <glyph glyph-name="W" unicode="W" horiz-adv-x="1162" 
d="M459 0h-156q-39 0 -54.5 9.5t-23.5 35.5l-168 579l-42 12v91h281v-91l-57 -12l127 -474h1l147 577h117q54 0 66 -45l144 -532h1l123 474l-56 12v91h238v-91l-42 -12l-179 -624h-148q-39 0 -54.5 9.5t-23.5 35.5l-121 418h-1z" />
    <glyph glyph-name="X" unicode="X" horiz-adv-x="748" 
d="M686 104l45 -12v-92h-306v92l47 12l-119 170l-140 -170l61 -12v-92h-259v92l43 12l221 256l-193 264l-44 12v91h304v-91l-48 -12l98 -142l117 142l-62 12v91h257v-91l-42 -12l-196 -228z" />
    <glyph glyph-name="Y" unicode="Y" horiz-adv-x="708" 
d="M439 105l86 -13v-92h-342v92l86 13v161l-216 358l-38 12v91h295v-88l-58 -14l128 -234h4l135 233l-60 12v91h234v-91l-38 -12l-216 -358v-161z" />
    <glyph glyph-name="Z" unicode="Z" horiz-adv-x="656" 
d="M621 182v-182h-592v96l371 524h-220l-20 -74h-108v181h546v-96l-371 -524h266l20 75h108z" />
    <glyph glyph-name="bracketleft" unicode="[" horiz-adv-x="374" 
d="M319 -212h-244v1032h244v-94l-96 -9v-826l96 -9v-94z" />
    <glyph glyph-name="backslash" unicode="\" horiz-adv-x="501" 
d="M12 779h165l299 -819h-164z" />
    <glyph glyph-name="bracketright" unicode="]" horiz-adv-x="374" 
d="M299 -212h-244v94l96 9v826l-96 9v94h244v-1032z" />
    <glyph glyph-name="asciicircum" unicode="^" 
d="M243 727h114l220 -440h-138l-139 285l-139 -285h-138z" />
    <glyph glyph-name="underscore" unicode="_" 
d="M0 -212v118h600v-118h-600z" />
    <glyph glyph-name="grave" unicode="`" horiz-adv-x="305" 
d="M280 581h-132l-123 146h177z" />
    <glyph glyph-name="a" unicode="a" horiz-adv-x="673" 
d="M419 132v251q-41 30 -92 30q-62 0 -93 -42.5t-31 -113.5t31.5 -113t92.5 -42q50 0 92 30zM471 515h169v-92l-56 -9v-313l56 -9v-92h-169l-21 43q-73 -57 -168 -57q-47 0 -89.5 14.5t-79 45t-58.5 84t-22 124.5q0 127 76 201t188 74q92 0 155 -53z" />
    <glyph glyph-name="b" unicode="b" horiz-adv-x="645" 
d="M174 0h-113v678l-56 9v92h162q36 0 47.5 -13t11.5 -44v-229q62 36 137 36q47 0 89.5 -14.5t79 -45t58.5 -84t22 -124.5q0 -127 -76 -201t-188 -74q-92 0 -155 53zM226 383v-251q41 -30 92 -30q62 0 93 42.5t31 113.5t-31.5 113t-92.5 42q-50 0 -92 -30z" />
    <glyph glyph-name="c" unicode="c" horiz-adv-x="526" 
d="M473 154l48 -83q-35 -38 -93 -61.5t-122 -23.5q-129 0 -201 70.5t-72 197.5t80 201t212 74q105 0 180 -40l-73 -126q-19 23 -51.5 37t-63.5 14q-52 0 -83 -39t-31 -118q0 -156 133 -156q73 0 137 53z" />
    <glyph glyph-name="d" unicode="d" horiz-adv-x="659" 
d="M584 101l56 -9v-92h-169l-21 43q-73 -57 -168 -57q-47 0 -89.5 14.5t-79 45t-58.5 84t-22 124.5q0 127 76 201t188 74q73 0 122 -30v179l-56 9v92h162q36 0 47.5 -13t11.5 -44v-621zM419 132v251q-41 30 -92 30q-62 0 -93 -42.5t-31 -113.5t31.5 -113t92.5 -42
q50 0 92 30z" />
    <glyph glyph-name="e" unicode="e" horiz-adv-x="580" 
d="M511 153l42 -73q-42 -44 -107.5 -69t-135.5 -25q-130 0 -203.5 68.5t-73.5 197.5q0 125 77.5 201t208.5 76q104 0 166 -46.5t62 -118.5q0 -86 -81 -130.5t-262 -44.5q26 -91 136 -91q91 0 171 55zM308 417q-44 0 -74 -34t-37 -96q95 -1 137.5 16.5t42.5 55.5q0 24 -18 41
t-51 17z" />
    <glyph glyph-name="f" unicode="f" horiz-adv-x="350" 
d="M296 92v-92h-221v403h-68v102l68 10v73q0 94 52 147.5t155 53.5q70 0 127 -25l-68 -118q-23 23 -55 23q-46 0 -46 -75v-79h102v-112h-102v-302z" />
    <glyph glyph-name="g" unicode="g" horiz-adv-x="652" 
d="M471 515h162v-92l-49 -9v-414q0 -100 -63.5 -161.5t-178.5 -61.5q-124 0 -211 51l62 108q60 -53 128 -53q52 0 75 29t23 92v18q-62 -36 -137 -36q-47 0 -89.5 14.5t-79 45t-58.5 84t-22 124.5q0 127 76 201t188 74q94 0 155 -53zM419 132v251q-41 30 -92 30
q-62 0 -93 -42.5t-31 -113.5t31.5 -113t92.5 -42q50 0 92 30z" />
    <glyph glyph-name="h" unicode="h" horiz-adv-x="628" 
d="M609 92v-92h-217v315q0 51 -17 70t-57 19q-45 0 -92 -31v-272l56 -9v-92h-221v678l-56 9v92h162q36 0 47.5 -13t11.5 -44v-239q65 46 149 46q101 0 141.5 -47.5t40.5 -142.5v-238z" />
    <glyph glyph-name="i" unicode="i" horiz-adv-x="315" 
d="M296 92v-92h-221v414l-56 9v92h162q36 0 47.5 -13t11.5 -44v-357zM240 717v-146h-165v146h165z" />
    <glyph glyph-name="j" unicode="j" horiz-adv-x="300" 
d="M-69 -190l56 96q25 -23 49 -23q20 0 29.5 15.5t9.5 58.5v457l-56 9v92h162q36 0 47.5 -13t11.5 -44v-488q0 -97 -45 -145t-143 -48q-62 0 -121 33zM240 717v-146h-165v146h165z" />
    <glyph glyph-name="k" unicode="k" horiz-adv-x="595" 
d="M581 92v-92h-144q-29 0 -42.5 8.5t-27.5 32.5l-75 133q-14 25 -26 34t-34 9h-6v-116l48 -9v-92h-213v678l-56 9v92h162q36 0 47.5 -13t11.5 -44v-403h46l95 95l-46 9v92h228v-92l-143 -138q14 -9 34 -40l92 -144z" />
    <glyph glyph-name="l" unicode="l" horiz-adv-x="301" 
d="M282 92v-92h-221v678l-56 9v92h162q36 0 47.5 -13t11.5 -44v-621z" />
    <glyph glyph-name="m" unicode="m" horiz-adv-x="965" 
d="M946 92v-92h-217v315q0 51 -17 70t-55 19q-43 0 -90 -31v-272l53 -9v-92h-218v315q0 51 -17 70t-55 19q-43 0 -90 -31v-272l53 -9v-92h-218v414l-56 9v92h180l21 -43q81 57 167 57q110 0 152 -63q83 63 175 63q100 0 140 -47.5t40 -142.5v-238z" />
    <glyph glyph-name="n" unicode="n" horiz-adv-x="642" 
d="M623 92v-92h-217v315q0 51 -17 70t-57 19q-45 0 -92 -31v-272l56 -9v-92h-221v414l-56 9v92h180l21 -43q81 57 169 57q101 0 141.5 -47.5t40.5 -142.5v-238z" />
    <glyph glyph-name="o" unicode="o" horiz-adv-x="638" 
d="M323 529q133 0 207.5 -67t74.5 -201q0 -129 -80.5 -202t-209.5 -73q-133 0 -207.5 67t-74.5 201q0 129 80.5 202t209.5 73zM319 100q117 0 117 158q0 157 -117 157t-117 -158q0 -157 117 -157z" />
    <glyph glyph-name="p" unicode="p" horiz-adv-x="659" 
d="M240 383v-251q41 -30 92 -30q62 0 93 42.5t31 113.5t-31.5 113t-92.5 42q-50 0 -92 -30zM296 -212h-162q-36 0 -47.5 13t-11.5 44v569l-56 9v92h169l21 -43q73 57 168 57q47 0 89.5 -14.5t79 -45t58.5 -84t22 -124.5q0 -127 -76 -201t-188 -74q-73 0 -122 30v-127l56 -9
v-92z" />
    <glyph glyph-name="q" unicode="q" horiz-adv-x="645" 
d="M640 -120v-92h-162q-36 0 -47.5 13t-11.5 44v177q-62 -36 -137 -36q-47 0 -89.5 14.5t-79 45t-58.5 84t-22 124.5q0 127 76 201t188 74q92 0 155 -53l19 39h113v-626zM419 132v251q-41 30 -92 30q-62 0 -93 -42.5t-31 -113.5t31.5 -113t92.5 -42q50 0 92 30z" />
    <glyph glyph-name="r" unicode="r" horiz-adv-x="407" 
d="M75 0v414l-56 9v92h178l24 -52q69 69 172 66v-143q-87 11 -153 -26v-259l56 -9v-92h-221z" />
    <glyph glyph-name="s" unicode="s" horiz-adv-x="484" 
d="M17 43l64 112q71 -62 148 -62q63 0 63 47q0 25 -26.5 44t-64.5 33t-75.5 31t-64 48.5t-26.5 74.5q0 69 54.5 113.5t165.5 44.5q100 0 188 -40l-64 -111q-57 47 -122 47q-60 0 -60 -44q0 -24 27 -42.5t65.5 -32.5t77.5 -31.5t66 -49t27 -75.5q0 -73 -58.5 -118.5
t-173.5 -45.5q-128 0 -211 57z" />
    <glyph glyph-name="t" unicode="t" horiz-adv-x="400" 
d="M364 129l33 -91q-74 -52 -162 -52q-75 0 -117.5 38.5t-42.5 131.5v247h-68v102l75 10l16 60q8 31 21.5 41.5t56.5 17.5l64 11v-130h134v-112h-134v-236q0 -60 52 -60q33 0 72 22z" />
    <glyph glyph-name="u" unicode="u" horiz-adv-x="642" 
d="M623 92v-92h-180l-21 43q-81 -57 -169 -57q-101 0 -141.5 47.5t-40.5 142.5v238l-52 9v92h158q36 0 47.5 -13t11.5 -44v-258q0 -51 17 -70t57 -19q45 0 92 31v272l-56 9v92h162q36 0 47.5 -13t11.5 -44v-357z" />
    <glyph glyph-name="v" unicode="v" horiz-adv-x="563" 
d="M548 515v-92l-142 -423h-218l-132 414l-41 9v92h127q36 0 49 -9t22 -40l106 -342l85 290l-56 9v92h200z" />
    <glyph glyph-name="w" unicode="w" horiz-adv-x="899" 
d="M694 515h190v-92l-127 -423h-218l-89 291l-77 -291h-205l-112 414l-41 9v92h125q35 0 50 -11.5t23 -41.5l84 -338l101 391h98q35 0 49.5 -11.5t23.5 -42.5l102 -337l69 290l-46 9v92z" />
    <glyph glyph-name="x" unicode="x" horiz-adv-x="576" 
d="M536 515v-92l-149 -153l117 -169l54 -9v-92h-142q-27 0 -39.5 7.5t-30.5 33.5l-90 129l-64 -69l35 -9v-92h-209v92l170 169l-106 153l-50 9v92h138q27 0 40 -7.5t30 -33.5l79 -113l47 53l-35 9v92h205z" />
    <glyph glyph-name="y" unicode="y" horiz-adv-x="628" 
d="M346 423v92h162q36 0 47.5 -13t11.5 -44v-458q0 -100 -63.5 -161.5t-178.5 -61.5q-124 0 -211 51l62 108q60 -53 128 -53q52 0 75 29t23 92v28q-65 -46 -149 -46q-101 0 -141.5 47.5t-40.5 142.5v238l-52 9v92h158q36 0 47.5 -13t11.5 -44v-258q0 -51 17 -70t57 -19
q45 0 92 31v272z" />
    <glyph glyph-name="z" unicode="z" horiz-adv-x="567" 
d="M237 98h174l19 71h106v-169h-505v90l283 328h-136l-19 -71h-106v168h467v-89z" />
    <glyph glyph-name="braceleft" unicode="{" horiz-adv-x="424" 
d="M369 -212h-41q-114 0 -156 36t-42 142v212q0 43 -11 63.5t-42 23.5l-33 3v94l33 3q31 3 42 23.5t11 63.5v183q0 108 43.5 146.5t159.5 38.5h36v-94l-41 -4q-30 -3 -40 -19.5t-10 -62.5v-190q0 -55 -15 -84.5t-49 -47.5v-1q34 -18 49 -47.5t15 -84.5v-217q0 -46 10 -62.5
t40 -19.5l41 -4v-94z" />
    <glyph glyph-name="bar" unicode="|" horiz-adv-x="298" 
d="M223 -212h-148v1031h148v-1031z" />
    <glyph glyph-name="braceright" unicode="}" horiz-adv-x="424" 
d="M55 820h41q114 0 156 -36t42 -142v-190q0 -43 11 -63.5t42 -23.5l33 -3v-94l-33 -3q-31 -3 -42 -23.5t-11 -63.5v-205q0 -108 -43.5 -146.5t-159.5 -38.5h-36v94l41 4q30 3 40 19.5t10 62.5v212q0 55 15 84.5t49 47.5v1q-34 18 -49 47.5t-15 84.5v195q0 46 -10 62.5
t-40 19.5l-41 4v94z" />
    <glyph glyph-name="asciitilde" unicode="~" 
d="M483 705l81 -44q-55 -133 -176 -133q-52 0 -110.5 29.5t-84.5 29.5q-44 0 -76 -59l-81 44q55 133 176 133q53 0 111 -29.5t84 -29.5q44 0 76 59z" />
    <glyph glyph-name="exclamdown" unicode="&#xa1;" horiz-adv-x="315" 
d="M231 288l20 -500h-185l20 557h86q36 0 47.5 -13t11.5 -44zM241 567v-156h-165v156h165z" />
    <glyph glyph-name="cent" unicode="&#xa2;" horiz-adv-x="499" 
d="M237 727h106v-112q69 -8 118 -33l-68 -118q-39 47 -98 47q-47 0 -74.5 -36.5t-27.5 -109.5q0 -144 119 -144q65 0 122 46l44 -75q-52 -57 -135 -73v-119h-106v116q-97 13 -149.5 76.5t-52.5 169.5q0 101 54 166.5t148 82.5v116z" />
    <glyph glyph-name="sterling" unicode="&#xa3;" horiz-adv-x="670" 
d="M473 307h-155v-6q0 -49 -22 -107t-57 -87h226l20 75h108v-182h-533v97q79 76 79 193q0 3 -0.5 8.5t-0.5 8.5h-95v110h65q-22 68 -22 110q0 100 69 158t209 58q111 0 209 -41l-76 -132q-63 63 -136 63q-49 0 -72.5 -26t-23.5 -69q0 -32 31 -121h177v-110z" />
    <glyph glyph-name="currency" unicode="&#xa4;" 
d="M63 325q0 61 32 117l-90 90l88 88l91 -91q54 30 116 30q61 0 116 -30l91 91l88 -88l-90 -90q32 -56 32 -117q0 -63 -32 -117l90 -90l-88 -88l-91 91q-55 -30 -116 -30q-62 0 -116 30l-91 -91l-88 88l90 90q-32 54 -32 117zM201 325q0 -43 29 -73t70 -30t70 30t29 73
t-29 73t-70 30t-70 -30t-29 -73z" />
    <glyph glyph-name="yen" unicode="&#xa5;" 
d="M60 275v90h155v4l-166 255l-39 12v91h282v-91l-45 -12l81 -144h1l85 144l-48 12v91h224v-91l-39 -12l-166 -255v-4h155v-90h-155v-45h155v-90h-155v-39l76 -11v-90h-322v90l76 11v39h-155v90h155v45h-155z" />
    <glyph glyph-name="brokenbar" unicode="&#xa6;" horiz-adv-x="298" 
d="M75 819h148v-407h-148v407zM223 -212h-148v407h148v-407z" />
    <glyph glyph-name="section" unicode="&#xa7;" horiz-adv-x="673" 
d="M89 595q0 80 65 131t195 51q116 0 218 -48l-69 -120q-66 61 -150 61q-44 0 -66 -18t-22 -47q0 -30 28 -53.5t70 -38t90.5 -34t90.5 -40.5t70 -58t28 -86q0 -53 -29 -95t-82 -66q61 -49 61 -119q0 -82 -67.5 -136t-205.5 -54q-71 0 -137 19t-109 50l67 116q87 -75 182 -75
q47 0 70.5 18.5t23.5 51.5q0 35 -38.5 60.5t-93 44.5t-109 41.5t-93 64t-38.5 99.5q0 109 112 158q-62 49 -62 122zM461 285q0 14 -5 26t-17 22t-23.5 18t-32 16.5l-35 14.5t-40.5 15t-40 15q-58 -36 -58 -87q0 -17 9 -31.5t21.5 -24.5t36 -21.5t41 -18l49 -18t48.5 -18.5
q46 41 46 92z" />
    <glyph glyph-name="dieresis" unicode="&#xa8;" horiz-adv-x="411" 
d="M170 727v-146h-145v146h145zM386 727v-146h-145v146h145z" />
    <glyph glyph-name="copyright" unicode="&#xa9;" horiz-adv-x="960" 
d="M43 370q0 182 124.5 302t314.5 120t312.5 -118t122.5 -300t-124.5 -302t-314.5 -120t-312.5 118t-122.5 300zM163 372q0 -139 90.5 -229t226.5 -90t226.5 90t90.5 229t-90.5 229t-226.5 90t-226.5 -90t-90.5 -229zM620 284l42 -73q-30 -32 -77 -51.5t-101 -19.5
q-109 0 -171 61.5t-62 169.5t68.5 172.5t177.5 64.5q96 0 150 -32l-63 -110q-33 41 -91 41q-42 0 -67 -33t-25 -100q0 -133 109 -133q61 0 110 43z" />
    <glyph glyph-name="ordfeminine" unicode="&#xaa;" horiz-adv-x="480" 
d="M68 265v93h361v-93h-361zM281 509v126q-22 16 -51 16q-69 0 -69 -80q0 -79 69 -79q28 0 51 17zM316 727h113v-76l-34 -7v-146l34 -6v-76h-113l-13 27q-47 -36 -107 -36q-63 0 -108.5 40t-45.5 122q0 77 47 122t116 45q57 0 100 -34z" />
    <glyph glyph-name="guillemotleft" unicode="&#xab;" horiz-adv-x="574" 
d="M509 115h-130l-106 210l105 210h131l-79 -210zM283 115h-130l-115 210l114 210h131l-88 -210z" />
    <glyph glyph-name="logicalnot" unicode="&#xac;" 
d="M520 84h-130v182h-330v118h460v-300z" />
    <glyph glyph-name="registered" unicode="&#xae;" horiz-adv-x="640" 
d="M61 535q0 110 74 182t187 72q111 0 184 -71.5t73 -180.5q0 -110 -74 -182t-187 -72q-111 0 -184 71.5t-73 180.5zM140 536q0 -81 50.5 -133t129.5 -52q80 0 130 51.5t50 133.5q0 81 -50.5 133t-129.5 52q-80 0 -130 -51.5t-50 -133.5zM433 475l18 -6v-47h-65
q-22 0 -30 22l-16 46q-5 13 -9 17.5t-13 4.5h-13v-37l17 -6v-47h-115v47l16 6v140l-16 4v49h135q43 0 68.5 -18.5t25.5 -55.5q0 -20 -11.5 -38t-29.5 -24v-1q18 -5 25 -24zM305 562h22q21 0 21 26q0 27 -33 27h-10v-53z" />
    <glyph glyph-name="macron" unicode="&#xaf;" horiz-adv-x="390" 
d="M25 595v104h340v-104h-340z" />
    <glyph glyph-name="degree" unicode="&#xb0;" horiz-adv-x="426" 
d="M214 789q79 0 126 -42t47 -111q0 -67 -50 -112t-125 -45q-79 0 -126 42t-47 111q0 68 49.5 112.5t125.5 44.5zM213 565q31 0 48.5 18.5t17.5 50.5t-17.5 50.5t-48.5 18.5q-32 0 -49 -18t-17 -51t17 -51t49 -18z" />
    <glyph glyph-name="plusminus" unicode="&#xb1;" 
d="M365 204h-130v182h-175v118h175v178h130v-178h175v-118h-175v-182zM540 0h-480v118h480v-118z" />
    <glyph glyph-name="twosuperior" unicode="&#xb2;" horiz-adv-x="419" 
d="M366 389h-268q-48 0 -48 49v40q0 37 17.5 63t42.5 39.5t50 24t42.5 23.5t17.5 30q0 28 -35 28q-42 0 -81 -37l-50 86q66 37 144 37t121 -28.5t43 -80.5q0 -45 -29.5 -74.5t-65 -40.5t-65 -25.5t-29.5 -33.5v-6h101l16 42h76v-136z" />
    <glyph glyph-name="threesuperior" unicode="&#xb3;" horiz-adv-x="410" 
d="M36 416l47 82q39 -32 90 -32q25 0 37.5 10.5t12.5 25.5q0 42 -83 42h-14v75h19q59 0 59 37q0 32 -36 32q-39 0 -74 -35l-48 83q63 36 142 36q71 0 114.5 -26.5t43.5 -76.5q0 -55 -51 -77v-1q32 -8 52 -31.5t20 -56.5q0 -58 -54 -90.5t-135 -32.5q-78 0 -142 36z" />
    <glyph glyph-name="acute" unicode="&#xb4;" horiz-adv-x="305" 
d="M157 581h-132l78 146h177z" />
    <glyph glyph-name="mu" unicode="&#xb5;" horiz-adv-x="646" 
d="M627 92v-92h-180l-21 43q-75 -53 -141 -53q-44 0 -66 19l21 -221h-165v626l-56 9v92h165q30 0 43 -11.5t13 -39.5v-264q0 -51 17 -70t57 -19q45 0 92 31v272l-56 9v92h170q51 0 51 -41v-373z" />
    <glyph glyph-name="mu" unicode="&#x3bc;" horiz-adv-x="646" 
d="M627 92v-92h-180l-21 43q-75 -53 -141 -53q-44 0 -66 19l21 -221h-165v626l-56 9v92h165q30 0 43 -11.5t13 -39.5v-264q0 -51 17 -70t57 -19q45 0 92 31v272l-56 9v92h170q51 0 51 -41v-373z" />
    <glyph glyph-name="paragraph" unicode="&#xb6;" horiz-adv-x="782" 
d="M475 -65h-127v367h-13q-153 0 -218.5 56.5t-65.5 176.5q0 122 63.5 178t223.5 56h339v-834h-127v722h-75v-722z" />
    <glyph glyph-name="periodcentered" unicode="&#xb7;" horiz-adv-x="270" 
d="M235 420v-190h-180v190h180z" />
    <glyph glyph-name="cedilla" unicode="&#xb8;" horiz-adv-x="296" 
d="M25 -212v109q31 -4 60 -4q47 0 47 36q0 32 -28 96h117q50 -63 50 -120q0 -121 -190 -121q-25 0 -56 4z" />
    <glyph glyph-name="onesuperior" unicode="&#xb9;" horiz-adv-x="370" 
d="M319 389h-270v79l62 14v184l-71 15v82h170q48 0 48 -49v-232l61 -14v-79z" />
    <glyph glyph-name="ordmasculine" unicode="&#xba;" horiz-adv-x="460" 
d="M234 736q85 0 134.5 -41t49.5 -121q0 -78 -53 -122.5t-138 -44.5q-87 0 -136 41t-49 122q0 78 53 122t139 44zM229 488q70 0 70 83q0 84 -70 84q-68 0 -68 -84q0 -83 68 -83zM58 265v93h344v-93h-344z" />
    <glyph glyph-name="guillemotright" unicode="&#xbb;" horiz-adv-x="574" 
d="M65 535h130l106 -210l-105 -210h-131l79 210zM291 535h130l115 -210l-114 -210h-131l88 210z" />
    <glyph glyph-name="onequarter" unicode="&#xbc;" horiz-adv-x="827" 
d="M319 389h-270v79l62 14v184l-71 15v82h170q48 0 48 -49v-232l61 -14v-79zM223 -52h-141l555 831h141zM808 -36h-231v69l50 8v17h-174v96q0 47 25 72l111 112h170l-189 -172v-22h57v43h91q41 0 41 -40v-106l49 -8v-69z" />
    <glyph glyph-name="onehalf" unicode="&#xbd;" horiz-adv-x="826" 
d="M319 389h-270v79l62 14v184l-71 15v82h170q48 0 48 -49v-232l61 -14v-79zM223 -52h-141l555 831h141zM808 -36h-268q-48 0 -48 49v40q0 37 17.5 63t42.5 39.5t50 24t42.5 23.5t17.5 30q0 28 -35 28q-42 0 -81 -37l-50 86q66 37 144 37t121 -28.5t43 -80.5
q0 -45 -29.5 -74.5t-65 -40.5t-65 -25.5t-29.5 -33.5v-6h101l16 42h76v-136z" />
    <glyph glyph-name="threequarters" unicode="&#xbe;" horiz-adv-x="827" 
d="M36 416l47 82q39 -32 90 -32q25 0 37.5 10.5t12.5 25.5q0 42 -83 42h-14v75h19q59 0 59 37q0 32 -36 32q-39 0 -74 -35l-48 83q63 36 142 36q71 0 114.5 -26.5t43.5 -76.5q0 -55 -51 -77v-1q32 -8 52 -31.5t20 -56.5q0 -58 -54 -90.5t-135 -32.5q-78 0 -142 36zM223 -52
h-141l555 831h141zM808 -36h-231v69l50 8v17h-174v96q0 47 25 72l111 112h170l-189 -172v-22h57v43h91q41 0 41 -40v-106l49 -8v-69z" />
    <glyph glyph-name="questiondown" unicode="&#xbf;" horiz-adv-x="584" 
d="M264 345h144l1 -25q2 -65 -15.5 -110.5t-45 -68t-55 -40t-47 -42t-19.5 -59.5q0 -42 28.5 -68t81.5 -26q85 0 160 82l80 -135q-120 -75 -254 -75q-131 0 -203.5 55.5t-72.5 160.5q0 57 22 98t53.5 64.5t63 43.5t54 46.5t23.5 61.5zM254 411v156h165v-156h-165z" />
    <glyph glyph-name="Agrave" unicode="&#xc0;" horiz-adv-x="815" 
d="M800 92v-92h-307v92l77 12l-37 101h-295l-37 -101l62 -12v-92h-248v92l43 12l200 520l-74 12v91h273q39 0 53.5 -9t25.5 -38l222 -576zM276 310h219l-109 304zM445 793h-132l-123 146h177z" />
    <glyph glyph-name="Aacute" unicode="&#xc1;" horiz-adv-x="815" 
d="M800 92v-92h-307v92l77 12l-37 101h-295l-37 -101l62 -12v-92h-248v92l43 12l200 520l-74 12v91h273q39 0 53.5 -9t25.5 -38l222 -576zM276 310h219l-109 304zM452 793h-132l78 146h177z" />
    <glyph glyph-name="Acircumflex" unicode="&#xc2;" horiz-adv-x="815" 
d="M800 92v-92h-307v92l77 12l-37 101h-295l-37 -101l62 -12v-92h-248v92l43 12l200 520l-74 12v91h273q39 0 53.5 -9t25.5 -38l222 -576zM276 310h219l-109 304zM490 939l88 -146h-132l-61 82l-61 -82h-128l88 146h206z" />
    <glyph glyph-name="Atilde" unicode="&#xc3;" horiz-adv-x="815" 
d="M800 92v-92h-307v92l77 12l-37 101h-295l-37 -101l62 -12v-92h-248v92l43 12l200 520l-74 12v91h273q39 0 53.5 -9t25.5 -38l222 -576zM276 310h219l-109 304zM509 943l63 -65q-37 -89 -118 -89q-36 0 -78 20t-60 20q-30 0 -51 -40l-63 65q37 89 118 89q36 0 78 -20
t60 -20q30 0 51 40z" />
    <glyph glyph-name="Adieresis" unicode="&#xc4;" horiz-adv-x="815" 
d="M800 92v-92h-307v92l77 12l-37 101h-295l-37 -101l62 -12v-92h-248v92l43 12l200 520l-74 12v91h273q39 0 53.5 -9t25.5 -38l222 -576zM276 310h219l-109 304zM352 939v-146h-145v146h145zM568 939v-146h-145v146h145z" />
    <glyph glyph-name="Aring" unicode="&#xc5;" horiz-adv-x="815" 
d="M800 92v-92h-307v92l77 12l-37 101h-295l-37 -101l62 -12v-92h-248v92l43 12l200 520l-74 12v91h273q39 0 53.5 -9t25.5 -38l222 -576zM276 310h219l-109 304zM387 977q74 0 116.5 -28t42.5 -81q0 -51 -44.5 -81.5t-116.5 -30.5q-73 0 -116 28.5t-43 81.5q0 51 44.5 81
t116.5 30zM386 818q25 0 39.5 12.5t14.5 35.5t-14 36t-40 13t-40 -13t-14 -36t14.5 -35.5t39.5 -12.5z" />
    <glyph glyph-name="AE" unicode="&#xc6;" horiz-adv-x="1085" 
d="M1035 0h-588v92l76 12v101h-280l-52 -101l62 -12v-92h-248v92l34 12l283 520l-74 12v91h761v-181h-108l-20 74h-188v-194h212v-110h-212v-209h214l20 75h108v-182zM297 310h226v310h-65z" />
    <glyph glyph-name="Ccedilla" unicode="&#xc7;" horiz-adv-x="725" 
d="M271 -212v109q31 -4 60 -4q47 0 47 36q0 21 -13 58q-149 16 -237.5 115t-88.5 257q0 78 24 145.5t71 121.5t124 85.5t176 31.5q131 0 247 -54l-81 -140q-72 69 -174 69q-99 0 -152 -71t-53 -182q0 -123 60.5 -189t173.5 -66q96 0 197 75l51 -88q-90 -87 -211 -107
q25 -39 25 -85q0 -121 -190 -121q-25 0 -56 4z" />
    <glyph glyph-name="Egrave" unicode="&#xc8;" horiz-adv-x="676" 
d="M633 182v-182h-598v92l76 12v520l-74 12v91h575v-181h-108l-20 74h-203v-198h222v-106h-222v-209h224l20 75h108zM429 793h-132l-123 146h177z" />
    <glyph glyph-name="Eacute" unicode="&#xc9;" horiz-adv-x="676" 
d="M633 182v-182h-598v92l76 12v520l-74 12v91h575v-181h-108l-20 74h-203v-198h222v-106h-222v-209h224l20 75h108zM396 793h-132l78 146h177z" />
    <glyph glyph-name="Ecircumflex" unicode="&#xca;" horiz-adv-x="676" 
d="M633 182v-182h-598v92l76 12v520l-74 12v91h575v-181h-108l-20 74h-203v-198h222v-106h-222v-209h224l20 75h108zM444 939l88 -146h-132l-61 82l-61 -82h-128l88 146h206z" />
    <glyph glyph-name="Edieresis" unicode="&#xcb;" horiz-adv-x="676" 
d="M633 182v-182h-598v92l76 12v520l-74 12v91h575v-181h-108l-20 74h-203v-198h222v-106h-222v-209h224l20 75h108zM306 939v-146h-145v146h145zM522 939v-146h-145v146h145z" />
    <glyph glyph-name="Igrave" unicode="&#xcc;" horiz-adv-x="392" 
d="M357 0h-322v92l76 12v520l-74 12v91h318v-91l-74 -12v-520l76 -12v-92zM273 793h-132l-123 146h177z" />
    <glyph glyph-name="Iacute" unicode="&#xcd;" horiz-adv-x="392" 
d="M357 0h-322v92l76 12v520l-74 12v91h318v-91l-74 -12v-520l76 -12v-92zM240 793h-132l78 146h177z" />
    <glyph glyph-name="Icircumflex" unicode="&#xce;" horiz-adv-x="392" 
d="M357 0h-322v92l76 12v520l-74 12v91h318v-91l-74 -12v-520l76 -12v-92zM299 939l88 -146h-132l-61 82l-61 -82h-128l88 146h206z" />
    <glyph glyph-name="Idieresis" unicode="&#xcf;" horiz-adv-x="392" 
d="M357 0h-322v92l76 12v520l-74 12v91h318v-91l-74 -12v-520l76 -12v-92zM161 939v-146h-145v146h145zM377 939v-146h-145v146h145z" />
    <glyph glyph-name="Eth" unicode="&#xd0;" horiz-adv-x="838" 
d="M45 316v106h86v202l-74 12v91h349q177 0 288 -92.5t111 -262.5q0 -171 -110 -271.5t-316 -100.5h-324v92l76 12v212h-86zM301 107h89q117 0 176 70t59 186q0 122 -62.5 189.5t-172.5 67.5h-89v-198h154v-106h-154v-209z" />
    <glyph glyph-name="Ntilde" unicode="&#xd1;" horiz-adv-x="872" 
d="M761 0h-189q-28 0 -42.5 9t-24.5 33l-258 569v-507l76 -12v-92h-288v92l76 12v520l-74 12v91h294q27 0 41.5 -9t24.5 -33l228 -511v449l-76 12v92h288v-92l-76 -12v-623zM558 943l63 -65q-37 -89 -118 -89q-35 0 -78 20t-60 20q-30 0 -51 -40l-63 65q37 89 118 89
q35 0 78 -20t60 -20q30 0 51 40z" />
    <glyph glyph-name="Ograve" unicode="&#xd2;" horiz-adv-x="850" 
d="M812 370q0 -181 -107.5 -283.5t-285.5 -102.5q-182 0 -281.5 96t-99.5 277t107.5 283.5t285.5 102.5q182 0 281.5 -96t99.5 -277zM632 363q0 133 -52.5 201t-154.5 68q-207 0 -207 -268q0 -133 52.5 -201t154.5 -68q207 0 207 268zM492 793h-132l-123 146h177z" />
    <glyph glyph-name="Oacute" unicode="&#xd3;" horiz-adv-x="850" 
d="M812 370q0 -181 -107.5 -283.5t-285.5 -102.5q-182 0 -281.5 96t-99.5 277t107.5 283.5t285.5 102.5q182 0 281.5 -96t99.5 -277zM632 363q0 133 -52.5 201t-154.5 68q-207 0 -207 -268q0 -133 52.5 -201t154.5 -68q207 0 207 268zM469 793h-132l78 146h177z" />
    <glyph glyph-name="Ocircumflex" unicode="&#xd4;" horiz-adv-x="850" 
d="M812 370q0 -181 -107.5 -283.5t-285.5 -102.5q-182 0 -281.5 96t-99.5 277t107.5 283.5t285.5 102.5q182 0 281.5 -96t99.5 -277zM632 363q0 133 -52.5 201t-154.5 68q-207 0 -207 -268q0 -133 52.5 -201t154.5 -68q207 0 207 268zM528 939l88 -146h-132l-61 82l-61 -82
h-128l88 146h206z" />
    <glyph glyph-name="Otilde" unicode="&#xd5;" horiz-adv-x="850" 
d="M812 370q0 -181 -107.5 -283.5t-285.5 -102.5q-182 0 -281.5 96t-99.5 277t107.5 283.5t285.5 102.5q182 0 281.5 -96t99.5 -277zM632 363q0 133 -52.5 201t-154.5 68q-207 0 -207 -268q0 -133 52.5 -201t154.5 -68q207 0 207 268zM547 943l63 -65q-37 -89 -118 -89
q-36 0 -78 20t-60 20q-30 0 -51 -40l-63 65q37 89 118 89q36 0 78 -20t60 -20q30 0 51 40z" />
    <glyph glyph-name="Odieresis" unicode="&#xd6;" horiz-adv-x="850" 
d="M812 370q0 -181 -107.5 -283.5t-285.5 -102.5q-182 0 -281.5 96t-99.5 277t107.5 283.5t285.5 102.5q182 0 281.5 -96t99.5 -277zM632 363q0 133 -52.5 201t-154.5 68q-207 0 -207 -268q0 -133 52.5 -201t154.5 -68q207 0 207 268zM389 939v-146h-145v146h145zM605 939
v-146h-145v146h145z" />
    <glyph glyph-name="multiply" unicode="&#xd7;" 
d="M525 188l-88 -88l-137 137l-137 -137l-88 88l137 137l-137 137l88 88l137 -137l137 137l88 -88l-137 -137z" />
    <glyph glyph-name="Oslash" unicode="&#xd8;" horiz-adv-x="850" 
d="M208 -116l-113 61l68 112q-125 96 -125 300q0 181 107.5 283.5t285.5 102.5q78 0 139 -18l72 119l113 -62l-69 -113q126 -96 126 -299q0 -181 -107.5 -283.5t-285.5 -102.5q-75 0 -140 17zM603 534l-259 -426q35 -13 81 -13q207 0 207 268q0 97 -29 171zM248 193l259 426
q-33 13 -82 13q-207 0 -207 -268q0 -90 30 -171z" />
    <glyph glyph-name="Ugrave" unicode="&#xd9;" horiz-adv-x="840" 
d="M811 727v-91l-64 -12v-332q0 -145 -84 -226.5t-247 -81.5q-157 0 -240 74t-83 210v356l-64 12v91h308v-91l-74 -12v-333q0 -188 158 -188q156 0 156 190v331l-74 12v91h308zM498 793h-132l-123 146h177z" />
    <glyph glyph-name="Uacute" unicode="&#xda;" horiz-adv-x="840" 
d="M811 727v-91l-64 -12v-332q0 -145 -84 -226.5t-247 -81.5q-157 0 -240 74t-83 210v356l-64 12v91h308v-91l-74 -12v-333q0 -188 158 -188q156 0 156 190v331l-74 12v91h308zM475 793h-132l78 146h177z" />
    <glyph glyph-name="Ucircumflex" unicode="&#xdb;" horiz-adv-x="840" 
d="M811 727v-91l-64 -12v-332q0 -145 -84 -226.5t-247 -81.5q-157 0 -240 74t-83 210v356l-64 12v91h308v-91l-74 -12v-333q0 -188 158 -188q156 0 156 190v331l-74 12v91h308zM524 939l88 -146h-132l-61 82l-61 -82h-128l88 146h206z" />
    <glyph glyph-name="Udieresis" unicode="&#xdc;" horiz-adv-x="840" 
d="M811 727v-91l-64 -12v-332q0 -145 -84 -226.5t-247 -81.5q-157 0 -240 74t-83 210v356l-64 12v91h308v-91l-74 -12v-333q0 -188 158 -188q156 0 156 190v331l-74 12v91h308zM385 939v-146h-145v146h145zM601 939v-146h-145v146h145z" />
    <glyph glyph-name="Yacute" unicode="&#xdd;" horiz-adv-x="708" 
d="M439 105l86 -13v-92h-342v92l86 13v161l-216 358l-38 12v91h295v-88l-58 -14l128 -234h4l135 233l-60 12v91h234v-91l-38 -12l-216 -358v-161zM418 793h-132l78 146h177z" />
    <glyph glyph-name="Thorn" unicode="&#xde;" horiz-adv-x="718" 
d="M355 727v-91l-74 -12v-33h126q148 0 217 -50.5t69 -166.5q0 -50 -15.5 -88.5t-51.5 -70.5t-103 -49t-163 -17h-79v-45l76 -12v-92h-322v92l76 12v520l-74 12v91h318zM281 488v-236h88q152 0 152 113q0 68 -35 95.5t-116 27.5h-89z" />
    <glyph glyph-name="germandbls" unicode="&#xdf;" horiz-adv-x="684" 
d="M252 0h-221v90l56 12v309h-70v94l70 10v48q0 111 61 168.5t201 57.5q115 0 180 -44.5t65 -117.5q0 -45 -18.5 -79t-40 -50t-40 -38.5t-18.5 -47.5q0 -27 20 -49t48.5 -40t57 -39t48.5 -55t20 -78q0 -75 -55.5 -120t-153.5 -45q-101 0 -167 43l61 105q44 -44 91 -44
q26 0 41 13.5t15 37.5q0 27 -19.5 49t-47.5 39t-56 37t-47.5 52t-19.5 73q0 35 11 62.5t27 44.5t32 32t27 34t11 42q0 39 -22.5 59t-56.5 20q-44 0 -67 -27.5t-23 -92.5v-565z" />
    <glyph glyph-name="agrave" unicode="&#xe0;" horiz-adv-x="673" 
d="M419 132v251q-41 30 -92 30q-62 0 -93 -42.5t-31 -113.5t31.5 -113t92.5 -42q50 0 92 30zM471 515h169v-92l-56 -9v-313l56 -9v-92h-169l-21 43q-73 -57 -168 -57q-47 0 -89.5 14.5t-79 45t-58.5 84t-22 124.5q0 127 76 201t188 74q92 0 155 -53zM420 581h-132l-123 146
h177z" />
    <glyph glyph-name="aacute" unicode="&#xe1;" horiz-adv-x="673" 
d="M419 132v251q-41 30 -92 30q-62 0 -93 -42.5t-31 -113.5t31.5 -113t92.5 -42q50 0 92 30zM471 515h169v-92l-56 -9v-313l56 -9v-92h-169l-21 43q-73 -57 -168 -57q-47 0 -89.5 14.5t-79 45t-58.5 84t-22 124.5q0 127 76 201t188 74q92 0 155 -53zM377 581h-132l78 146
h177z" />
    <glyph glyph-name="acircumflex" unicode="&#xe2;" horiz-adv-x="673" 
d="M419 132v251q-41 30 -92 30q-62 0 -93 -42.5t-31 -113.5t31.5 -113t92.5 -42q50 0 92 30zM471 515h169v-92l-56 -9v-313l56 -9v-92h-169l-21 43q-73 -57 -168 -57q-47 0 -89.5 14.5t-79 45t-58.5 84t-22 124.5q0 127 76 201t188 74q92 0 155 -53zM435 727l88 -146h-132
l-61 82l-61 -82h-128l88 146h206z" />
    <glyph glyph-name="atilde" unicode="&#xe3;" horiz-adv-x="673" 
d="M419 132v251q-41 30 -92 30q-62 0 -93 -42.5t-31 -113.5t31.5 -113t92.5 -42q50 0 92 30zM471 515h169v-92l-56 -9v-313l56 -9v-92h-169l-21 43q-73 -57 -168 -57q-47 0 -89.5 14.5t-79 45t-58.5 84t-22 124.5q0 127 76 201t188 74q92 0 155 -53zM454 731l63 -65
q-37 -89 -118 -89q-35 0 -78 20t-60 20q-30 0 -51 -40l-63 65q37 89 118 89q35 0 78 -20t60 -20q30 0 51 40z" />
    <glyph glyph-name="adieresis" unicode="&#xe4;" horiz-adv-x="673" 
d="M419 132v251q-41 30 -92 30q-62 0 -93 -42.5t-31 -113.5t31.5 -113t92.5 -42q50 0 92 30zM471 515h169v-92l-56 -9v-313l56 -9v-92h-169l-21 43q-73 -57 -168 -57q-47 0 -89.5 14.5t-79 45t-58.5 84t-22 124.5q0 127 76 201t188 74q92 0 155 -53zM297 727v-146h-145v146
h145zM513 727v-146h-145v146h145z" />
    <glyph glyph-name="aring" unicode="&#xe5;" horiz-adv-x="673" 
d="M419 132v251q-41 30 -92 30q-62 0 -93 -42.5t-31 -113.5t31.5 -113t92.5 -42q50 0 92 30zM471 515h169v-92l-56 -9v-313l56 -9v-92h-169l-21 43q-73 -57 -168 -57q-47 0 -89.5 14.5t-79 45t-58.5 84t-22 124.5q0 127 76 201t188 74q92 0 155 -53zM333 814
q74 0 116.5 -30.5t42.5 -87.5q0 -55 -44.5 -88t-116.5 -33q-74 0 -116.5 30.5t-42.5 87.5q0 55 44.5 88t116.5 33zM332 641q25 0 39.5 14t14.5 39q0 26 -14 40t-40 14q-25 0 -39.5 -14t-14.5 -39t14 -39.5t40 -14.5z" />
    <glyph glyph-name="ae" unicode="&#xe6;" horiz-adv-x="915" 
d="M846 153l42 -73q-42 -44 -107.5 -69t-135.5 -25q-139 0 -208 75q-35 -33 -91 -54t-117 -21q-100 0 -149 47t-49 116q0 77 68 118.5t228 41.5h47v16q0 90 -89 90q-76 0 -145 -57l-67 116q104 55 226 55q137 0 179 -58q23 27 71.5 42.5t104.5 15.5q104 0 166 -46.5
t62 -118.5q0 -84 -80.5 -121t-266.5 -36q19 -109 140 -109q91 0 171 55zM643 417q-38 0 -68.5 -27t-40.5 -85q104 0 141 9.5t37 44.5q0 24 -18 41t-51 17zM374 211h-52q-121 0 -121 -58q0 -52 70 -52q60 0 114 45q-11 31 -11 65z" />
    <glyph glyph-name="ccedilla" unicode="&#xe7;" horiz-adv-x="526" 
d="M136 -212v109q31 -4 60 -4q47 0 47 36q0 26 -15 65q-94 20 -144.5 86.5t-50.5 173.5q0 127 80 201t212 74q105 0 180 -40l-73 -126q-19 23 -51.5 37t-63.5 14q-52 0 -83 -39t-31 -118q0 -156 133 -156q73 0 137 53l48 -83q-59 -66 -164 -81q25 -39 25 -85
q0 -121 -190 -121q-25 0 -56 4z" />
    <glyph glyph-name="egrave" unicode="&#xe8;" horiz-adv-x="580" 
d="M511 153l42 -73q-42 -44 -107.5 -69t-135.5 -25q-130 0 -203.5 68.5t-73.5 197.5q0 125 77.5 201t208.5 76q104 0 166 -46.5t62 -118.5q0 -86 -81 -130.5t-262 -44.5q26 -91 136 -91q91 0 171 55zM397 581h-132l-123 146h177zM308 417q-44 0 -74 -34t-37 -96
q95 -1 137.5 16.5t42.5 55.5q0 24 -18 41t-51 17z" />
    <glyph glyph-name="eacute" unicode="&#xe9;" horiz-adv-x="580" 
d="M511 153l42 -73q-42 -44 -107.5 -69t-135.5 -25q-130 0 -203.5 68.5t-73.5 197.5q0 125 77.5 201t208.5 76q104 0 166 -46.5t62 -118.5q0 -86 -81 -130.5t-262 -44.5q26 -91 136 -91q91 0 171 55zM354 581h-132l78 146h177zM308 417q-44 0 -74 -34t-37 -96
q95 -1 137.5 16.5t42.5 55.5q0 24 -18 41t-51 17z" />
    <glyph glyph-name="ecircumflex" unicode="&#xea;" horiz-adv-x="580" 
d="M511 153l42 -73q-42 -44 -107.5 -69t-135.5 -25q-130 0 -203.5 68.5t-73.5 197.5q0 125 77.5 201t208.5 76q104 0 166 -46.5t62 -118.5q0 -86 -81 -130.5t-262 -44.5q26 -91 136 -91q91 0 171 55zM393 727l88 -146h-132l-61 82l-61 -82h-128l88 146h206zM308 417
q-44 0 -74 -34t-37 -96q95 -1 137.5 16.5t42.5 55.5q0 24 -18 41t-51 17z" />
    <glyph glyph-name="edieresis" unicode="&#xeb;" horiz-adv-x="580" 
d="M511 153l42 -73q-42 -44 -107.5 -69t-135.5 -25q-130 0 -203.5 68.5t-73.5 197.5q0 125 77.5 201t208.5 76q104 0 166 -46.5t62 -118.5q0 -86 -81 -130.5t-262 -44.5q26 -91 136 -91q91 0 171 55zM470 727v-146h-145v146h145zM254 727v-146h-145v146h145zM308 417
q-44 0 -74 -34t-37 -96q95 -1 137.5 16.5t42.5 55.5q0 24 -18 41t-51 17z" />
    <glyph glyph-name="igrave" unicode="&#xec;" horiz-adv-x="315" 
d="M296 92v-92h-221v414l-56 9v92h162q36 0 47.5 -13t11.5 -44v-357zM240 581h-132l-123 146h177z" />
    <glyph glyph-name="iacute" unicode="&#xed;" horiz-adv-x="315" 
d="M296 92v-92h-221v414l-56 9v92h162q36 0 47.5 -13t11.5 -44v-357zM192 581h-132l78 146h177z" />
    <glyph glyph-name="icircumflex" unicode="&#xee;" horiz-adv-x="315" 
d="M296 92v-92h-221v414l-56 9v92h162q36 0 47.5 -13t11.5 -44v-357zM261 727l88 -146h-132l-61 82l-61 -82h-128l88 146h206z" />
    <glyph glyph-name="idieresis" unicode="&#xef;" horiz-adv-x="315" 
d="M296 92v-92h-221v414l-56 9v92h162q36 0 47.5 -13t11.5 -44v-357zM132 727v-146h-143v146h143zM326 727v-146h-143v146h143z" />
    <glyph glyph-name="eth" unicode="&#xf0;" horiz-adv-x="638" 
d="M534 686l-94 -36l5 -5q76 -88 116.5 -177t40.5 -197q0 -138 -78.5 -211.5t-208.5 -73.5q-133 0 -207.5 67t-74.5 201q0 127 76 198.5t189 71.5q49 0 88 -24l1 2q-61 46 -78 66l-21 23l-130 -50l-51 88l111 43l-93 107h203l42 -49l113 44zM319 100q117 0 117 158
q0 157 -117 157t-117 -158q0 -157 117 -157z" />
    <glyph glyph-name="ntilde" unicode="&#xf1;" horiz-adv-x="642" 
d="M623 92v-92h-217v315q0 51 -17 70t-57 19q-45 0 -92 -31v-272l56 -9v-92h-221v414l-56 9v92h180l21 -43q81 57 169 57q101 0 141.5 -47.5t40.5 -142.5v-238zM445 731l63 -65q-37 -89 -118 -89q-36 0 -78 20t-60 20q-30 0 -51 -40l-63 65q37 89 118 89q36 0 78 -20t60 -20
q30 0 51 40z" />
    <glyph glyph-name="ograve" unicode="&#xf2;" horiz-adv-x="638" 
d="M323 529q133 0 207.5 -67t74.5 -201q0 -129 -80.5 -202t-209.5 -73q-133 0 -207.5 67t-74.5 201q0 129 80.5 202t209.5 73zM319 100q117 0 117 158q0 157 -117 157t-117 -158q0 -157 117 -157zM397 581h-132l-123 146h177z" />
    <glyph glyph-name="oacute" unicode="&#xf3;" horiz-adv-x="638" 
d="M323 529q133 0 207.5 -67t74.5 -201q0 -129 -80.5 -202t-209.5 -73q-133 0 -207.5 67t-74.5 201q0 129 80.5 202t209.5 73zM319 100q117 0 117 158q0 157 -117 157t-117 -158q0 -157 117 -157zM373 581h-132l78 146h177z" />
    <glyph glyph-name="ocircumflex" unicode="&#xf4;" horiz-adv-x="638" 
d="M323 529q133 0 207.5 -67t74.5 -201q0 -129 -80.5 -202t-209.5 -73q-133 0 -207.5 67t-74.5 201q0 129 80.5 202t209.5 73zM319 100q117 0 117 158q0 157 -117 157t-117 -158q0 -157 117 -157zM422 727l88 -146h-132l-61 82l-61 -82h-128l88 146h206z" />
    <glyph glyph-name="otilde" unicode="&#xf5;" horiz-adv-x="638" 
d="M323 529q133 0 207.5 -67t74.5 -201q0 -129 -80.5 -202t-209.5 -73q-133 0 -207.5 67t-74.5 201q0 129 80.5 202t209.5 73zM319 100q117 0 117 158q0 157 -117 157t-117 -158q0 -157 117 -157zM441 731l63 -65q-37 -89 -118 -89q-36 0 -78 20t-60 20q-30 0 -51 -40
l-63 65q37 89 118 89q36 0 78 -20t60 -20q30 0 51 40z" />
    <glyph glyph-name="odieresis" unicode="&#xf6;" horiz-adv-x="638" 
d="M323 529q133 0 207.5 -67t74.5 -201q0 -129 -80.5 -202t-209.5 -73q-133 0 -207.5 67t-74.5 201q0 129 80.5 202t209.5 73zM319 100q117 0 117 158q0 157 -117 157t-117 -158q0 -157 117 -157zM284 727v-146h-145v146h145zM500 727v-146h-145v146h145z" />
    <glyph glyph-name="divide" unicode="&#xf7;" 
d="M235 442v120h130v-120h-130zM540 266h-480v118h480v-118zM365 84h-130v120h130v-120z" />
    <glyph glyph-name="oslash" unicode="&#xf8;" horiz-adv-x="638" 
d="M572 575l-59 -99q92 -68 92 -215q0 -129 -80.5 -202t-209.5 -73q-49 0 -91 9l-65 -108l-93 53l59 98q-92 69 -92 216q0 129 80.5 202t209.5 73q49 0 91 -9l65 108zM206 170l146 247q-13 4 -33 4q-62 0 -93.5 -43t-31.5 -121q0 -47 12 -87zM432 345l-147 -248q16 -3 34 -3
q62 0 93.5 43.5t31.5 120.5q0 46 -12 87z" />
    <glyph glyph-name="ugrave" unicode="&#xf9;" horiz-adv-x="642" 
d="M623 92v-92h-180l-21 43q-81 -57 -169 -57q-101 0 -141.5 47.5t-40.5 142.5v238l-52 9v92h158q36 0 47.5 -13t11.5 -44v-258q0 -51 17 -70t57 -19q45 0 92 31v272l-56 9v92h162q36 0 47.5 -13t11.5 -44v-357zM388 581h-132l-123 146h177z" />
    <glyph glyph-name="uacute" unicode="&#xfa;" horiz-adv-x="642" 
d="M623 92v-92h-180l-21 43q-81 -57 -169 -57q-101 0 -141.5 47.5t-40.5 142.5v238l-52 9v92h158q36 0 47.5 -13t11.5 -44v-258q0 -51 17 -70t57 -19q45 0 92 31v272l-56 9v92h162q36 0 47.5 -13t11.5 -44v-357zM370 581h-132l78 146h177z" />
    <glyph glyph-name="ucircumflex" unicode="&#xfb;" horiz-adv-x="642" 
d="M623 92v-92h-180l-21 43q-81 -57 -169 -57q-101 0 -141.5 47.5t-40.5 142.5v238l-52 9v92h158q36 0 47.5 -13t11.5 -44v-258q0 -51 17 -70t57 -19q45 0 92 31v272l-56 9v92h162q36 0 47.5 -13t11.5 -44v-357zM426 727l88 -146h-132l-61 82l-61 -82h-128l88 146h206z" />
    <glyph glyph-name="udieresis" unicode="&#xfc;" horiz-adv-x="642" 
d="M623 92v-92h-180l-21 43q-81 -57 -169 -57q-101 0 -141.5 47.5t-40.5 142.5v238l-52 9v92h158q36 0 47.5 -13t11.5 -44v-258q0 -51 17 -70t57 -19q45 0 92 31v272l-56 9v92h162q36 0 47.5 -13t11.5 -44v-357zM287 727v-146h-145v146h145zM503 727v-146h-145v146h145z" />
    <glyph glyph-name="yacute" unicode="&#xfd;" horiz-adv-x="628" 
d="M346 423v92h162q36 0 47.5 -13t11.5 -44v-458q0 -100 -63.5 -161.5t-178.5 -61.5q-124 0 -211 51l62 108q60 -53 128 -53q52 0 75 29t23 92v28q-65 -46 -149 -46q-101 0 -141.5 47.5t-40.5 142.5v238l-52 9v92h158q36 0 47.5 -13t11.5 -44v-258q0 -51 17 -70t57 -19
q45 0 92 31v272zM370 581h-132l78 146h177z" />
    <glyph glyph-name="thorn" unicode="&#xfe;" horiz-adv-x="645" 
d="M226 16v-127l56 -9v-92h-162q-36 0 -47.5 13t-11.5 44v833l-56 9v92h162q36 0 47.5 -13t11.5 -44v-229q62 36 137 36q47 0 89.5 -14.5t79 -45t58.5 -84t22 -124.5q0 -127 -76 -201t-188 -74q-66 0 -122 30zM226 383v-251q41 -30 92 -30q62 0 93 42.5t31 113.5t-31.5 113
t-92.5 42q-50 0 -92 -30z" />
    <glyph glyph-name="ydieresis" unicode="&#xff;" horiz-adv-x="628" 
d="M346 423v92h162q36 0 47.5 -13t11.5 -44v-458q0 -100 -63.5 -161.5t-178.5 -61.5q-124 0 -211 51l62 108q60 -53 128 -53q52 0 75 29t23 92v28q-65 -46 -149 -46q-101 0 -141.5 47.5t-40.5 142.5v238l-52 9v92h158q36 0 47.5 -13t11.5 -44v-258q0 -51 17 -70t57 -19
q45 0 92 31v272zM280 727v-146h-145v146h145zM496 727v-146h-145v146h145z" />
    <glyph glyph-name="Amacron" unicode="&#x100;" horiz-adv-x="815" 
d="M800 92v-92h-307v92l77 12l-37 101h-295l-37 -101l62 -12v-92h-248v92l43 12l200 520l-74 12v91h273q39 0 53.5 -9t25.5 -38l222 -576zM276 310h219l-109 304zM216 807v104h340v-104h-340z" />
    <glyph glyph-name="amacron" unicode="&#x101;" horiz-adv-x="673" 
d="M419 132v251q-41 30 -92 30q-62 0 -93 -42.5t-31 -113.5t31.5 -113t92.5 -42q50 0 92 30zM471 515h169v-92l-56 -9v-313l56 -9v-92h-169l-21 43q-73 -57 -168 -57q-47 0 -89.5 14.5t-79 45t-58.5 84t-22 124.5q0 127 76 201t188 74q92 0 155 -53zM162 595v104h340v-104
h-340z" />
    <glyph glyph-name="Abreve" unicode="&#x102;" horiz-adv-x="815" 
d="M800 92v-92h-307v92l77 12l-37 101h-295l-37 -101l62 -12v-92h-248v92l43 12l200 520l-74 12v91h273q39 0 53.5 -9t25.5 -38l222 -576zM276 310h219l-109 304zM460 939h100q-5 -72 -50 -112t-124 -40t-123 40t-49 112h100q6 -55 74 -55q66 0 72 55z" />
    <glyph glyph-name="abreve" unicode="&#x103;" horiz-adv-x="673" 
d="M419 132v251q-41 30 -92 30q-62 0 -93 -42.5t-31 -113.5t31.5 -113t92.5 -42q50 0 92 30zM471 515h169v-92l-56 -9v-313l56 -9v-92h-169l-21 43q-73 -57 -168 -57q-47 0 -89.5 14.5t-79 45t-58.5 84t-22 124.5q0 127 76 201t188 74q92 0 155 -53zM405 727h100
q-5 -72 -50 -112t-124 -40t-123 40t-49 112h100q6 -55 74 -55q66 0 72 55z" />
    <glyph glyph-name="Aogonek" unicode="&#x104;" horiz-adv-x="815" 
d="M800 92v-86q-60 -9 -100.5 -39t-40.5 -61q0 -32 41 -32q30 0 66 10l13 -85q-57 -22 -113 -22q-145 0 -145 109q0 73 77 114h-105v92l77 12l-37 101h-295l-37 -101l62 -12v-92h-248v92l43 12l200 520l-74 12v91h273q39 0 53.5 -9t25.5 -38l222 -576zM276 310h219l-109 304
z" />
    <glyph glyph-name="aogonek" unicode="&#x105;" horiz-adv-x="673" 
d="M638 -116l13 -85q-57 -22 -113 -22q-145 0 -145 109q0 73 77 114l-20 43q-73 -57 -168 -57q-47 0 -89.5 14.5t-79 45t-58.5 84t-22 124.5q0 127 76 201t188 74q92 0 155 -53l19 39h169v-92l-56 -9v-313l56 -9v-89q-109 -44 -109 -97q0 -32 41 -32q30 0 66 10zM419 132
v251q-41 30 -92 30q-62 0 -93 -42.5t-31 -113.5t31.5 -113t92.5 -42q50 0 92 30z" />
    <glyph glyph-name="Cacute" unicode="&#x106;" horiz-adv-x="725" 
d="M652 185l51 -88q-118 -113 -283 -113q-171 0 -276 101t-105 274q0 78 24 145.5t71 121.5t124 85.5t176 31.5q131 0 247 -54l-81 -140q-72 69 -174 69q-99 0 -152 -71t-53 -182q0 -123 60.5 -189t173.5 -66q96 0 197 75zM477 793h-132l78 146h177z" />
    <glyph glyph-name="cacute" unicode="&#x107;" horiz-adv-x="526" 
d="M473 154l48 -83q-35 -38 -93 -61.5t-122 -23.5q-129 0 -201 70.5t-72 197.5t80 201t212 74q105 0 180 -40l-73 -126q-19 23 -51.5 37t-63.5 14q-52 0 -83 -39t-31 -118q0 -156 133 -156q73 0 137 53zM358 581h-132l78 146h177z" />
    <glyph glyph-name="Ccircumflex" unicode="&#x108;" horiz-adv-x="725" 
d="M652 185l51 -88q-118 -113 -283 -113q-171 0 -276 101t-105 274q0 78 24 145.5t71 121.5t124 85.5t176 31.5q131 0 247 -54l-81 -140q-72 69 -174 69q-99 0 -152 -71t-53 -182q0 -123 60.5 -189t173.5 -66q96 0 197 75zM514 939l88 -146h-132l-61 82l-61 -82h-128l88 146
h206z" />
    <glyph glyph-name="ccircumflex" unicode="&#x109;" horiz-adv-x="526" 
d="M473 154l48 -83q-35 -38 -93 -61.5t-122 -23.5q-129 0 -201 70.5t-72 197.5t80 201t212 74q105 0 180 -40l-73 -126q-19 23 -51.5 37t-63.5 14q-52 0 -83 -39t-31 -118q0 -156 133 -156q73 0 137 53zM399 727l88 -146h-132l-61 82l-61 -82h-128l88 146h206z" />
    <glyph glyph-name="Cdotaccent" unicode="&#x10a;" horiz-adv-x="725" 
d="M652 185l51 -88q-118 -113 -283 -113q-171 0 -276 101t-105 274q0 78 24 145.5t71 121.5t124 85.5t176 31.5q131 0 247 -54l-81 -140q-72 69 -174 69q-99 0 -152 -71t-53 -182q0 -123 60.5 -189t173.5 -66q96 0 197 75zM492 939v-146h-165v146h165z" />
    <glyph glyph-name="cdotaccent" unicode="&#x10b;" horiz-adv-x="526" 
d="M473 154l48 -83q-35 -38 -93 -61.5t-122 -23.5q-129 0 -201 70.5t-72 197.5t80 201t212 74q105 0 180 -40l-73 -126q-19 23 -51.5 37t-63.5 14q-52 0 -83 -39t-31 -118q0 -156 133 -156q73 0 137 53zM377 727v-146h-165v146h165z" />
    <glyph glyph-name="Ccaron" unicode="&#x10c;" horiz-adv-x="725" 
d="M652 185l51 -88q-118 -113 -283 -113q-171 0 -276 101t-105 274q0 78 24 145.5t71 121.5t124 85.5t176 31.5q131 0 247 -54l-81 -140q-72 69 -174 69q-99 0 -152 -71t-53 -182q0 -123 60.5 -189t173.5 -66q96 0 197 75zM306 793l-88 146h132l61 -82l61 82h128l-88 -146
h-206z" />
    <glyph glyph-name="ccaron" unicode="&#x10d;" horiz-adv-x="526" 
d="M473 154l48 -83q-35 -38 -93 -61.5t-122 -23.5q-129 0 -201 70.5t-72 197.5t80 201t212 74q105 0 180 -40l-73 -126q-19 23 -51.5 37t-63.5 14q-52 0 -83 -39t-31 -118q0 -156 133 -156q73 0 137 53zM201 581l-88 146h132l61 -82l61 82h128l-88 -146h-206z" />
    <glyph glyph-name="Dcaron" unicode="&#x10e;" horiz-adv-x="818" 
d="M35 0v92l76 12v520l-74 12v91h349q177 0 288 -92.5t111 -262.5q0 -171 -110 -271.5t-316 -100.5h-324zM281 107h89q117 0 176 70t59 186q0 122 -62.5 189.5t-172.5 67.5h-89v-513zM286 793l-88 146h132l61 -82l61 82h128l-88 -146h-206z" />
    <glyph glyph-name="dcaron" unicode="&#x10f;" horiz-adv-x="669" 
d="M584 101l56 -9v-92h-169l-21 43q-73 -57 -168 -57q-47 0 -89.5 14.5t-79 45t-58.5 84t-22 124.5q0 127 76 201t188 74q73 0 122 -30v179l-56 9v92h162q36 0 47.5 -13t11.5 -44v-621zM419 132v251q-41 30 -92 30q-62 0 -93 -42.5t-31 -113.5t31.5 -113t92.5 -42
q50 0 92 30zM705 647h-102l31 142h147z" />
    <glyph glyph-name="Dcroat" unicode="&#x110;" horiz-adv-x="838" 
d="M45 316v106h86v202l-74 12v91h349q177 0 288 -92.5t111 -262.5q0 -171 -110 -271.5t-316 -100.5h-324v92l76 12v212h-86zM301 107h89q117 0 176 70t59 186q0 122 -62.5 189.5t-172.5 67.5h-89v-198h154v-106h-154v-209z" />
    <glyph glyph-name="dcroat" unicode="&#x111;" horiz-adv-x="659" 
d="M640 92v-92h-169l-21 43q-73 -57 -168 -57q-47 0 -89.5 14.5t-79 45t-58.5 84t-22 124.5q0 127 76 201t188 74q73 0 122 -30v59h-132v100h132v32l-56 9v90h162q36 0 47.5 -13t11.5 -44v-74h56v-100h-56v-457zM419 132v251q-41 30 -92 30q-62 0 -93 -42.5t-31 -113.5
t31.5 -113t92.5 -42q50 0 92 30z" />
    <glyph glyph-name="Emacron" unicode="&#x112;" horiz-adv-x="676" 
d="M633 182v-182h-598v92l76 12v520l-74 12v91h575v-181h-108l-20 74h-203v-198h222v-106h-222v-209h224l20 75h108zM168 807v104h340v-104h-340z" />
    <glyph glyph-name="emacron" unicode="&#x113;" horiz-adv-x="580" 
d="M511 153l42 -73q-42 -44 -107.5 -69t-135.5 -25q-130 0 -203.5 68.5t-73.5 197.5q0 125 77.5 201t208.5 76q104 0 166 -46.5t62 -118.5q0 -86 -81 -130.5t-262 -44.5q26 -91 136 -91q91 0 171 55zM136 595v104h340v-104h-340zM308 417q-44 0 -74 -34t-37 -96
q95 -1 137.5 16.5t42.5 55.5q0 24 -18 41t-51 17z" />
    <glyph glyph-name="Edotaccent" unicode="&#x116;" horiz-adv-x="676" 
d="M633 182v-182h-598v92l76 12v520l-74 12v91h575v-181h-108l-20 74h-203v-198h222v-106h-222v-209h224l20 75h108zM420 939v-146h-165v146h165z" />
    <glyph glyph-name="edotaccent" unicode="&#x117;" horiz-adv-x="580" 
d="M511 153l42 -73q-42 -44 -107.5 -69t-135.5 -25q-130 0 -203.5 68.5t-73.5 197.5q0 125 77.5 201t208.5 76q104 0 166 -46.5t62 -118.5q0 -86 -81 -130.5t-262 -44.5q26 -91 136 -91q91 0 171 55zM383 727v-146h-165v146h165zM308 417q-44 0 -74 -34t-37 -96
q95 -1 137.5 16.5t42.5 55.5q0 24 -18 41t-51 17z" />
    <glyph glyph-name="Eogonek" unicode="&#x118;" horiz-adv-x="676" 
d="M633 182v-175q-115 -49 -115 -101q0 -32 41 -32q30 0 66 10l13 -85q-57 -22 -113 -22q-145 0 -145 109q0 73 77 114h-422v92l76 12v520l-74 12v91h575v-181h-108l-20 74h-203v-198h222v-106h-222v-209h224l20 75h108z" />
    <glyph glyph-name="eogonek" unicode="&#x119;" horiz-adv-x="580" 
d="M491 -116l13 -85q-57 -22 -113 -22q-145 0 -145 109q0 66 64 105q-6 -2 -14 -2q-121 0 -192 68t-71 195q0 125 77.5 201t208.5 76q104 0 166 -46.5t62 -118.5q0 -86 -81 -130.5t-262 -44.5q26 -91 136 -91q91 0 171 55l42 -73q-18 -19 -65 -55t-75.5 -65t-28.5 -54
q0 -32 41 -32q30 0 66 10zM308 417q-44 0 -74 -34t-37 -96q95 -1 137.5 16.5t42.5 55.5q0 24 -18 41t-51 17z" />
    <glyph glyph-name="Ecaron" unicode="&#x11a;" horiz-adv-x="676" 
d="M633 182v-182h-598v92l76 12v520l-74 12v91h575v-181h-108l-20 74h-203v-198h222v-106h-222v-209h224l20 75h108zM235 793l-88 146h132l61 -82l61 82h128l-88 -146h-206z" />
    <glyph glyph-name="ecaron" unicode="&#x11b;" horiz-adv-x="580" 
d="M511 153l42 -73q-42 -44 -107.5 -69t-135.5 -25q-130 0 -203.5 68.5t-73.5 197.5q0 125 77.5 201t208.5 76q104 0 166 -46.5t62 -118.5q0 -86 -81 -130.5t-262 -44.5q26 -91 136 -91q91 0 171 55zM197 581l-88 146h132l61 -82l61 82h128l-88 -146h-206zM308 417
q-44 0 -74 -34t-37 -96q95 -1 137.5 16.5t42.5 55.5q0 24 -18 41t-51 17z" />
    <glyph glyph-name="Gcircumflex" unicode="&#x11c;" horiz-adv-x="800" 
d="M732 0h-114l-14 36q-77 -52 -190 -52q-166 0 -270.5 103t-104.5 272q0 78 24 145.5t71.5 121.5t125.5 85.5t178 31.5q141 0 268 -61l-80 -139q-82 75 -195 75q-100 0 -156 -71.5t-56 -181.5q0 -119 62 -187.5t174 -68.5q62 0 114 25v243h106q57 0 57 -57v-320zM540 939
l88 -146h-132l-61 82l-61 -82h-128l88 146h206z" />
    <glyph glyph-name="gcircumflex" unicode="&#x11d;" horiz-adv-x="652" 
d="M471 515h162v-92l-49 -9v-414q0 -100 -63.5 -161.5t-178.5 -61.5q-124 0 -211 51l62 108q60 -53 128 -53q52 0 75 29t23 92v18q-62 -36 -137 -36q-47 0 -89.5 14.5t-79 45t-58.5 84t-22 124.5q0 127 76 201t188 74q94 0 155 -53zM419 132v251q-41 30 -92 30
q-62 0 -93 -42.5t-31 -113.5t31.5 -113t92.5 -42q50 0 92 30zM429 727l88 -146h-132l-61 82l-61 -82h-128l88 146h206z" />
    <glyph glyph-name="Gbreve" unicode="&#x11e;" horiz-adv-x="800" 
d="M732 0h-114l-14 36q-77 -52 -190 -52q-166 0 -270.5 103t-104.5 272q0 78 24 145.5t71.5 121.5t125.5 85.5t178 31.5q141 0 268 -61l-80 -139q-82 75 -195 75q-100 0 -156 -71.5t-56 -181.5q0 -119 62 -187.5t174 -68.5q62 0 114 25v243h106q57 0 57 -57v-320zM509 939
h100q-5 -72 -50 -112t-124 -40t-123 40t-49 112h100q6 -55 74 -55q66 0 72 55z" />
    <glyph glyph-name="gbreve" unicode="&#x11f;" horiz-adv-x="652" 
d="M471 515h162v-92l-49 -9v-414q0 -100 -63.5 -161.5t-178.5 -61.5q-124 0 -211 51l62 108q60 -53 128 -53q52 0 75 29t23 92v18q-62 -36 -137 -36q-47 0 -89.5 14.5t-79 45t-58.5 84t-22 124.5q0 127 76 201t188 74q94 0 155 -53zM419 132v251q-41 30 -92 30
q-62 0 -93 -42.5t-31 -113.5t31.5 -113t92.5 -42q50 0 92 30zM400 727h100q-5 -72 -50 -112t-124 -40t-123 40t-49 112h100q6 -55 74 -55q66 0 72 55z" />
    <glyph glyph-name="Gdotaccent" unicode="&#x120;" horiz-adv-x="800" 
d="M732 0h-114l-14 36q-77 -52 -190 -52q-166 0 -270.5 103t-104.5 272q0 78 24 145.5t71.5 121.5t125.5 85.5t178 31.5q141 0 268 -61l-80 -139q-82 75 -195 75q-100 0 -156 -71.5t-56 -181.5q0 -119 62 -187.5t174 -68.5q62 0 114 25v243h106q57 0 57 -57v-320zM519 939
v-146h-165v146h165z" />
    <glyph glyph-name="gdotaccent" unicode="&#x121;" horiz-adv-x="652" 
d="M471 515h162v-92l-49 -9v-414q0 -100 -63.5 -161.5t-178.5 -61.5q-124 0 -211 51l62 108q60 -53 128 -53q52 0 75 29t23 92v18q-62 -36 -137 -36q-47 0 -89.5 14.5t-79 45t-58.5 84t-22 124.5q0 127 76 201t188 74q94 0 155 -53zM419 132v251q-41 30 -92 30
q-62 0 -93 -42.5t-31 -113.5t31.5 -113t92.5 -42q50 0 92 30zM411 727v-146h-165v146h165z" />
    <glyph glyph-name="Gcommaaccent" unicode="&#x122;" horiz-adv-x="800" 
d="M732 0h-114l-14 36q-77 -52 -190 -52q-166 0 -270.5 103t-104.5 272q0 78 24 145.5t71.5 121.5t125.5 85.5t178 31.5q141 0 268 -61l-80 -139q-82 75 -195 75q-100 0 -156 -71.5t-56 -181.5q0 -119 62 -187.5t174 -68.5q62 0 114 25v243h106q57 0 57 -57v-320zM397 -212
h-132l68 137h177z" />
    <glyph glyph-name="gcommaaccent" unicode="&#x123;" horiz-adv-x="652" 
d="M471 515h162v-92l-49 -9v-414q0 -100 -63.5 -161.5t-178.5 -61.5q-124 0 -211 51l62 108q60 -53 128 -53q52 0 75 29t23 92v18q-62 -36 -137 -36q-47 0 -89.5 14.5t-79 45t-58.5 84t-22 124.5q0 127 76 201t188 74q94 0 155 -53zM419 132v251q-41 30 -92 30
q-62 0 -93 -42.5t-31 -113.5t31.5 -113t92.5 -42q50 0 92 30zM339 727h132l-68 -142h-177z" />
    <glyph glyph-name="Hcircumflex" unicode="&#x124;" horiz-adv-x="900" 
d="M865 0h-322v92l76 12v212h-338v-212l76 -12v-92h-322v92l76 12v520l-74 12v91h318v-91l-74 -12v-198h338v198l-74 12v91h318v-91l-74 -12v-520l76 -12v-92zM553 939l88 -146h-132l-61 82l-61 -82h-128l88 146h206z" />
    <glyph glyph-name="hcircumflex" unicode="&#x125;" horiz-adv-x="628" 
d="M609 92v-92h-217v315q0 51 -17 70t-57 19q-45 0 -92 -31v-272l56 -9v-92h-221v678l-56 9v92h162q36 0 47.5 -13t11.5 -44v-239q65 46 149 46q101 0 141.5 -47.5t40.5 -142.5v-238zM417 967l88 -146h-132l-61 82l-61 -82h-128l88 146h206z" />
    <glyph glyph-name="Hbar" unicode="&#x126;" horiz-adv-x="900" 
d="M865 0h-322v92l76 12v212h-338v-212l76 -12v-92h-322v92l76 12v520l-74 12v91h318v-91l-74 -12v-198h338v198l-74 12v91h318v-91l-74 -12v-520l76 -12v-92zM280 807v104h340v-104h-340z" />
    <glyph glyph-name="hbar" unicode="&#x127;" horiz-adv-x="628" 
d="M609 92v-92h-217v315q0 51 -17 70t-57 19q-45 0 -92 -31v-272l56 -9v-92h-221v558h-56v100h56v32l-56 9v90h162q36 0 47.5 -13t11.5 -44v-74h132v-100h-132v-75q65 46 149 46q101 0 141.5 -47.5t40.5 -142.5v-238z" />
    <glyph glyph-name="Itilde" unicode="&#x128;" horiz-adv-x="392" 
d="M357 0h-322v92l76 12v520l-74 12v91h318v-91l-74 -12v-520l76 -12v-92zM318 943l63 -65q-37 -89 -118 -89q-35 0 -78 20t-60 20q-30 0 -51 -40l-63 65q37 89 118 89q35 0 78 -20t60 -20q30 0 51 40z" />
    <glyph glyph-name="itilde" unicode="&#x129;" horiz-adv-x="315" 
d="M296 92v-92h-221v414l-56 9v92h162q36 0 47.5 -13t11.5 -44v-357zM270 731l63 -65q-37 -89 -118 -89q-35 0 -78 20t-60 20q-30 0 -51 -40l-63 65q37 89 118 89q36 0 78.5 -20t59.5 -20q30 0 51 40z" />
    <glyph glyph-name="Imacron" unicode="&#x12a;" horiz-adv-x="392" 
d="M357 0h-322v92l76 12v520l-74 12v91h318v-91l-74 -12v-520l76 -12v-92zM26 807v104h340v-104h-340z" />
    <glyph glyph-name="imacron" unicode="&#x12b;" horiz-adv-x="315" 
d="M296 92v-92h-221v414l-56 9v92h162q36 0 47.5 -13t11.5 -44v-357zM-15 595v104h340v-104h-340z" />
    <glyph glyph-name="Iogonek" unicode="&#x12e;" horiz-adv-x="392" 
d="M357 92v-82q-69 -12 -107.5 -43.5t-38.5 -60.5q0 -32 41 -32q30 0 66 10l13 -85q-57 -22 -113 -22q-145 0 -145 109q0 73 77 114h-115v92l76 12v520l-74 12v91h318v-91l-74 -12v-520z" />
    <glyph glyph-name="iogonek" unicode="&#x12f;" horiz-adv-x="315" 
d="M296 92v-85q-63 -20 -95 -47t-32 -54q0 -32 41 -32q30 0 66 10l13 -85q-57 -22 -113 -22q-145 0 -145 109q0 73 77 114q-33 12 -33 53v361l-56 9v92h162q36 0 47.5 -13t11.5 -44v-357zM240 717v-146h-165v146h165z" />
    <glyph glyph-name="Idotaccent" unicode="&#x130;" horiz-adv-x="392" 
d="M357 0h-322v92l76 12v520l-74 12v91h318v-91l-74 -12v-520l76 -12v-92zM279 939v-146h-165v146h165z" />
    <glyph glyph-name="dotlessi" unicode="&#x131;" horiz-adv-x="315" 
d="M296 92v-92h-221v414l-56 9v92h162q36 0 47.5 -13t11.5 -44v-357z" />
    <glyph glyph-name="Jcircumflex" unicode="&#x134;" horiz-adv-x="476" 
d="M213 624l-74 12v91h308v-91l-64 -12v-415q0 -112 -56.5 -168.5t-157.5 -56.5q-107 0 -168 63l48 83q54 -34 90 -34q74 0 74 113v415zM397 939l88 -146h-132l-61 82l-61 -82h-128l88 146h206z" />
    <glyph glyph-name="jcircumflex" unicode="&#x135;" horiz-adv-x="300" 
d="M-69 -190l56 96q25 -23 49 -23q20 0 29.5 15.5t9.5 58.5v457l-56 9v92h162q36 0 47.5 -13t11.5 -44v-488q0 -97 -45 -145t-143 -48q-62 0 -121 33zM261 727l88 -146h-132l-61 82l-61 -82h-128l88 146h206z" />
    <glyph glyph-name="Kcommaaccent" unicode="&#x136;" horiz-adv-x="811" 
d="M797 92v-92h-164q-45 0 -69 31l-206 258q-13 17 -23 22t-30 5h-24v-212l76 -12v-92h-322v92l76 12v520l-74 12v91h318v-91l-74 -12v-198h61l182 198l-57 12v91h263v-103l-241 -237q12 -11 34 -37l190 -236zM417 -212h-132l68 137h177z" />
    <glyph glyph-name="kcommaaccent" unicode="&#x137;" horiz-adv-x="595" 
d="M581 92v-92h-144q-29 0 -42.5 8.5t-27.5 32.5l-75 133q-14 25 -26 34t-34 9h-6v-116l48 -9v-92h-213v678l-56 9v92h162q36 0 47.5 -13t11.5 -44v-403h46l95 95l-46 9v92h228v-92l-143 -138q14 -9 34 -40l92 -144zM301 -212h-132l68 137h177z" />
    <glyph glyph-name="kgreenlandic" unicode="&#x138;" horiz-adv-x="609" 
d="M595 92v-92h-144q-29 0 -42.5 8.5t-27.5 32.5l-75 133q-14 25 -26 34t-34 9h-6v-116l48 -9v-92h-213v414l-56 9v92h162q36 0 47.5 -13t11.5 -44v-139h46l95 95l-46 9v92h228v-92l-143 -138q14 -9 34 -40l92 -144z" />
    <glyph glyph-name="Lacute" unicode="&#x139;" horiz-adv-x="640" 
d="M613 0h-578v92l76 12v520l-74 12v91h318v-91l-74 -12v-517h204l20 75h108v-182zM263 793h-132l78 146h177z" />
    <glyph glyph-name="lacute" unicode="&#x13a;" horiz-adv-x="301" 
d="M282 92v-92h-221v678l-56 9v92h162q36 0 47.5 -13t11.5 -44v-621zM188 831h-132l78 146h177z" />
    <glyph glyph-name="Lcommaaccent" unicode="&#x13b;" horiz-adv-x="640" 
d="M613 0h-578v92l76 12v520l-74 12v91h318v-91l-74 -12v-517h204l20 75h108v-182zM317 -212h-132l68 137h177z" />
    <glyph glyph-name="lcommaaccent" unicode="&#x13c;" horiz-adv-x="301" 
d="M282 92v-92h-221v678l-56 9v92h162q36 0 47.5 -13t11.5 -44v-621zM156 -212h-132l68 137h177z" />
    <glyph glyph-name="Lcaron" unicode="&#x13d;" horiz-adv-x="640" 
d="M613 0h-578v92l76 12v520l-74 12v91h318v-91l-74 -12v-517h204l20 75h108v-182zM487 647h-102l31 142h147z" />
    <glyph glyph-name="lcaron" unicode="&#x13e;" horiz-adv-x="311" 
d="M282 92v-92h-221v678l-56 9v92h162q36 0 47.5 -13t11.5 -44v-621zM347 647h-102l31 142h147z" />
    <glyph glyph-name="Lslash" unicode="&#x141;" horiz-adv-x="660" 
d="M633 0h-578v92l76 12v178l-86 -36v114l86 36v228l-74 12v91h318v-91l-74 -12v-158l144 59v-114l-144 -59v-245h204l20 75h108v-182z" />
    <glyph glyph-name="lslash" unicode="&#x142;" horiz-adv-x="329" 
d="M303 92v-92h-221v306l-72 -30v114l72 30v258l-56 9v92h162q36 0 47.5 -13t11.5 -44v-234l72 29v-114l-72 -29v-273z" />
    <glyph glyph-name="Nacute" unicode="&#x143;" horiz-adv-x="872" 
d="M761 0h-189q-28 0 -42.5 9t-24.5 33l-258 569v-507l76 -12v-92h-288v92l76 12v520l-74 12v91h294q27 0 41.5 -9t24.5 -33l228 -511v449l-76 12v92h288v-92l-76 -12v-623zM500 793h-132l78 146h177z" />
    <glyph glyph-name="nacute" unicode="&#x144;" horiz-adv-x="642" 
d="M623 92v-92h-217v315q0 51 -17 70t-57 19q-45 0 -92 -31v-272l56 -9v-92h-221v414l-56 9v92h180l21 -43q81 57 169 57q101 0 141.5 -47.5t40.5 -142.5v-238zM385 581h-132l78 146h177z" />
    <glyph glyph-name="Ncommaaccent" unicode="&#x145;" horiz-adv-x="872" 
d="M761 0h-189q-28 0 -42.5 9t-24.5 33l-258 569v-507l76 -12v-92h-288v92l76 12v520l-74 12v91h294q27 0 41.5 -9t24.5 -33l228 -511v449l-76 12v92h288v-92l-76 -12v-623zM407 -212h-132l68 137h177z" />
    <glyph glyph-name="ncommaaccent" unicode="&#x146;" horiz-adv-x="642" 
d="M623 92v-92h-217v315q0 51 -17 70t-57 19q-45 0 -92 -31v-272l56 -9v-92h-221v414l-56 9v92h180l21 -43q81 57 169 57q101 0 141.5 -47.5t40.5 -142.5v-238zM324 -212h-132l68 137h177z" />
    <glyph glyph-name="Ncaron" unicode="&#x147;" horiz-adv-x="872" 
d="M761 0h-189q-28 0 -42.5 9t-24.5 33l-258 569v-507l76 -12v-92h-288v92l76 12v520l-74 12v91h294q27 0 41.5 -9t24.5 -33l228 -511v449l-76 12v92h288v-92l-76 -12v-623zM339 793l-88 146h132l61 -82l61 82h128l-88 -146h-206z" />
    <glyph glyph-name="ncaron" unicode="&#x148;" horiz-adv-x="642" 
d="M623 92v-92h-217v315q0 51 -17 70t-57 19q-45 0 -92 -31v-272l56 -9v-92h-221v414l-56 9v92h180l21 -43q81 57 169 57q101 0 141.5 -47.5t40.5 -142.5v-238zM218 581l-88 146h132l61 -82l61 82h128l-88 -146h-206z" />
    <glyph glyph-name="Eng" unicode="&#x14a;" horiz-adv-x="872" 
d="M552 -223l-76 131q75 27 97 68l-326 635v-507l76 -12v-92h-288v92l76 12v520l-74 12v91h293q27 0 40.5 -9t25.5 -33l229 -453v391l-76 12v92h288v-92l-76 -12v-521q0 -128 -52 -204.5t-157 -120.5z" />
    <glyph glyph-name="eng" unicode="&#x14b;" horiz-adv-x="642" 
d="M383 -223l-76 132q56 27 80 89t24 188v20q0 87 -10 131t-26.5 55.5t-48.5 11.5q-39 0 -86 -31v-272l56 -9v-92h-221v414l-56 9v92h180l21 -43q81 57 163 57q111 0 152 -67.5t41 -252.5v-17q0 -172 -44.5 -267.5t-148.5 -147.5z" />
    <glyph glyph-name="Omacron" unicode="&#x14c;" horiz-adv-x="850" 
d="M812 370q0 -181 -107.5 -283.5t-285.5 -102.5q-182 0 -281.5 96t-99.5 277t107.5 283.5t285.5 102.5q182 0 281.5 -96t99.5 -277zM632 363q0 133 -52.5 201t-154.5 68q-207 0 -207 -268q0 -133 52.5 -201t154.5 -68q207 0 207 268z" />
    <glyph glyph-name="omacron" unicode="&#x14d;" horiz-adv-x="638" 
d="M323 529q133 0 207.5 -67t74.5 -201q0 -129 -80.5 -202t-209.5 -73q-133 0 -207.5 67t-74.5 201q0 129 80.5 202t209.5 73zM319 100q117 0 117 158q0 157 -117 157t-117 -158q0 -157 117 -157zM149 595v104h340v-104h-340z" />
    <glyph glyph-name="Ohungarumlaut" unicode="&#x150;" horiz-adv-x="850" 
d="M812 370q0 -181 -107.5 -283.5t-285.5 -102.5q-182 0 -281.5 96t-99.5 277t107.5 283.5t285.5 102.5q182 0 281.5 -96t99.5 -277zM632 363q0 133 -52.5 201t-154.5 68q-207 0 -207 -268q0 -133 52.5 -201t154.5 -68q207 0 207 268zM361 793h-115l88 146h150zM576 793
h-120l108 146h155z" />
    <glyph glyph-name="ohungarumlaut" unicode="&#x151;" horiz-adv-x="638" 
d="M323 529q133 0 207.5 -67t74.5 -201q0 -129 -80.5 -202t-209.5 -73q-133 0 -207.5 67t-74.5 201q0 129 80.5 202t209.5 73zM319 100q117 0 117 158q0 157 -117 157t-117 -158q0 -157 117 -157zM257 581h-115l88 146h150zM472 581h-120l108 146h155z" />
    <glyph glyph-name="OE" unicode="&#x152;" horiz-adv-x="1113" 
d="M1063 0h-492q-74 -16 -152 -16q-182 0 -281.5 96t-99.5 277t107.5 283.5t285.5 102.5q68 0 151 -16h460v-181h-108l-20 74h-193v-198h212v-106h-212v-209h214l20 75h108v-182zM425 95q75 0 126 17v503q-51 17 -126 17q-207 0 -207 -268q0 -133 52.5 -201t154.5 -68z" />
    <glyph glyph-name="oe" unicode="&#x153;" horiz-adv-x="979" 
d="M910 153l42 -73q-42 -44 -107.5 -69t-135.5 -25q-131 0 -197 73q-70 -73 -197 -73q-133 0 -207.5 67t-74.5 201q0 129 80.5 202t209.5 73q135 0 202 -73q72 73 195 73q102 0 164 -46.5t62 -118.5q0 -86 -81 -130.5t-262 -44.5q26 -91 136 -91q91 0 171 55zM319 100
q117 0 117 158q0 157 -117 157t-117 -158q0 -157 117 -157zM707 417q-40 0 -72 -32t-39 -98q95 -1 137.5 16.5t42.5 55.5q0 24 -18 41t-51 17z" />
    <glyph glyph-name="Racute" unicode="&#x154;" horiz-adv-x="785" 
d="M697 104l64 -12v-92h-167q-31 0 -46.5 11.5t-22.5 37.5l-35 134q-12 48 -42 71.5t-98 23.5h-69v-174l76 -12v-92h-322v92l76 12v520l-74 12v91h396q126 0 198 -51.5t72 -160.5q0 -58 -37.5 -107.5t-91.5 -72.5v-7q33 -9 52.5 -35t33.5 -71zM281 384h173q30 15 49.5 45.5
t19.5 71.5q0 64 -35.5 91.5t-115.5 27.5h-91v-236zM417 793h-132l78 146h177z" />
    <glyph glyph-name="racute" unicode="&#x155;" horiz-adv-x="407" 
d="M75 0v414l-56 9v92h178l24 -52q69 69 172 66v-143q-87 11 -153 -26v-259l56 -9v-92h-221zM260 581h-132l78 146h177z" />
    <glyph glyph-name="Rcommaaccent" unicode="&#x156;" horiz-adv-x="785" 
d="M697 104l64 -12v-92h-167q-31 0 -46.5 11.5t-22.5 37.5l-35 134q-12 48 -42 71.5t-98 23.5h-69v-174l76 -12v-92h-322v92l76 12v520l-74 12v91h396q126 0 198 -51.5t72 -160.5q0 -58 -37.5 -107.5t-91.5 -72.5v-7q33 -9 52.5 -35t33.5 -71zM281 384h173q30 15 49.5 45.5
t19.5 71.5q0 64 -35.5 91.5t-115.5 27.5h-91v-236zM407 -212h-132l68 137h177z" />
    <glyph glyph-name="rcommaaccent" unicode="&#x157;" horiz-adv-x="407" 
d="M75 0v414l-56 9v92h178l24 -52q69 69 172 66v-143q-87 11 -153 -26v-259l56 -9v-92h-221zM177 -212h-132l68 137h177z" />
    <glyph glyph-name="Rcaron" unicode="&#x158;" horiz-adv-x="785" 
d="M697 104l64 -12v-92h-167q-31 0 -46.5 11.5t-22.5 37.5l-35 134q-12 48 -42 71.5t-98 23.5h-69v-174l76 -12v-92h-322v92l76 12v520l-74 12v91h396q126 0 198 -51.5t72 -160.5q0 -58 -37.5 -107.5t-91.5 -72.5v-7q33 -9 52.5 -35t33.5 -71zM281 384h173q30 15 49.5 45.5
t19.5 71.5q0 64 -35.5 91.5t-115.5 27.5h-91v-236zM270 793l-88 146h132l61 -82l61 82h128l-88 -146h-206z" />
    <glyph glyph-name="rcaron" unicode="&#x159;" horiz-adv-x="407" 
d="M75 0v414l-56 9v92h178l24 -52q69 69 172 66v-143q-87 11 -153 -26v-259l56 -9v-92h-221zM115 581l-88 146h132l61 -82l61 82h128l-88 -146h-206z" />
    <glyph glyph-name="Sacute" unicode="&#x15a;" horiz-adv-x="655" 
d="M18 64l69 120q106 -87 216 -87q63 0 94 24.5t31 67.5t-40 71.5t-96.5 47.5t-113 42.5t-96.5 70.5t-40 117q0 91 75 148t224 57q132 0 249 -56l-74 -128q-33 32 -81 53t-97 21q-59 0 -88 -24t-29 -61q0 -33 21.5 -57.5t56 -40.5t76.5 -30t83.5 -32t76 -40.5t56 -60.5
t21.5 -88q0 -91 -76.5 -153t-237.5 -62q-80 0 -155.5 22t-124.5 58zM372 793h-132l78 146h177z" />
    <glyph glyph-name="sacute" unicode="&#x15b;" horiz-adv-x="484" 
d="M17 43l64 112q71 -62 148 -62q63 0 63 47q0 25 -26.5 44t-64.5 33t-75.5 31t-64 48.5t-26.5 74.5q0 69 54.5 113.5t165.5 44.5q100 0 188 -40l-64 -111q-57 47 -122 47q-60 0 -60 -44q0 -24 27 -42.5t65.5 -32.5t77.5 -31.5t66 -49t27 -75.5q0 -73 -58.5 -118.5
t-173.5 -45.5q-128 0 -211 57zM300 581h-132l78 146h177z" />
    <glyph glyph-name="Scircumflex" unicode="&#x15c;" horiz-adv-x="655" 
d="M18 64l69 120q106 -87 216 -87q63 0 94 24.5t31 67.5t-40 71.5t-96.5 47.5t-113 42.5t-96.5 70.5t-40 117q0 91 75 148t224 57q132 0 249 -56l-74 -128q-33 32 -81 53t-97 21q-59 0 -88 -24t-29 -61q0 -33 21.5 -57.5t56 -40.5t76.5 -30t83.5 -32t76 -40.5t56 -60.5
t21.5 -88q0 -91 -76.5 -153t-237.5 -62q-80 0 -155.5 22t-124.5 58zM433 939l88 -146h-132l-61 82l-61 -82h-128l88 146h206z" />
    <glyph glyph-name="scircumflex" unicode="&#x15d;" horiz-adv-x="484" 
d="M17 43l64 112q71 -62 148 -62q63 0 63 47q0 25 -26.5 44t-64.5 33t-75.5 31t-64 48.5t-26.5 74.5q0 69 54.5 113.5t165.5 44.5q100 0 188 -40l-64 -111q-57 47 -122 47q-60 0 -60 -44q0 -24 27 -42.5t65.5 -32.5t77.5 -31.5t66 -49t27 -75.5q0 -73 -58.5 -118.5
t-173.5 -45.5q-128 0 -211 57zM345 727l88 -146h-132l-61 82l-61 -82h-128l88 146h206z" />
    <glyph glyph-name="Scedilla" unicode="&#x15e;" horiz-adv-x="655" 
d="M184 -212v109q31 -4 60 -4q47 0 47 36q0 23 -12 56q-75 2 -145 23.5t-116 55.5l69 120q106 -87 216 -87q63 0 94 24.5t31 67.5t-40 71.5t-96.5 47.5t-113 42.5t-96.5 70.5t-40 117q0 91 75 148t224 57q132 0 249 -56l-74 -128q-33 32 -81 53t-97 21q-59 0 -88 -24
t-29 -61q0 -33 21.5 -57.5t56 -40.5t76.5 -30t83.5 -32t76 -40.5t56 -60.5t21.5 -88q0 -73 -51 -129.5t-158 -76.5q27 -42 27 -88q0 -121 -190 -121q-25 0 -56 4z" />
    <glyph glyph-name="scedilla" unicode="&#x15f;" horiz-adv-x="484" 
d="M109 -212v109q31 -4 60 -4q47 0 47 36q0 21 -13 58q-114 6 -186 56l64 112q71 -62 148 -62q63 0 63 47q0 25 -26.5 44t-64.5 33t-75.5 31t-64 48.5t-26.5 74.5q0 69 54.5 113.5t165.5 44.5q100 0 188 -40l-64 -111q-57 47 -122 47q-60 0 -60 -44q0 -24 27 -42.5
t65.5 -32.5t77.5 -31.5t66 -49t27 -75.5q0 -55 -33.5 -95t-100.5 -57q29 -44 29 -93q0 -121 -190 -121q-25 0 -56 4z" />
    <glyph glyph-name="Scaron" unicode="&#x160;" horiz-adv-x="655" 
d="M18 64l69 120q106 -87 216 -87q63 0 94 24.5t31 67.5t-40 71.5t-96.5 47.5t-113 42.5t-96.5 70.5t-40 117q0 91 75 148t224 57q132 0 249 -56l-74 -128q-33 32 -81 53t-97 21q-59 0 -88 -24t-29 -61q0 -33 21.5 -57.5t56 -40.5t76.5 -30t83.5 -32t76 -40.5t56 -60.5
t21.5 -88q0 -91 -76.5 -153t-237.5 -62q-80 0 -155.5 22t-124.5 58zM229 793l-88 146h132l61 -82l61 82h128l-88 -146h-206z" />
    <glyph glyph-name="scaron" unicode="&#x161;" horiz-adv-x="484" 
d="M17 43l64 112q71 -62 148 -62q63 0 63 47q0 25 -26.5 44t-64.5 33t-75.5 31t-64 48.5t-26.5 74.5q0 69 54.5 113.5t165.5 44.5q100 0 188 -40l-64 -111q-57 47 -122 47q-60 0 -60 -44q0 -24 27 -42.5t65.5 -32.5t77.5 -31.5t66 -49t27 -75.5q0 -73 -58.5 -118.5
t-173.5 -45.5q-128 0 -211 57zM130 581l-88 146h132l61 -82l61 82h128l-88 -146h-206z" />
    <glyph glyph-name="uni0162" unicode="&#x162;" horiz-adv-x="702" 
d="M436 105l86 -13v-92h-342v92l86 13v515h-121l-20 -74h-108v181h668v-181h-108l-20 74h-121v-515zM341 -212h-132l68 137h177z" />
    <glyph glyph-name="uni0163" unicode="&#x163;" horiz-adv-x="400" 
d="M364 129l33 -91q-74 -52 -162 -52q-75 0 -117.5 38.5t-42.5 131.5v247h-68v102l75 10l16 60q8 31 21.5 41.5t56.5 17.5l64 11v-130h134v-112h-134v-236q0 -60 52 -60q33 0 72 22zM215 -212h-132l68 137h177z" />
    <glyph glyph-name="Tcaron" unicode="&#x164;" horiz-adv-x="702" 
d="M436 105l86 -13v-92h-342v92l86 13v515h-121l-20 -74h-108v181h668v-181h-108l-20 74h-121v-515zM248 793l-88 146h132l61 -82l61 82h128l-88 -146h-206z" />
    <glyph glyph-name="tcaron" unicode="&#x165;" horiz-adv-x="402" 
d="M364 129l33 -91q-74 -52 -162 -52q-75 0 -117.5 38.5t-42.5 131.5v247h-68v102l75 10l16 60q8 31 21.5 41.5t56.5 17.5l64 11v-130h134v-112h-134v-236q0 -60 52 -60q33 0 72 22zM377 585h-102l31 142h147z" />
    <glyph glyph-name="Tbar" unicode="&#x166;" horiz-adv-x="702" 
d="M522 92v-92h-342v92l86 13v193h-130v106h130v216h-121l-20 -74h-108v181h668v-181h-108l-20 74h-121v-216h130v-106h-130v-193z" />
    <glyph glyph-name="tbar" unicode="&#x167;" horiz-adv-x="408" 
d="M372 129l33 -91q-74 -52 -162 -52q-75 0 -117.5 38.5t-42.5 131.5v60h-48v98h48v89h-68v102l75 10l16 60q8 31 21.5 41.5t56.5 17.5l64 11v-130h134v-112h-134v-89h94v-98h-94v-49q0 -60 52 -60q33 0 72 22z" />
    <glyph glyph-name="Utilde" unicode="&#x168;" horiz-adv-x="840" 
d="M811 727v-91l-64 -12v-332q0 -145 -84 -226.5t-247 -81.5q-157 0 -240 74t-83 210v356l-64 12v91h308v-91l-74 -12v-333q0 -188 158 -188q156 0 156 190v331l-74 12v91h308zM543 943l63 -65q-37 -89 -118 -89q-36 0 -78 20t-60 20q-30 0 -51 -40l-63 65q37 89 118 89
q36 0 78 -20t60 -20q30 0 51 40z" />
    <glyph glyph-name="utilde" unicode="&#x169;" horiz-adv-x="642" 
d="M623 92v-92h-180l-21 43q-81 -57 -169 -57q-101 0 -141.5 47.5t-40.5 142.5v238l-52 9v92h158q36 0 47.5 -13t11.5 -44v-258q0 -51 17 -70t57 -19q45 0 92 31v272l-56 9v92h162q36 0 47.5 -13t11.5 -44v-357zM443 731l63 -65q-37 -89 -118 -89q-36 0 -78 20t-60 20
q-30 0 -51 -40l-63 65q37 89 118 89q36 0 78 -20t60 -20q30 0 51 40z" />
    <glyph glyph-name="Umacron" unicode="&#x16a;" horiz-adv-x="840" 
d="M811 727v-91l-64 -12v-332q0 -145 -84 -226.5t-247 -81.5q-157 0 -240 74t-83 210v356l-64 12v91h308v-91l-74 -12v-333q0 -188 158 -188q156 0 156 190v331l-74 12v91h308zM251 807v104h340v-104h-340z" />
    <glyph glyph-name="umacron" unicode="&#x16b;" horiz-adv-x="642" 
d="M623 92v-92h-180l-21 43q-81 -57 -169 -57q-101 0 -141.5 47.5t-40.5 142.5v238l-52 9v92h158q36 0 47.5 -13t11.5 -44v-258q0 -51 17 -70t57 -19q45 0 92 31v272l-56 9v92h162q36 0 47.5 -13t11.5 -44v-357zM151 595v104h340v-104h-340z" />
    <glyph glyph-name="Ubreve" unicode="&#x16c;" horiz-adv-x="840" 
d="M811 727v-91l-64 -12v-332q0 -145 -84 -226.5t-247 -81.5q-157 0 -240 74t-83 210v356l-64 12v91h308v-91l-74 -12v-333q0 -188 158 -188q156 0 156 190v331l-74 12v91h308zM494 939h100q-5 -72 -50 -112t-124 -40t-123 40t-49 112h100q6 -55 74 -55q66 0 72 55z" />
    <glyph glyph-name="ubreve" unicode="&#x16d;" horiz-adv-x="642" 
d="M623 92v-92h-180l-21 43q-81 -57 -169 -57q-101 0 -141.5 47.5t-40.5 142.5v238l-52 9v92h158q36 0 47.5 -13t11.5 -44v-258q0 -51 17 -70t57 -19q45 0 92 31v272l-56 9v92h162q36 0 47.5 -13t11.5 -44v-357zM394 727h100q-5 -72 -50 -112t-124 -40t-123 40t-49 112h100
q6 -55 74 -55q66 0 72 55z" />
    <glyph glyph-name="Uring" unicode="&#x16e;" horiz-adv-x="840" 
d="M811 727v-91l-64 -12v-332q0 -145 -84 -226.5t-247 -81.5q-157 0 -240 74t-83 210v356l-64 12v91h308v-91l-74 -12v-333q0 -188 158 -188q156 0 156 190v331l-74 12v91h308zM422 977q74 0 116.5 -28t42.5 -81q0 -51 -44.5 -81.5t-116.5 -30.5q-74 0 -116.5 28.5
t-42.5 81.5q0 51 44.5 81t116.5 30zM421 818q25 0 39.5 12.5t14.5 35.5t-14 36t-40 13t-40 -13t-14 -36t14.5 -35.5t39.5 -12.5z" />
    <glyph glyph-name="uring" unicode="&#x16f;" horiz-adv-x="642" 
d="M623 92v-92h-180l-21 43q-81 -57 -169 -57q-101 0 -141.5 47.5t-40.5 142.5v238l-52 9v92h158q36 0 47.5 -13t11.5 -44v-258q0 -51 17 -70t57 -19q45 0 92 31v272l-56 9v92h162q36 0 47.5 -13t11.5 -44v-357zM322 814q74 0 116.5 -30.5t42.5 -87.5q0 -55 -44.5 -88
t-116.5 -33q-74 0 -116.5 30.5t-42.5 87.5q0 55 44.5 88t116.5 33zM321 641q25 0 39.5 14t14.5 39q0 26 -14.5 40t-39.5 14t-39.5 -14t-14.5 -39t14.5 -39.5t39.5 -14.5z" />
    <glyph glyph-name="Uhungarumlaut" unicode="&#x170;" horiz-adv-x="840" 
d="M811 727v-91l-64 -12v-332q0 -145 -84 -226.5t-247 -81.5q-157 0 -240 74t-83 210v356l-64 12v91h308v-91l-74 -12v-333q0 -188 158 -188q156 0 156 190v331l-74 12v91h308zM359 793h-115l88 146h150zM574 793h-120l108 146h155z" />
    <glyph glyph-name="uhungarumlaut" unicode="&#x171;" horiz-adv-x="642" 
d="M623 92v-92h-180l-21 43q-81 -57 -169 -57q-101 0 -141.5 47.5t-40.5 142.5v238l-52 9v92h158q36 0 47.5 -13t11.5 -44v-258q0 -51 17 -70t57 -19q45 0 92 31v272l-56 9v92h162q36 0 47.5 -13t11.5 -44v-357zM229 581h-115l88 146h150zM444 581h-120l108 146h155z" />
    <glyph glyph-name="Uogonek" unicode="&#x172;" horiz-adv-x="840" 
d="M811 727v-91l-64 -12v-332q0 -142 -79 -221q-32 -33 -89 -66.5t-78 -54.5t-21 -44q0 -32 41 -32q30 0 66 10l13 -85q-57 -22 -113 -22q-145 0 -145 109q0 69 60 104q-8 -2 -10 -2q-140 0 -219.5 73t-79.5 207v356l-64 12v91h308v-91l-74 -12v-333q0 -188 158 -188
q156 0 156 190v331l-74 12v91h308z" />
    <glyph glyph-name="uogonek" unicode="&#x173;" horiz-adv-x="642" 
d="M623 92v-89q-109 -44 -109 -97q0 -32 41 -32q30 0 66 10l13 -85q-57 -22 -113 -22q-145 0 -145 109q0 63 67 111l-21 46q-81 -57 -169 -57q-101 0 -141.5 47.5t-40.5 142.5v238l-52 9v92h158q36 0 47.5 -13t11.5 -44v-258q0 -51 17 -70t57 -19q45 0 92 31v272l-56 9v92
h162q36 0 47.5 -13t11.5 -44v-357z" />
    <glyph glyph-name="Ydieresis" unicode="&#x178;" horiz-adv-x="708" 
d="M439 105l86 -13v-92h-342v92l86 13v161l-216 358l-38 12v91h295v-88l-58 -14l128 -234h4l135 233l-60 12v91h234v-91l-38 -12l-216 -358v-161zM308 939v-146h-145v146h145zM524 939v-146h-145v146h145z" />
    <glyph glyph-name="Zacute" unicode="&#x179;" horiz-adv-x="656" 
d="M621 182v-182h-592v96l371 524h-220l-20 -74h-108v181h546v-96l-371 -524h266l20 75h108zM383 793h-132l78 146h177z" />
    <glyph glyph-name="zacute" unicode="&#x17a;" horiz-adv-x="567" 
d="M237 98h174l19 71h106v-169h-505v90l283 328h-136l-19 -71h-106v168h467v-89zM341 581h-132l78 146h177z" />
    <glyph glyph-name="Zdotaccent" unicode="&#x17b;" horiz-adv-x="656" 
d="M621 182v-182h-592v96l371 524h-220l-20 -74h-108v181h546v-96l-371 -524h266l20 75h108zM413 939v-146h-165v146h165z" />
    <glyph glyph-name="zdotaccent" unicode="&#x17c;" horiz-adv-x="567" 
d="M237 98h174l19 71h106v-169h-505v90l283 328h-136l-19 -71h-106v168h467v-89zM370 727v-146h-165v146h165z" />
    <glyph glyph-name="Zcaron" unicode="&#x17d;" horiz-adv-x="656" 
d="M621 182v-182h-592v96l371 524h-220l-20 -74h-108v181h546v-96l-371 -524h266l20 75h108zM228 793l-88 146h132l61 -82l61 82h128l-88 -146h-206z" />
    <glyph glyph-name="zcaron" unicode="&#x17e;" horiz-adv-x="567" 
d="M237 98h174l19 71h106v-169h-505v90l283 328h-136l-19 -71h-106v168h467v-89zM184 581l-88 146h132l61 -82l61 82h128l-88 -146h-206z" />
    <glyph glyph-name="florin" unicode="&#x192;" 
d="M354 318l-41 -334q-25 -207 -215 -207q-72 0 -139 30l66 113q27 -31 61 -31q26 0 41.5 21.5t21.5 74.5l40 333h-126v97h138l21 167q27 207 215 207q72 0 139 -30l-66 -113q-27 31 -61 31q-26 0 -41.5 -21.5t-21.5 -74.5l-20 -166h152v-97h-164z" />
    <glyph glyph-name="Scommaaccent" unicode="&#x218;" horiz-adv-x="655" 
d="M18 64l69 120q106 -87 216 -87q63 0 94 24.5t31 67.5t-40 71.5t-96.5 47.5t-113 42.5t-96.5 70.5t-40 117q0 91 75 148t224 57q132 0 249 -56l-74 -128q-33 32 -81 53t-97 21q-59 0 -88 -24t-29 -61q0 -33 21.5 -57.5t56 -40.5t76.5 -30t83.5 -32t76 -40.5t56 -60.5
t21.5 -88q0 -91 -76.5 -153t-237.5 -62q-80 0 -155.5 22t-124.5 58zM317 -212h-132l68 137h177z" />
    <glyph glyph-name="scommaaccent" unicode="&#x219;" horiz-adv-x="484" 
d="M17 43l64 112q71 -62 148 -62q63 0 63 47q0 25 -26.5 44t-64.5 33t-75.5 31t-64 48.5t-26.5 74.5q0 69 54.5 113.5t165.5 44.5q100 0 188 -40l-64 -111q-57 47 -122 47q-60 0 -60 -44q0 -24 27 -42.5t65.5 -32.5t77.5 -31.5t66 -49t27 -75.5q0 -73 -58.5 -118.5
t-173.5 -45.5q-128 0 -211 57zM217 -212h-132l68 137h177z" />
    <glyph glyph-name="Tcommaaccent" unicode="&#x21a;" horiz-adv-x="702" 
d="M436 105l86 -13v-92h-342v92l86 13v515h-121l-20 -74h-108v181h668v-181h-108l-20 74h-121v-515zM341 -212h-132l68 137h177z" />
    <glyph glyph-name="tcommaaccent" unicode="&#x21b;" horiz-adv-x="400" 
d="M364 129l33 -91q-74 -52 -162 -52q-75 0 -117.5 38.5t-42.5 131.5v247h-68v102l75 10l16 60q8 31 21.5 41.5t56.5 17.5l64 11v-130h134v-112h-134v-236q0 -60 52 -60q33 0 72 22zM215 -212h-132l68 137h177z" />
    <glyph glyph-name="dotlessj" unicode="&#x237;" horiz-adv-x="300" 
d="M-69 -190l56 96q25 -23 49 -23q20 0 29.5 15.5t9.5 58.5v457l-56 9v92h162q36 0 47.5 -13t11.5 -44v-488q0 -97 -45 -145t-143 -48q-62 0 -121 33z" />
    <glyph glyph-name="dotlessj" unicode="&#xfb0f;" horiz-adv-x="300" 
d="M-69 -190l56 96q25 -23 49 -23q20 0 29.5 15.5t9.5 58.5v457l-56 9v92h162q36 0 47.5 -13t11.5 -44v-488q0 -97 -45 -145t-143 -48q-62 0 -121 33z" />
    <glyph glyph-name="circumflex" unicode="&#x2c6;" horiz-adv-x="432" 
d="M319 727l88 -146h-132l-61 82l-61 -82h-128l88 146h206z" />
    <glyph glyph-name="caron" unicode="&#x2c7;" horiz-adv-x="432" 
d="M113 581l-88 146h132l61 -82l61 82h128l-88 -146h-206z" />
    <glyph glyph-name="breve" unicode="&#x2d8;" horiz-adv-x="396" 
d="M271 727h100q-5 -72 -50 -112t-124 -40t-123 40t-49 112h100q6 -55 74 -55q66 0 72 55z" />
    <glyph glyph-name="dotaccent" unicode="&#x2d9;" horiz-adv-x="215" 
d="M190 727v-146h-165v146h165z" />
    <glyph glyph-name="ring" unicode="&#x2da;" horiz-adv-x="350" 
d="M176 814q74 0 116.5 -30.5t42.5 -87.5q0 -55 -44.5 -88t-116.5 -33q-74 0 -116.5 30.5t-42.5 87.5q0 55 44.5 88t116.5 33zM175 641q25 0 39.5 14t14.5 39q0 26 -14.5 40t-39.5 14t-39.5 -14t-14.5 -39t14.5 -39.5t39.5 -14.5z" />
    <glyph glyph-name="ogonek" unicode="&#x2db;" horiz-adv-x="308" 
d="M270 -116l13 -85q-57 -22 -113 -22q-145 0 -145 109q0 73 77 114h157q-96 -49 -96 -94q0 -32 41 -32q30 0 66 10z" />
    <glyph glyph-name="tilde" unicode="&#x2dc;" horiz-adv-x="420" 
d="M332 731l63 -65q-37 -89 -118 -89q-35 0 -78 20t-60 20q-30 0 -51 -40l-63 65q37 89 118 89q35 0 78 -20t60 -20q30 0 51 40z" />
    <glyph glyph-name="hungarumlaut" unicode="&#x2dd;" horiz-adv-x="523" 
d="M140 581h-115l88 146h150zM355 581h-120l108 146h155z" />
    <glyph glyph-name="commaaccentaboverev" unicode="&#x312;" horiz-adv-x="295" 
d="M138 727h132l-68 -142h-177z" />
    <glyph glyph-name="uni0315" unicode="&#x315;" horiz-adv-x="228" 
d="M127 647h-102l31 142h147z" />
    <glyph glyph-name="Delta" unicode="&#x394;" horiz-adv-x="784" 
d="M745 0h-706v96l203 528l-74 12v91h273q39 0 53.5 -9t25.5 -38l225 -584v-96zM186 107h367l-183 507z" />
    <glyph glyph-name="Delta" unicode="&#x2206;" horiz-adv-x="784" 
d="M745 0h-706v96l203 528l-74 12v91h273q39 0 53.5 -9t25.5 -38l225 -584v-96zM186 107h367l-183 507z" />
    <glyph glyph-name="uni03A9" unicode="&#x3a9;" horiz-adv-x="880" 
d="M627 107h94l20 60h101v-167h-368v176q91 44 132 100.5t41 144.5q0 97 -54 154t-153 57q-100 0 -153.5 -57t-53.5 -154q0 -90 42 -146.5t132 -98.5v-176h-369v167h101l20 -60h95v29q-105 52 -153 119.5t-48 166.5q0 145 108.5 233t284.5 88q180 0 280.5 -83t100.5 -227
q0 -99 -48 -168.5t-152 -128.5v-29z" />
    <glyph glyph-name="pi" unicode="&#x3c0;" horiz-adv-x="694" 
d="M657 388h-100q1 -78 4.5 -134t7.5 -84t11 -44t11.5 -19t10.5 -3q20 0 45 12l22 -86q-68 -44 -138 -44q-53 0 -84 31q-28 28 -41 105.5t-14 265.5h-130q-3 -194 -30 -388h-165q26 236 30 388h-79v127h639v-127z" />
    <glyph glyph-name="endash" unicode="&#x2013;" 
d="M0 266v118h600v-118h-600z" />
    <glyph glyph-name="emdash" unicode="&#x2014;" horiz-adv-x="1000" 
d="M940 266h-880v118h880v-118z" />
    <glyph glyph-name="uni2015" unicode="&#x2015;" horiz-adv-x="1000" 
d="M940 266h-880v118h880v-118z" />
    <glyph glyph-name="quoteleft" unicode="&#x2018;" horiz-adv-x="290" 
d="M55 457v190q0 92 54 147.5t154 54.5v-89q-50 -4 -77 -32.5t-25 -80.5h74v-190h-180z" />
    <glyph glyph-name="quoteright" unicode="&#x2019;" horiz-adv-x="290" 
d="M235 779v-190q0 -92 -54 -147.5t-154 -54.5v89q50 4 77 32.5t25 80.5h-74v190h180z" />
    <glyph glyph-name="quotesinglbase" unicode="&#x201a;" horiz-adv-x="290" 
d="M235 190v-190q0 -92 -54 -147.5t-154 -54.5v89q50 4 77 32.5t25 80.5h-74v190h180z" />
    <glyph glyph-name="quotedblleft" unicode="&#x201c;" horiz-adv-x="480" 
d="M55 472v175q0 76 51.5 130t133.5 53v-84q-42 -3 -64.5 -28.5t-21.5 -70.5h66v-175h-165zM261 472v175q0 76 51.5 130t132.5 53v-84q-41 -3 -63.5 -28.5t-21.5 -70.5h65v-175h-164z" />
    <glyph glyph-name="quotedblright" unicode="&#x201d;" horiz-adv-x="480" 
d="M425 779v-175q0 -76 -51.5 -130t-133.5 -53v84q42 3 64.5 28.5t21.5 70.5h-66v175h165zM219 779v-175q0 -76 -51.5 -130t-132.5 -53v84q41 3 63.5 28.5t21.5 70.5h-65v175h164z" />
    <glyph glyph-name="quotedblbase" unicode="&#x201e;" horiz-adv-x="480" 
d="M425 175v-175q0 -76 -51.5 -130t-133.5 -53v84q42 3 64.5 28.5t21.5 70.5h-66v175h165zM219 175v-175q0 -76 -51.5 -130t-132.5 -53v84q41 3 63.5 28.5t21.5 70.5h-65v175h164z" />
    <glyph glyph-name="dagger" unicode="&#x2020;" horiz-adv-x="474" 
d="M284 146h-95l-23 268l19 120l-141 -9v103l141 -9l-18 146h140l-18 -146l141 9v-103l-141 9l19 -120z" />
    <glyph glyph-name="daggerdbl" unicode="&#x2021;" horiz-adv-x="474" 
d="M305 97h-136l19 160l-141 -9v101l141 -9l-19 116l19 90l-141 -9v101l141 -9l-18 136h134l-18 -136l141 9v-101l-141 9l19 -90l-19 -116l141 9v-101l-141 9z" />
    <glyph glyph-name="bullet" unicode="&#x2022;" 
d="M101 325q0 83 58.5 141t140.5 58t140.5 -58t58.5 -141t-58.5 -141t-140.5 -58t-140.5 58t-58.5 141z" />
    <glyph glyph-name="ellipsis" unicode="&#x2026;" horiz-adv-x="830" 
d="M235 190v-190h-180v190h180zM505 190v-190h-180v190h180zM775 190v-190h-180v190h180z" />
    <glyph glyph-name="perthousand" unicode="&#x2030;" horiz-adv-x="1464" 
d="M253 380q-98 0 -152 50.5t-54 144.5q0 95 56 146t153 51q99 0 153 -50.5t54 -144.5q0 -95 -56 -146t-154 -51zM319 575q0 105 -65 105q-63 0 -63 -104t65 -104q63 0 63 103zM292 -52h-141l555 831h141zM741 -45q-98 0 -152 50.5t-54 144.5q0 95 56 146t153 51
q99 0 153 -50.5t54 -144.5q0 -95 -56 -146t-154 -51zM807 150q0 105 -65 105q-63 0 -63 -104t65 -104q63 0 63 103zM1207 -45q-98 0 -152 50.5t-54 144.5q0 95 56 146t153 51q99 0 153 -50.5t54 -144.5q0 -95 -56 -146t-154 -51zM1273 150q0 105 -65 105q-63 0 -63 -104
t65 -104q63 0 63 103z" />
    <glyph glyph-name="guilsinglleft" unicode="&#x2039;" horiz-adv-x="348" 
d="M283 115h-130l-115 210l114 210h131l-88 -210z" />
    <glyph glyph-name="guilsinglright" unicode="&#x203a;" horiz-adv-x="348" 
d="M65 535h130l115 -210l-114 -210h-131l88 210z" />
    <glyph glyph-name="fraction" unicode="&#x2044;" horiz-adv-x="558" 
d="M72 -52h-141l555 831h141z" />
    <glyph glyph-name="zerosuperior" unicode="&#x2070;" horiz-adv-x="510" 
d="M253 380q-98 0 -152 50.5t-54 144.5q0 95 56 146t153 51q99 0 153 -50.5t54 -144.5q0 -95 -56 -146t-154 -51zM319 575q0 105 -65 105q-63 0 -63 -104t65 -104q63 0 63 103z" />
    <glyph glyph-name="foursuperior" unicode="&#x2074;" horiz-adv-x="405" 
d="M386 389h-231v69l50 8v17h-174v96q0 47 25 72l111 112h170l-189 -172v-22h57v43h91q41 0 41 -40v-106l49 -8v-69z" />
    <glyph glyph-name="Euro" unicode="&#x20ac;" horiz-adv-x="765" 
d="M503 400h-223q-1 -12 -1 -35q0 -20 1 -30h223v-90h-203q27 -64 82 -98.5t134 -34.5q90 0 180 62l47 -85q-114 -105 -281 -105q-132 0 -225 69.5t-125 191.5h-89v90h76v24q0 27 1 41h-77v90h95q35 114 128.5 183.5t238.5 69.5q129 0 230 -49l-78 -135q-27 25 -69.5 42
t-85.5 17q-129 0 -181 -128h202v-90z" />
    <glyph glyph-name="trademark" unicode="&#x2122;" horiz-adv-x="1141" 
d="M285 430l53 -7v-77h-235v77l54 7v216h-47l-11 -44h-70v125h382v-125h-66l-14 44h-46v-216zM1115 423v-77h-205v77l40 6l-30 205l-87 -288h-116q-27 0 -34 24l-78 264l-30 -205l40 -6v-77h-190v77l44 6l32 215l-49 6v77h220q26 0 34 -24l67 -219l65 222q6 21 29 21h221
v-77l-49 -6l33 -215z" />
    <glyph glyph-name="Omega" unicode="&#x2126;" horiz-adv-x="880" 
d="M627 107h94l20 60h101v-167h-368v176q91 44 132 100.5t41 144.5q0 97 -54 154t-153 57q-100 0 -153.5 -57t-53.5 -154q0 -90 42 -146.5t132 -98.5v-176h-369v167h101l20 -60h95v29q-105 52 -153 119.5t-48 166.5q0 145 108.5 233t284.5 88q180 0 280.5 -83t100.5 -227
q0 -99 -48 -168.5t-152 -128.5v-29z" />
    <glyph glyph-name="partialdiff" unicode="&#x2202;" horiz-adv-x="638" 
d="M201 722l139 74q131 -73 201.5 -184.5t70.5 -232.5q0 -174 -82.5 -283.5t-243.5 -109.5q-127 0 -193.5 57.5t-66.5 162.5q0 145 83 231t220 86q62 0 96 -39q-46 133 -224 238zM295 100q52 0 85.5 35t44.5 78.5t11 92.5q0 103 -101 103q-71 0 -105.5 -55t-34.5 -136
q0 -118 100 -118z" />
    <glyph glyph-name="product" unicode="&#x220f;" horiz-adv-x="880" 
d="M111 624l-74 12v91h806v-91l-74 -12v-520l76 -12v-92h-322v92l76 12v516h-318v-516l76 -12v-92h-322v92l76 12v520z" />
    <glyph glyph-name="summation" unicode="&#x2211;" horiz-adv-x="662" 
d="M627 182v-182h-592v96l199 281l-179 254v96h552v-182h-108l-20 75h-221l169 -239l-194 -274h266l20 75h108z" />
    <glyph glyph-name="minus" unicode="&#x2212;" 
d="M60 266v118h480v-118h-480z" />
    <glyph glyph-name="radical" unicode="&#x221a;" horiz-adv-x="637" 
d="M180 0l-99 367q-7 27 -13 35.5t-15 8.5q-13 0 -33 -10l-22 86q59 42 127 42q84 0 112 -108l77 -297l143 655h167l-206 -779h-238z" />
    <glyph glyph-name="infinity" unicode="&#x221e;" horiz-adv-x="1200" 
d="M893 74q-166 0 -301 141q-67 -66 -137.5 -103.5t-159.5 -37.5q-125 0 -196 62t-71 186q0 120 77 187t202 67q165 0 301 -142q140 142 297 142q125 0 196 -62t71 -186q0 -120 -77 -187t-202 -67zM299 188q53 0 99 33t105 98q-39 47 -64.5 73t-63.5 48t-76 22
q-57 0 -88 -36t-31 -101q0 -64 31 -100.5t88 -36.5zM901 462q-54 0 -100.5 -33t-103.5 -98q59 -72 103.5 -107.5t100.5 -35.5q57 0 88 36t31 101q0 64 -31 100.5t-88 36.5z" />
    <glyph glyph-name="integral" unicode="&#x222b;" horiz-adv-x="415" 
d="M79 -103q46 0 46 75v616q0 94 52 147.5t155 53.5q70 0 127 -25l-68 -118q-23 23 -55 23q-46 0 -46 -75v-616q0 -94 -52 -147.5t-155 -53.5q-70 0 -127 25l68 118q23 -23 55 -23z" />
    <glyph glyph-name="approxequal" unicode="&#x2248;" 
d="M489 296l65 -64q-52 -114 -160 -114q-48 0 -107.5 29t-82.5 29q-46 0 -93 -58l-65 64q52 114 160 114q48 0 107.5 -29t82.5 -29q46 0 93 58zM489 532l65 -64q-52 -114 -160 -114q-48 0 -107.5 29t-82.5 29q-46 0 -93 -58l-65 64q52 114 160 114q48 0 107.5 -29t82.5 -29
q46 0 93 58z" />
    <glyph glyph-name="notequal" unicode="&#x2260;" 
d="M60 384v118h235l54 135h152l-54 -135h93v-118h-141l-47 -118h188v-118h-235l-54 -135h-152l54 135h-93v118h140l47 118h-187z" />
    <glyph glyph-name="lessequal" unicode="&#x2264;" 
d="M540 0h-480v118h480v-118zM70 388v114l440 220v-138l-285 -139l285 -139v-138z" />
    <glyph glyph-name="greaterequal" unicode="&#x2265;" 
d="M540 0h-480v118h480v-118zM530 502v-114l-440 -220v138l285 139l-285 139v138z" />
    <glyph glyph-name="lozenge" unicode="&#x25ca;" 
d="M358 0h-116l-220 364l220 363h116l220 -364zM307 169l107 186l-121 203l-107 -186z" />
    <glyph glyph-name="commaaccent" unicode="&#xf004;" horiz-adv-x="295" 
d="M157 -212h-132l68 137h177z" />
    <glyph glyph-name="commaaccent" unicode="&#xf6c3;" horiz-adv-x="295" 
d="M157 -212h-132l68 137h177z" />
    <glyph glyph-name="apple" unicode="&#xf8ff;" horiz-adv-x="582" 
d="M291 474q12 0 20.5 8.5t8.5 20.5v55q0 18 10.5 29.5t26.5 11.5q12 0 33.5 -14t47.5 -14q12 0 27 5t27 5q25 0 40.5 -17.5t15.5 -38.5t-13.5 -35.5t-27 -32.5t-13.5 -47q0 -2 0.5 -9t0.5 -11q0 -16 -12 -26.5t-27 -10.5q-12 0 -20 5l-46 27q-10 6 -19 6q-12 0 -19.5 -9
t-7.5 -20q0 -16 16 -25l46 -27q22 -13 22 -34q0 -16 -11 -27q-5 -5 -20.5 -12.5t-24.5 -16.5q-16 -16 -23 -44t-19 -40q-15 -15 -39 -15t-39 15q-12 12 -19 40t-23 44q-9 9 -24.5 16.5t-20.5 12.5q-11 11 -11 27q0 21 22 34l46 27q16 9 16 25q0 11 -7.5 20t-19.5 9
q-9 0 -19 -6l-46 -27q-8 -5 -20 -5q-15 0 -27 10.5t-12 26.5q0 4 0.5 11t0.5 9q0 29 -13.5 47t-27 32.5t-13.5 35.5t15.5 38.5t40.5 17.5q12 0 27 -5t27 -5q26 0 47.5 14t33.5 14q16 0 26.5 -11.5t10.5 -29.5v-55q0 -12 8.5 -20.5t20.5 -8.5z" />
    <glyph glyph-name="C.1" horiz-adv-x="725" 
d="M652 185l51 -88q-118 -113 -283 -113q-171 0 -276 101t-105 274q0 226 183 368h476l-111 -192q-58 72 -162 72q-93 0 -148.5 -65t-55.5 -177q0 -123 60.5 -189t173.5 -66q96 0 197 75z" />
    <glyph glyph-name="Ccedilla.1" horiz-adv-x="725" 
d="M271 -212v109q31 -4 60 -4q47 0 47 36q0 21 -13 58q-149 16 -237.5 115t-88.5 257q0 226 183 368h476l-111 -192q-58 72 -162 72q-93 0 -148.5 -65t-55.5 -177q0 -123 60.5 -189t173.5 -66q96 0 197 75l51 -88q-90 -87 -211 -107q25 -39 25 -85q0 -121 -190 -121
q-25 0 -56 4z" />
    <glyph glyph-name="Cacute.1" horiz-adv-x="725" 
d="M652 185l51 -88q-118 -113 -283 -113q-171 0 -276 101t-105 274q0 226 183 368h476l-111 -192q-58 72 -162 72q-93 0 -148.5 -65t-55.5 -177q0 -123 60.5 -189t173.5 -66q96 0 197 75zM477 793h-132l78 146h177z" />
    <glyph glyph-name="Ccaron.1" horiz-adv-x="725" 
d="M652 185l51 -88q-118 -113 -283 -113q-171 0 -276 101t-105 274q0 226 183 368h476l-111 -192q-58 72 -162 72q-93 0 -148.5 -65t-55.5 -177q0 -123 60.5 -189t173.5 -66q96 0 197 75zM306 793l-88 146h132l61 -82l61 82h128l-88 -146h-206z" />
    <glyph glyph-name="Ccircumflex.1" horiz-adv-x="725" 
d="M652 185l51 -88q-118 -113 -283 -113q-171 0 -276 101t-105 274q0 226 183 368h476l-111 -192q-58 72 -162 72q-93 0 -148.5 -65t-55.5 -177q0 -123 60.5 -189t173.5 -66q96 0 197 75zM514 939l88 -146h-132l-61 82l-61 -82h-128l88 146h206z" />
    <glyph glyph-name="Cdotaccent.1" horiz-adv-x="725" 
d="M652 185l51 -88q-118 -113 -283 -113q-171 0 -276 101t-105 274q0 226 183 368h476l-111 -192q-58 72 -162 72q-93 0 -148.5 -65t-55.5 -177q0 -123 60.5 -189t173.5 -66q96 0 197 75zM492 939v-146h-165v146h165z" />
    <glyph glyph-name="G.1" horiz-adv-x="800" 
d="M732 0h-114l-14 36q-77 -52 -190 -52q-165 0 -270 104.5t-105 268.5q0 111 49 207.5t139 162.5h501l-113 -195q-57 75 -171 75q-102 0 -163.5 -67.5t-61.5 -174.5q0 -117 67.5 -185.5t177.5 -68.5q58 0 105 18v248h106q57 0 57 -57v-320z" />
    <glyph glyph-name="Gcommaaccent.1" horiz-adv-x="800" 
d="M732 0h-114l-14 36q-77 -52 -190 -52q-165 0 -270 104.5t-105 268.5q0 111 49 207.5t139 162.5h501l-113 -195q-57 75 -171 75q-102 0 -163.5 -67.5t-61.5 -174.5q0 -117 67.5 -185.5t177.5 -68.5q58 0 105 18v248h106q57 0 57 -57v-320zM397 -212h-132l68 137h177z" />
    <glyph glyph-name="Gbreve.1" horiz-adv-x="800" 
d="M732 0h-114l-14 36q-77 -52 -190 -52q-165 0 -270 104.5t-105 268.5q0 111 49 207.5t139 162.5h501l-113 -195q-57 75 -171 75q-102 0 -163.5 -67.5t-61.5 -174.5q0 -117 67.5 -185.5t177.5 -68.5q58 0 105 18v248h106q57 0 57 -57v-320zM509 939h100q-5 -72 -50 -112
t-124 -40t-123 40t-49 112h100q6 -55 74 -55q66 0 72 55z" />
    <glyph glyph-name="Gcircumflex.1" horiz-adv-x="800" 
d="M732 0h-114l-14 36q-77 -52 -190 -52q-165 0 -270 104.5t-105 268.5q0 111 49 207.5t139 162.5h501l-113 -195q-57 75 -171 75q-102 0 -163.5 -67.5t-61.5 -174.5q0 -117 67.5 -185.5t177.5 -68.5q58 0 105 18v248h106q57 0 57 -57v-320zM540 939l88 -146h-132l-61 82
l-61 -82h-128l88 146h206z" />
    <glyph glyph-name="Gdotaccent.1" horiz-adv-x="800" 
d="M732 0h-114l-14 36q-77 -52 -190 -52q-165 0 -270 104.5t-105 268.5q0 111 49 207.5t139 162.5h501l-113 -195q-57 75 -171 75q-102 0 -163.5 -67.5t-61.5 -174.5q0 -117 67.5 -185.5t177.5 -68.5q58 0 105 18v248h106q57 0 57 -57v-320zM519 939v-146h-165v146h165z" />
    <glyph glyph-name="S.1" horiz-adv-x="655" 
d="M605 727l-94 -163q-77 69 -173 69q-59 0 -88 -24t-29 -61q0 -33 21.5 -57.5t56 -40.5t76.5 -30t83.5 -32t76 -40.5t56 -60.5t21.5 -88q0 -91 -76.5 -153t-237.5 -62q-80 0 -155.5 22t-124.5 58l69 120q106 -87 216 -87q63 0 94 24.5t31 67.5t-40 71.5t-96.5 47.5
t-113 42.5t-96.5 70.5t-40 117q0 60 28.5 111t68.5 78h466z" />
    <glyph glyph-name="Scaron.1" horiz-adv-x="655" 
d="M605 727l-94 -163q-77 69 -173 69q-59 0 -88 -24t-29 -61q0 -33 21.5 -57.5t56 -40.5t76.5 -30t83.5 -32t76 -40.5t56 -60.5t21.5 -88q0 -91 -76.5 -153t-237.5 -62q-80 0 -155.5 22t-124.5 58l69 120q106 -87 216 -87q63 0 94 24.5t31 67.5t-40 71.5t-96.5 47.5
t-113 42.5t-96.5 70.5t-40 117q0 60 28.5 111t68.5 78h466zM229 793l-88 146h132l61 -82l61 82h128l-88 -146h-206z" />
    <glyph glyph-name="Sacute.1" horiz-adv-x="655" 
d="M605 727l-94 -163q-77 69 -173 69q-59 0 -88 -24t-29 -61q0 -33 21.5 -57.5t56 -40.5t76.5 -30t83.5 -32t76 -40.5t56 -60.5t21.5 -88q0 -91 -76.5 -153t-237.5 -62q-80 0 -155.5 22t-124.5 58l69 120q106 -87 216 -87q63 0 94 24.5t31 67.5t-40 71.5t-96.5 47.5
t-113 42.5t-96.5 70.5t-40 117q0 60 28.5 111t68.5 78h466zM372 793h-132l78 146h177z" />
    <glyph glyph-name="Scedilla.1" horiz-adv-x="655" 
d="M184 -212v109q31 -4 60 -4q47 0 47 36q0 23 -12 56q-75 2 -145 23.5t-116 55.5l69 120q106 -87 216 -87q63 0 94 24.5t31 67.5t-40 71.5t-96.5 47.5t-113 42.5t-96.5 70.5t-40 117q0 60 28.5 111t68.5 78h466l-94 -163q-77 69 -173 69q-59 0 -88 -24t-29 -61
q0 -33 21.5 -57.5t56 -40.5t76.5 -30t83.5 -32t76 -40.5t56 -60.5t21.5 -88q0 -73 -51 -129.5t-158 -76.5q27 -42 27 -88q0 -121 -190 -121q-25 0 -56 4z" />
    <glyph glyph-name="Scommaaccent.1" horiz-adv-x="655" 
d="M605 727l-94 -163q-77 69 -173 69q-59 0 -88 -24t-29 -61q0 -33 21.5 -57.5t56 -40.5t76.5 -30t83.5 -32t76 -40.5t56 -60.5t21.5 -88q0 -91 -76.5 -153t-237.5 -62q-80 0 -155.5 22t-124.5 58l69 120q106 -87 216 -87q63 0 94 24.5t31 67.5t-40 71.5t-96.5 47.5
t-113 42.5t-96.5 70.5t-40 117q0 60 28.5 111t68.5 78h466zM317 -212h-132l68 137h177z" />
    <glyph glyph-name="Scircumflex.1" horiz-adv-x="655" 
d="M605 727l-94 -163q-77 69 -173 69q-59 0 -88 -24t-29 -61q0 -33 21.5 -57.5t56 -40.5t76.5 -30t83.5 -32t76 -40.5t56 -60.5t21.5 -88q0 -91 -76.5 -153t-237.5 -62q-80 0 -155.5 22t-124.5 58l69 120q106 -87 216 -87q63 0 94 24.5t31 67.5t-40 71.5t-96.5 47.5
t-113 42.5t-96.5 70.5t-40 117q0 60 28.5 111t68.5 78h466zM433 939l88 -146h-132l-61 82l-61 -82h-128l88 146h206z" />
    <glyph glyph-name="a.1" horiz-adv-x="680" 
d="M649 116l22 -86q-68 -44 -138 -44q-69 0 -96 48q-65 -48 -155 -48q-47 0 -89.5 14.5t-79 45t-58.5 84t-22 124.5q0 127 76 201t188 74q92 0 155 -53l19 39h169v-92l-56 -9v-279q0 -31 20 -31t45 12zM419 132v251q-41 30 -92 30q-62 0 -93 -42.5t-31 -113.5t31.5 -113
t92.5 -42q50 0 92 30z" />
    <glyph glyph-name="aogonek.1" horiz-adv-x="680" 
d="M638 -116l13 -85q-57 -22 -113 -22q-145 0 -145 109q0 74 78 114q-22 13 -34 34q-65 -48 -155 -48q-47 0 -89.5 14.5t-79 45t-58.5 84t-22 124.5q0 127 76 201t188 74q92 0 155 -53l19 39h169v-92l-56 -9v-279q0 -31 20 -31t45 12l22 -86q-77 -44 -108.5 -71t-31.5 -53
q0 -32 41 -32q30 0 66 10zM419 132v251q-41 30 -92 30q-62 0 -93 -42.5t-31 -113.5t31.5 -113t92.5 -42q50 0 92 30z" />
    <glyph glyph-name="agrave.1" horiz-adv-x="680" 
d="M649 116l22 -86q-68 -44 -138 -44q-69 0 -96 48q-65 -48 -155 -48q-47 0 -89.5 14.5t-79 45t-58.5 84t-22 124.5q0 127 76 201t188 74q92 0 155 -53l19 39h169v-92l-56 -9v-279q0 -31 20 -31t45 12zM419 132v251q-41 30 -92 30q-62 0 -93 -42.5t-31 -113.5t31.5 -113
t92.5 -42q50 0 92 30zM420 581h-132l-123 146h177z" />
    <glyph glyph-name="aacute.1" horiz-adv-x="680" 
d="M649 116l22 -86q-68 -44 -138 -44q-69 0 -96 48q-65 -48 -155 -48q-47 0 -89.5 14.5t-79 45t-58.5 84t-22 124.5q0 127 76 201t188 74q92 0 155 -53l19 39h169v-92l-56 -9v-279q0 -31 20 -31t45 12zM419 132v251q-41 30 -92 30q-62 0 -93 -42.5t-31 -113.5t31.5 -113
t92.5 -42q50 0 92 30zM377 581h-132l78 146h177z" />
    <glyph glyph-name="acircumflex.1" horiz-adv-x="680" 
d="M649 116l22 -86q-68 -44 -138 -44q-69 0 -96 48q-65 -48 -155 -48q-47 0 -89.5 14.5t-79 45t-58.5 84t-22 124.5q0 127 76 201t188 74q92 0 155 -53l19 39h169v-92l-56 -9v-279q0 -31 20 -31t45 12zM419 132v251q-41 30 -92 30q-62 0 -93 -42.5t-31 -113.5t31.5 -113
t92.5 -42q50 0 92 30zM435 727l88 -146h-132l-61 82l-61 -82h-128l88 146h206z" />
    <glyph glyph-name="atilde.1" horiz-adv-x="680" 
d="M649 116l22 -86q-68 -44 -138 -44q-69 0 -96 48q-65 -48 -155 -48q-47 0 -89.5 14.5t-79 45t-58.5 84t-22 124.5q0 127 76 201t188 74q92 0 155 -53l19 39h169v-92l-56 -9v-279q0 -31 20 -31t45 12zM419 132v251q-41 30 -92 30q-62 0 -93 -42.5t-31 -113.5t31.5 -113
t92.5 -42q50 0 92 30zM454 731l63 -65q-37 -89 -118 -89q-35 0 -78 20t-60 20q-30 0 -51 -40l-63 65q37 89 118 89q35 0 78 -20t60 -20q30 0 51 40z" />
    <glyph glyph-name="adieresis.1" horiz-adv-x="680" 
d="M649 116l22 -86q-68 -44 -138 -44q-69 0 -96 48q-65 -48 -155 -48q-47 0 -89.5 14.5t-79 45t-58.5 84t-22 124.5q0 127 76 201t188 74q92 0 155 -53l19 39h169v-92l-56 -9v-279q0 -31 20 -31t45 12zM419 132v251q-41 30 -92 30q-62 0 -93 -42.5t-31 -113.5t31.5 -113
t92.5 -42q50 0 92 30zM297 727v-146h-145v146h145zM513 727v-146h-145v146h145z" />
    <glyph glyph-name="aring.1" horiz-adv-x="680" 
d="M649 116l22 -86q-68 -44 -138 -44q-69 0 -96 48q-65 -48 -155 -48q-47 0 -89.5 14.5t-79 45t-58.5 84t-22 124.5q0 127 76 201t188 74q92 0 155 -53l19 39h169v-92l-56 -9v-279q0 -31 20 -31t45 12zM419 132v251q-41 30 -92 30q-62 0 -93 -42.5t-31 -113.5t31.5 -113
t92.5 -42q50 0 92 30zM333 814q74 0 116.5 -30.5t42.5 -87.5q0 -55 -44.5 -88t-116.5 -33q-74 0 -116.5 30.5t-42.5 87.5q0 55 44.5 88t116.5 33zM332 641q25 0 39.5 14t14.5 39q0 26 -14 40t-40 14q-25 0 -39.5 -14t-14.5 -39t14 -39.5t40 -14.5z" />
    <glyph glyph-name="abreve.1" horiz-adv-x="680" 
d="M649 116l22 -86q-68 -44 -138 -44q-69 0 -96 48q-65 -48 -155 -48q-47 0 -89.5 14.5t-79 45t-58.5 84t-22 124.5q0 127 76 201t188 74q92 0 155 -53l19 39h169v-92l-56 -9v-279q0 -31 20 -31t45 12zM419 132v251q-41 30 -92 30q-62 0 -93 -42.5t-31 -113.5t31.5 -113
t92.5 -42q50 0 92 30zM405 727h100q-5 -72 -50 -112t-124 -40t-123 40t-49 112h100q6 -55 74 -55q66 0 72 55z" />
    <glyph glyph-name="amacron.1" horiz-adv-x="680" 
d="M649 116l22 -86q-68 -44 -138 -44q-69 0 -96 48q-65 -48 -155 -48q-47 0 -89.5 14.5t-79 45t-58.5 84t-22 124.5q0 127 76 201t188 74q92 0 155 -53l19 39h169v-92l-56 -9v-279q0 -31 20 -31t45 12zM419 132v251q-41 30 -92 30q-62 0 -93 -42.5t-31 -113.5t31.5 -113
t92.5 -42q50 0 92 30zM162 595v104h340v-104h-340z" />
    <glyph glyph-name="b.1" horiz-adv-x="605" 
d="M61 215v463l-56 9v92h180q25 0 33 -11t8 -37v-509q0 -66 22 -94t68 -28q45 0 66 29t21 94v79l-74 45v168h141q30 0 43 -11t17 -32q24 -124 24 -226q0 -125 -65.5 -192.5t-186.5 -67.5q-115 0 -178 60t-63 169z" />
    <glyph glyph-name="b_e" horiz-adv-x="1175" 
d="M61 215v463l-56 9v92h180q25 0 33 -11t8 -37v-509q0 -66 22 -94t68 -28q45 0 66 29t21 94v78q-36 20 -74 46v168h141q30 0 43 -11t17 -32q13 -68 20 -140q37 -14 82 -25q17 102 91.5 162t190.5 60q104 0 166 -46.5t62 -118.5q0 -174 -327 -174h-16q25 -92 136 -92
q91 0 169 54l44 -70q-41 -45 -106.5 -70.5t-136.5 -25.5q-119 0 -191 57.5t-84 166.5q-41 10 -76 22q-4 -118 -69.5 -182t-182.5 -64q-115 0 -178 60t-63 169zM903 417q-44 0 -74 -33.5t-37 -95.5h16q85 0 124.5 16.5t39.5 54.5q0 24 -18 41t-51 17z" />
    <glyph glyph-name="c.1" horiz-adv-x="526" 
d="M473 154l48 -83q-35 -38 -93 -61.5t-122 -23.5q-129 0 -201 70.5t-72 197.5q0 83 33 151t87 110h363l-84 -145q-53 44 -115 44q-53 0 -83.5 -40t-30.5 -117q0 -156 133 -156q73 0 137 53z" />
    <glyph glyph-name="ccedilla.1" horiz-adv-x="526" 
d="M136 -212v109q31 -4 60 -4q47 0 47 36q0 26 -15 65q-94 20 -144.5 86.5t-50.5 173.5q0 83 33 151t87 110h363l-84 -145q-53 44 -115 44q-53 0 -83.5 -40t-30.5 -117q0 -156 133 -156q73 0 137 53l48 -83q-59 -66 -164 -81q25 -39 25 -85q0 -121 -190 -121q-25 0 -56 4z
" />
    <glyph glyph-name="cacute.1" horiz-adv-x="526" 
d="M473 154l48 -83q-35 -38 -93 -61.5t-122 -23.5q-129 0 -201 70.5t-72 197.5q0 83 33 151t87 110h363l-84 -145q-53 44 -115 44q-53 0 -83.5 -40t-30.5 -117q0 -156 133 -156q73 0 137 53zM358 581h-132l78 146h177z" />
    <glyph glyph-name="ccaron.1" horiz-adv-x="526" 
d="M473 154l48 -83q-35 -38 -93 -61.5t-122 -23.5q-129 0 -201 70.5t-72 197.5q0 83 33 151t87 110h363l-84 -145q-53 44 -115 44q-53 0 -83.5 -40t-30.5 -117q0 -156 133 -156q73 0 137 53zM201 581l-88 146h132l61 -82l61 82h128l-88 -146h-206z" />
    <glyph glyph-name="ccircumflex.1" horiz-adv-x="526" 
d="M473 154l48 -83q-35 -38 -93 -61.5t-122 -23.5q-129 0 -201 70.5t-72 197.5q0 83 33 151t87 110h363l-84 -145q-53 44 -115 44q-53 0 -83.5 -40t-30.5 -117q0 -156 133 -156q73 0 137 53zM399 727l88 -146h-132l-61 82l-61 -82h-128l88 146h206z" />
    <glyph glyph-name="cdotaccent.1" horiz-adv-x="526" 
d="M473 154l48 -83q-35 -38 -93 -61.5t-122 -23.5q-129 0 -201 70.5t-72 197.5q0 83 33 151t87 110h363l-84 -145q-53 44 -115 44q-53 0 -83.5 -40t-30.5 -117q0 -156 133 -156q73 0 137 53zM377 727v-146h-165v146h165z" />
    <glyph glyph-name="d.1" horiz-adv-x="673" 
d="M649 116l22 -86q-68 -44 -138 -44q-69 0 -96 48q-65 -48 -155 -48q-47 0 -89.5 14.5t-79 45t-58.5 84t-22 124.5q0 127 76 201t188 74q73 0 122 -30v179l-56 9v92h162q36 0 47.5 -13t11.5 -44v-587q0 -31 20 -31t45 12zM419 132v251q-41 30 -92 30q-62 0 -93 -42.5
t-31 -113.5t31.5 -113t92.5 -42q50 0 92 30z" />
    <glyph glyph-name="dcaron.1" horiz-adv-x="679" 
d="M649 116l22 -86q-68 -44 -138 -44q-69 0 -96 48q-65 -48 -155 -48q-47 0 -89.5 14.5t-79 45t-58.5 84t-22 124.5q0 127 76 201t188 74q73 0 122 -30v179l-56 9v92h162q36 0 47.5 -13t11.5 -44v-587q0 -31 20 -31t45 12zM419 132v251q-41 30 -92 30q-62 0 -93 -42.5
t-31 -113.5t31.5 -113t92.5 -42q50 0 92 30zM705 647h-102l31 142h147z" />
    <glyph glyph-name="dcroat.1" horiz-adv-x="673" 
d="M649 116l22 -86q-68 -44 -138 -44q-69 0 -96 48q-65 -48 -155 -48q-47 0 -89.5 14.5t-79 45t-58.5 84t-22 124.5q0 127 76 201t188 74q73 0 122 -30v59h-132v100h132v32l-56 9v90h162q36 0 47.5 -13t11.5 -44v-74h56v-100h-56v-423q0 -31 20 -31t45 12zM419 132v251
q-41 30 -92 30q-62 0 -93 -42.5t-31 -113.5t31.5 -113t92.5 -42q50 0 92 30z" />
    <glyph glyph-name="i.1" horiz-adv-x="328" 
d="M304 116l22 -86q-68 -44 -138 -44q-50 0 -82 29t-32 96v303l-55 9v92h161q36 0 47.5 -13t11.5 -44v-323q0 -31 20 -31q19 0 45 12zM239 717v-146h-165v146h165z" />
    <glyph glyph-name="iogonek.1" horiz-adv-x="328" 
d="M304 116l22 -86q-80 -49 -108 -73.5t-28 -50.5q0 -32 41 -32q30 0 66 10l13 -85q-57 -22 -113 -22q-145 0 -145 109q0 73 77 114q-55 24 -55 111v303l-55 9v92h161q36 0 47.5 -13t11.5 -44v-323q0 -31 20 -31q19 0 45 12zM239 717v-146h-165v146h165z" />
    <glyph glyph-name="dotlessi.1" horiz-adv-x="328" 
d="M304 116l22 -86q-68 -44 -138 -44q-50 0 -82 29t-32 96v303l-55 9v92h161q36 0 47.5 -13t11.5 -44v-323q0 -31 20 -31q19 0 45 12z" />
    <glyph glyph-name="igrave.1" horiz-adv-x="328" 
d="M304 116l22 -86q-68 -44 -138 -44q-50 0 -82 29t-32 96v303l-55 9v92h161q36 0 47.5 -13t11.5 -44v-323q0 -31 20 -31q19 0 45 12zM240 581h-132l-123 146h177z" />
    <glyph glyph-name="iacute.1" horiz-adv-x="328" 
d="M304 116l22 -86q-68 -44 -138 -44q-50 0 -82 29t-32 96v303l-55 9v92h161q36 0 47.5 -13t11.5 -44v-323q0 -31 20 -31q19 0 45 12zM192 581h-132l78 146h177z" />
    <glyph glyph-name="icircumflex.1" horiz-adv-x="328" 
d="M304 116l22 -86q-68 -44 -138 -44q-50 0 -82 29t-32 96v303l-55 9v92h161q36 0 47.5 -13t11.5 -44v-323q0 -31 20 -31q19 0 45 12zM261 727l88 -146h-132l-61 82l-61 -82h-128l88 146h206z" />
    <glyph glyph-name="idieresis.1" horiz-adv-x="328" 
d="M304 116l22 -86q-68 -44 -138 -44q-50 0 -82 29t-32 96v303l-55 9v92h161q36 0 47.5 -13t11.5 -44v-323q0 -31 20 -31q19 0 45 12zM132 727v-146h-143v146h143zM326 727v-146h-143v146h143z" />
    <glyph glyph-name="imacron.1" horiz-adv-x="328" 
d="M304 116l22 -86q-68 -44 -138 -44q-50 0 -82 29t-32 96v303l-55 9v92h161q36 0 47.5 -13t11.5 -44v-323q0 -31 20 -31q19 0 45 12zM-15 595v104h340v-104h-340z" />
    <glyph glyph-name="itilde.1" horiz-adv-x="328" 
d="M304 116l22 -86q-68 -44 -138 -44q-50 0 -82 29t-32 96v303l-55 9v92h161q36 0 47.5 -13t11.5 -44v-323q0 -31 20 -31q19 0 45 12zM270 731l63 -65q-37 -89 -118 -89q-35 0 -78 20t-60 20q-30 0 -51 -40l-63 65q37 89 118 89q36 0 78.5 -20t59.5 -20q30 0 51 40z" />
    <glyph glyph-name="l.1" horiz-adv-x="315" 
d="M291 116l22 -86q-68 -44 -138 -44q-50 0 -82 29t-32 96v567l-56 9v92h180q25 0 33 -11t8 -37v-596q0 -31 20 -31t45 12z" />
    <glyph glyph-name="lslash.1" horiz-adv-x="336" 
d="M312 116l22 -86q-68 -44 -138 -44q-50 0 -82 29t-32 96v195l-72 -30v114l72 30v258l-56 9v92h162q36 0 47.5 -13t11.5 -44v-234l72 29v-114l-72 -29v-239q0 -31 20 -31q19 0 45 12z" />
    <glyph glyph-name="lcommaaccent.1" horiz-adv-x="315" 
d="M291 116l22 -86q-68 -44 -138 -44q-50 0 -82 29t-32 96v567l-56 9v92h180q25 0 33 -11t8 -37v-596q0 -31 20 -31t45 12zM156 -212h-132l68 137h177z" />
    <glyph glyph-name="lcaron.1" horiz-adv-x="318" 
d="M291 116l22 -86q-68 -44 -138 -44q-50 0 -82 29t-32 96v567l-56 9v92h180q25 0 33 -11t8 -37v-596q0 -31 20 -31t45 12zM347 647h-102l31 142h147z" />
    <glyph glyph-name="lacute.1" horiz-adv-x="315" 
d="M291 116l22 -86q-68 -44 -138 -44q-50 0 -82 29t-32 96v567l-56 9v92h180q25 0 33 -11t8 -37v-596q0 -31 20 -31t45 12zM188 831h-132l78 146h177z" />
    <glyph glyph-name="l_s" horiz-adv-x="746" 
d="M705 489l-64 -111q-57 47 -122 47q-60 0 -60 -44q0 -24 27 -42.5t65.5 -32.5t77.5 -31.5t66 -49t27 -75.5q0 -73 -58.5 -118.5t-173.5 -45.5q-107 0 -182 40q-65 -40 -133 -40q-50 0 -82 29t-32 96v567l-56 9v92h180q25 0 33 -11t8 -37v-596q0 -31 20 -31q44 0 97 51
q71 -62 148 -62q63 0 63 47q0 25 -26.5 44t-64 33t-75.5 31t-64.5 48.5t-26.5 74.5q0 69 54.5 113.5t165.5 44.5q100 0 188 -40z" />
    <glyph glyph-name="l_s.1" horiz-adv-x="746" 
d="M720 515l-79 -137q-57 47 -122 47q-60 0 -60 -44q0 -24 27 -42.5t65.5 -32.5t77.5 -31.5t66 -49t27 -75.5q0 -73 -58.5 -118.5t-173.5 -45.5q-107 0 -182 40q-65 -40 -133 -40q-50 0 -82 29t-32 96v567l-56 9v92h180q25 0 33 -11t8 -37v-596q0 -31 20 -31q44 0 97 51
q71 -62 148 -62q63 0 63 47q0 25 -26.5 44t-64 33t-75.5 31t-64.5 48.5t-26.5 74.5q0 46 22.5 84.5t57.5 59.5h343z" />
    <glyph glyph-name="m.1" horiz-adv-x="983" 
d="M959 116l22 -86q-68 -44 -138 -44q-50 0 -82 29t-32 96v204q0 51 -17 70t-55 19q-43 0 -90 -31v-272l53 -9v-92h-218v315q0 51 -17 70t-55 19q-43 0 -90 -31v-272l53 -9v-92h-218v414l-56 9v92h180l21 -43q81 57 167 57q110 0 152 -63q83 63 175 63q100 0 140 -47.5
t40 -142.5v-204q0 -31 20 -31t45 12z" />
    <glyph glyph-name="n.1" horiz-adv-x="660" 
d="M636 116l22 -86q-68 -44 -138 -44q-50 0 -82 29t-32 96v204q0 51 -17 70t-57 19q-45 0 -92 -31v-272l56 -9v-92h-221v414l-56 9v92h180l21 -43q81 57 169 57q101 0 141.5 -47.5t40.5 -142.5v-204q0 -31 20 -31q19 0 45 12z" />
    <glyph glyph-name="ntilde.1" horiz-adv-x="660" 
d="M636 116l22 -86q-68 -44 -138 -44q-50 0 -82 29t-32 96v204q0 51 -17 70t-57 19q-45 0 -92 -31v-272l56 -9v-92h-221v414l-56 9v92h180l21 -43q81 57 169 57q101 0 141.5 -47.5t40.5 -142.5v-204q0 -31 20 -31q19 0 45 12zM445 731l63 -65q-37 -89 -118 -89q-36 0 -78 20
t-60 20q-30 0 -51 -40l-63 65q37 89 118 89q36 0 78 -20t60 -20q30 0 51 40z" />
    <glyph glyph-name="ncommaaccent.1" horiz-adv-x="660" 
d="M636 116l22 -86q-68 -44 -138 -44q-50 0 -82 29t-32 96v204q0 51 -17 70t-57 19q-45 0 -92 -31v-272l56 -9v-92h-221v414l-56 9v92h180l21 -43q81 57 169 57q101 0 141.5 -47.5t40.5 -142.5v-204q0 -31 20 -31q19 0 45 12zM324 -212h-132l68 137h177z" />
    <glyph glyph-name="nacute.1" horiz-adv-x="660" 
d="M636 116l22 -86q-68 -44 -138 -44q-50 0 -82 29t-32 96v204q0 51 -17 70t-57 19q-45 0 -92 -31v-272l56 -9v-92h-221v414l-56 9v92h180l21 -43q81 57 169 57q101 0 141.5 -47.5t40.5 -142.5v-204q0 -31 20 -31q19 0 45 12zM385 581h-132l78 146h177z" />
    <glyph glyph-name="ncaron.1" horiz-adv-x="660" 
d="M636 116l22 -86q-68 -44 -138 -44q-50 0 -82 29t-32 96v204q0 51 -17 70t-57 19q-45 0 -92 -31v-272l56 -9v-92h-221v414l-56 9v92h180l21 -43q81 57 169 57q101 0 141.5 -47.5t40.5 -142.5v-204q0 -31 20 -31q19 0 45 12zM218 581l-88 146h132l61 -82l61 82h128
l-88 -146h-206z" />
    <glyph glyph-name="r.1" horiz-adv-x="421" 
d="M89 0v380q0 31 -20 31q-19 0 -45 -12l-22 86q68 44 138 44q74 0 98 -60q64 63 169 60v-143q-87 11 -153 -26v-259l56 -9v-92h-221z" />
    <glyph glyph-name="racute.1" horiz-adv-x="421" 
d="M89 0v380q0 31 -20 31q-19 0 -45 -12l-22 86q68 44 138 44q74 0 98 -60q64 63 169 60v-143q-87 11 -153 -26v-259l56 -9v-92h-221zM274 581h-132l78 146h177z" />
    <glyph glyph-name="rcaron.1" horiz-adv-x="421" 
d="M89 0v380q0 31 -20 31q-19 0 -45 -12l-22 86q68 44 138 44q74 0 98 -60q64 63 169 60v-143q-87 11 -153 -26v-259l56 -9v-92h-221zM129 581l-88 146h132l61 -82l61 82h128l-88 -146h-206z" />
    <glyph glyph-name="rcommaaccent.1" horiz-adv-x="421" 
d="M89 0v380q0 31 -20 31q-19 0 -45 -12l-22 86q68 44 138 44q74 0 98 -60q64 63 169 60v-143q-87 11 -153 -26v-259l56 -9v-92h-221zM191 -212h-132l68 137h177z" />
    <glyph glyph-name="r.2" horiz-adv-x="539" 
d="M310 92v-92h-221v380q0 31 -20 31q-19 0 -45 -12l-22 86q68 44 128 44q23 0 40.5 -9.5t25.5 -21.5t17 -21.5t18 -9.5q18 0 18 16q0 4 -2 15.5t-2 22.5q0 17 13 30t35 13q21 0 54 -23t49 -23q32 0 32 33q0 41 -59 110l67 50q106 -96 106 -205q0 -65 -36.5 -106.5
t-91.5 -41.5q-33 0 -64 16t-46 16q-50 0 -50 -72v-217z" />
    <glyph glyph-name="racute.2" horiz-adv-x="539" 
d="M310 92v-92h-221v380q0 31 -20 31q-19 0 -45 -12l-22 86q68 44 128 44q23 0 40.5 -9.5t25.5 -21.5t17 -21.5t18 -9.5q18 0 18 16q0 4 -2 15.5t-2 22.5q0 17 13 30t35 13q21 0 54 -23t49 -23q32 0 32 33q0 41 -59 110l67 50q106 -96 106 -205q0 -65 -36.5 -106.5
t-91.5 -41.5q-33 0 -64 16t-46 16q-50 0 -50 -72v-217zM244 581h-132l78 146h177z" />
    <glyph glyph-name="rcaron.2" horiz-adv-x="539" 
d="M310 92v-92h-221v380q0 31 -20 31q-19 0 -45 -12l-22 86q68 44 128 44q23 0 40.5 -9.5t25.5 -21.5t17 -21.5t18 -9.5q18 0 18 16q0 4 -2 15.5t-2 22.5q0 17 13 30t35 13q21 0 54 -23t49 -23q32 0 32 33q0 41 -59 110l67 50q106 -96 106 -205q0 -65 -36.5 -106.5
t-91.5 -41.5q-33 0 -64 16t-46 16q-50 0 -50 -72v-217zM96 587l-83 140h124l57 -79l58 79h120l-83 -140h-193z" />
    <glyph glyph-name="rcommaaccent.2" horiz-adv-x="539" 
d="M310 92v-92h-221v380q0 31 -20 31q-19 0 -45 -12l-22 86q68 44 128 44q23 0 40.5 -9.5t25.5 -21.5t17 -21.5t18 -9.5q18 0 18 16q0 4 -2 15.5t-2 22.5q0 17 13 30t35 13q21 0 54 -23t49 -23q32 0 32 33q0 41 -59 110l67 50q106 -96 106 -205q0 -65 -36.5 -106.5
t-91.5 -41.5q-33 0 -64 16t-46 16q-50 0 -50 -72v-217zM191 -212h-132l68 137h177z" />
    <glyph glyph-name="s.1" horiz-adv-x="484" 
d="M17 43l64 112q71 -62 148 -62q63 0 63 47q0 25 -26.5 44t-64.5 33t-75.5 31t-64 48.5t-26.5 74.5q0 46 22.5 84.5t57.5 59.5h343l-79 -137q-57 47 -122 47q-60 0 -60 -44q0 -24 27 -42.5t65.5 -32.5t77.5 -31.5t66 -49t27 -75.5q0 -73 -58.5 -118.5t-173.5 -45.5
q-128 0 -211 57z" />
    <glyph glyph-name="scaron.1" horiz-adv-x="484" 
d="M17 43l64 112q71 -62 148 -62q63 0 63 47q0 25 -26.5 44t-64.5 33t-75.5 31t-64 48.5t-26.5 74.5q0 46 22.5 84.5t57.5 59.5h343l-79 -137q-57 47 -122 47q-60 0 -60 -44q0 -24 27 -42.5t65.5 -32.5t77.5 -31.5t66 -49t27 -75.5q0 -73 -58.5 -118.5t-173.5 -45.5
q-128 0 -211 57zM130 581l-88 146h132l61 -82l61 82h128l-88 -146h-206z" />
    <glyph glyph-name="sacute.1" horiz-adv-x="484" 
d="M17 43l64 112q71 -62 148 -62q63 0 63 47q0 25 -26.5 44t-64.5 33t-75.5 31t-64 48.5t-26.5 74.5q0 46 22.5 84.5t57.5 59.5h343l-79 -137q-57 47 -122 47q-60 0 -60 -44q0 -24 27 -42.5t65.5 -32.5t77.5 -31.5t66 -49t27 -75.5q0 -73 -58.5 -118.5t-173.5 -45.5
q-128 0 -211 57zM300 581h-132l78 146h177z" />
    <glyph glyph-name="scedilla.1" horiz-adv-x="484" 
d="M109 -212v109q31 -4 60 -4q47 0 47 36q0 21 -13 58q-114 6 -186 56l64 112q71 -62 148 -62q63 0 63 47q0 25 -26.5 44t-64.5 33t-75.5 31t-64 48.5t-26.5 74.5q0 46 22.5 84.5t57.5 59.5h343l-79 -137q-57 47 -122 47q-60 0 -60 -44q0 -24 27 -42.5t65.5 -32.5
t77.5 -31.5t66 -49t27 -75.5q0 -55 -33.5 -95t-100.5 -57q29 -44 29 -93q0 -121 -190 -121q-25 0 -56 4z" />
    <glyph glyph-name="scommaaccent.1" horiz-adv-x="484" 
d="M17 43l64 112q71 -62 148 -62q63 0 63 47q0 25 -26.5 44t-64.5 33t-75.5 31t-64 48.5t-26.5 74.5q0 46 22.5 84.5t57.5 59.5h343l-79 -137q-57 47 -122 47q-60 0 -60 -44q0 -24 27 -42.5t65.5 -32.5t77.5 -31.5t66 -49t27 -75.5q0 -73 -58.5 -118.5t-173.5 -45.5
q-128 0 -211 57zM217 -212h-132l68 137h177z" />
    <glyph glyph-name="scircumflex.1" horiz-adv-x="484" 
d="M17 43l64 112q71 -62 148 -62q63 0 63 47q0 25 -26.5 44t-64.5 33t-75.5 31t-64 48.5t-26.5 74.5q0 46 22.5 84.5t57.5 59.5h343l-79 -137q-57 47 -122 47q-60 0 -60 -44q0 -24 27 -42.5t65.5 -32.5t77.5 -31.5t66 -49t27 -75.5q0 -73 -58.5 -118.5t-173.5 -45.5
q-128 0 -211 57zM345 727l88 -146h-132l-61 82l-61 -82h-128l88 146h206z" />
    <glyph glyph-name="x.1" horiz-adv-x="576" 
d="M18 0v92l171 171l-78 115q-13 19 -19.5 25t-17.5 6q-14 0 -31 -10l-28 82q53 46 118 46q42 0 69.5 -16.5t50.5 -53.5l66 -96l47 53l-35 9v92h205v-92l-150 -154l91 -132q22 -31 38 -31q14 0 31 10l28 -82q-53 -46 -118 -46q-41 0 -67.5 16.5t-52.5 53.5l-80 112l-64 -69
l35 -9v-92h-209z" />
    <glyph glyph-name="four.1" horiz-adv-x="617" 
d="M315 727h137q57 0 57 -57q0 -39 -33.5 -76t-81 -67l-95 -61t-81 -71.5t-33.5 -84.5v-30h179v149h111q57 0 57 -57v-259l77 -21v-92h-322v92l77 21v53h-279q-57 0 -57 57v70q0 54 21.5 100t53 76.5t69 61l69 54.5t53 56t21.5 66v20z" />
    <glyph glyph-name="seven.1" horiz-adv-x="546" 
d="M320 0h-123q-57 0 -57 57v31q0 76 25 136.5t60.5 97.5t71 69.5t60.5 71t25 83.5v45h-226l-20 -75h-118v211h510v-174q0 -48 -11.5 -86t-30 -64t-40.5 -49l-44 -47.5t-40.5 -52.5t-30 -70.5t-11.5 -95.5v-88z" />
    <glyph glyph-name="zero.tnum" 
d="M298 -16q-141 0 -206 95t-65 283q0 381 275 381q141 0 206 -95t65 -283q0 -381 -275 -381zM301 95q53 0 75.5 62t22.5 206q0 145 -23 207t-77 62q-53 0 -75.5 -62t-22.5 -207t23 -206.5t77 -61.5z" />
    <glyph glyph-name="one.tnum" 
d="M536 0h-462v94l146 20v495l-156 20v98h271q57 0 57 -57v-556l144 -20v-94z" />
    <glyph glyph-name="two.tnum" 
d="M564 0h-462q-57 0 -57 57v82q0 71 34 122t82 79.5t96.5 53t82.5 58.5t34 79q0 43 -24 70.5t-75 27.5q-47 0 -80 -21.5t-68 -64.5l-76 132q106 68 237 68q128 0 197.5 -54t69.5 -154q0 -70 -37.5 -121.5t-91 -81.5t-107 -55.5t-91 -57.5t-37.5 -73v-10h235l20 75h118v-211
z" />
    <glyph glyph-name="three.tnum" 
d="M8 49l72 125q80 -78 178 -78q60 0 92.5 27.5t32.5 76.5q0 53 -39 86t-124 33h-39v108h41q133 0 133 107q0 44 -26.5 71t-75.5 27q-86 0 -149 -87l-73 127q101 71 235 71q130 0 194.5 -56t64.5 -142q0 -106 -97 -150v-2q58 -19 97 -62.5t39 -117.5q0 -109 -83.5 -169
t-226.5 -60q-140 0 -246 65z" />
    <glyph glyph-name="four.tnum" 
d="M319 727h195l-327 -397v-34h162v133h111q57 0 57 -57v-259l77 -21v-92h-322v92l77 21v53h-326v130q0 64 26 96z" />
    <glyph glyph-name="four.tnum.1" 
d="M300 727h137q57 0 57 -57q0 -39 -33.5 -76t-81 -67l-95 -61t-81 -71.5t-33.5 -84.5v-30h179v149h111q57 0 57 -57v-259l77 -21v-92h-322v92l77 21v53h-279q-57 0 -57 57v70q0 54 21.5 100t53 76.5t69 61l69 54.5t53 56t21.5 66v20z" />
    <glyph glyph-name="five.tnum" 
d="M109 299q-20 0 -32 14.5t-12 41.5v372h452v-136h-302v-153q42 8 78 8q146 0 212 -64t66 -162q0 -109 -77.5 -172.5t-231.5 -63.5q-135 0 -241 65l65 127q89 -80 180 -80q124 0 124 113q0 112 -134 112q-48 0 -94.5 -11t-52.5 -11z" />
    <glyph glyph-name="six.tnum" 
d="M519 616q-92 3 -145 -3t-92 -27.5t-55.5 -61.5t-21.5 -108q67 32 147 32q234 0 234 -220q0 -112 -74 -178t-205 -66q-154 0 -217 86.5t-63 245.5q0 128 25 210t84.5 131t151 65.5t231.5 9.5v-116zM306 336q-51 0 -104 -31q1 -111 27 -159t82 -48q97 0 97 122q0 58 -22 87
t-80 29z" />
    <glyph glyph-name="seven.tnum" 
d="M365 0h-128q-33 0 -42.5 16.5t-1.5 51.5q25 115 86.5 267.5t126.5 255.5h-236l-20 -76h-118v212h535v-128q0 -38 -15 -67q-139 -255 -187 -532z" />
    <glyph glyph-name="seven.tnum.1" 
d="M151 516h-118v211h534v-174q0 -48 -12 -86t-31.5 -64t-43 -49l-47 -47.5t-43 -52.5t-31.5 -70.5t-12 -95.5v-88h-123q-57 0 -57 57v31q0 56 14 103.5t36.5 80.5t49.5 61t54 52t49.5 47.5t36.5 52.5t14 61v45h-250z" />
    <glyph glyph-name="eight.tnum" 
d="M298 -16q-278 0 -278 224q0 77 54 131q13 13 27.5 22.5t20.5 14t6 10.5t-5 10.5t-18 13t-24 19.5q-41 41 -41 105q0 101 67.5 155t194.5 54q258 0 258 -210q0 -60 -40 -100q-12 -12 -25 -20.5t-18 -12.5t-5 -11q0 -6 6 -10.5t21 -14.5t28 -23q53 -53 53 -129
q0 -114 -72.5 -171t-209.5 -57zM402 210q0 116 -102 116t-102 -116q0 -115 102 -115t102 115zM386 530q0 102 -86 102t-86 -102q0 -101 86 -101t86 101z" />
    <glyph glyph-name="nine.tnum" 
d="M71 111q71 -5 123.5 -1t89 14.5t59.5 34.5t35 59.5t17 90.5q-67 -31 -147 -31q-234 0 -234 220q0 112 74 178.5t205 66.5q154 0 217 -87t63 -246q0 -129 -25 -211t-85.5 -131t-154 -65.5t-237.5 -7.5v116zM294 390q53 0 104 30q-2 112 -27.5 160.5t-81.5 48.5
q-97 0 -97 -123q0 -58 22 -87t80 -29z" />
    <glyph glyph-name="zero.onum" horiz-adv-x="750" 
d="M372 -16q-154 0 -239.5 77.5t-85.5 217.5t89 219t242 79q154 0 239.5 -77.5t85.5 -217.5t-89 -219t-242 -79zM376 95q76 0 112 50t36 136q0 185 -150 185q-76 0 -112 -50t-36 -136q0 -185 150 -185z" />
    <glyph glyph-name="one.onum" horiz-adv-x="441" 
d="M407 0h-362v92l96 20v333l-106 20v96h221q57 0 57 -57v-392l94 -20v-92z" />
    <glyph glyph-name="two.onum" horiz-adv-x="560" 
d="M518 0h-411q-57 0 -57 57v58q0 59 29.5 99.5t71.5 60.5t83.5 35.5t71 37.5t29.5 53q0 27 -22 47t-63 20q-69 0 -132 -63l-66 113q98 59 216 59q117 0 179.5 -46.5t62.5 -127.5q0 -58 -32.5 -97.5t-78.5 -58t-92 -33t-78.5 -36.5t-32.5 -55v-5h197l18 68h107v-186z" />
    <glyph glyph-name="three.onum" horiz-adv-x="598" 
d="M2 -117l72 125q80 -78 178 -78q60 0 92.5 27.5t32.5 76.5q0 53 -39 86t-124 33h-39v108h41q133 0 133 107q0 44 -26.5 71t-75.5 27q-86 0 -149 -87l-73 127q101 71 235 71q130 0 194.5 -56t64.5 -142q0 -106 -97 -150v-2q58 -19 97 -62.5t39 -117.5q0 -109 -83.5 -169
t-226.5 -60q-140 0 -246 65z" />
    <glyph glyph-name="four.onum" horiz-adv-x="617" 
d="M343 561h195l-338 -407v-24h172v133h111q57 0 57 -57v-259l77 -21v-92h-322v92l77 21v53h-336v130q0 54 26 86z" />
    <glyph glyph-name="four.onum.1" horiz-adv-x="617" 
d="M315 561h137q57 0 57 -57q0 -39 -33.5 -76t-81 -67l-95 -61t-81 -71.5t-33.5 -84.5v-30h179v149h111q57 0 57 -57v-259l77 -21v-92h-322v92l77 21v53h-279q-57 0 -57 57v70q0 54 21.5 100t53 76.5t69 61l69 54.5t53 56t21.5 66v20z" />
    <glyph glyph-name="five.onum" horiz-adv-x="628" 
d="M532 561v-136h-302v-153q42 8 78 8q146 0 212 -64t66 -162q0 -108 -78.5 -172t-233.5 -64q-140 0 -246 65l65 127q89 -80 185 -80q127 0 127 113q0 112 -134 112q-49 0 -95 -11t-52 -11q-20 0 -32 14.5t-12 41.5v372h452z" />
    <glyph glyph-name="six.onum" horiz-adv-x="660" 
d="M549 733v-116q-93 3 -148 -3t-96 -28.5t-59 -64t-24 -111.5q73 39 160 39q48 0 88.5 -10t78 -33t59 -68.5t21.5 -108.5q0 -111 -80 -178t-212 -67q-293 0 -293 333q0 127 27 210t89 131.5t155.5 65t233.5 9.5zM336 337q-57 0 -117 -39q3 -105 32.5 -152.5t89.5 -47.5
q57 0 83.5 34t26.5 89q0 116 -115 116z" />
    <glyph glyph-name="seven.onum" horiz-adv-x="546" 
d="M329 -166h-128q-33 0 -42.5 16.5t-1.5 51.5q25 115 86.5 267.5t126.5 255.5h-217l-20 -76h-118v212h516v-128q0 -38 -15 -67q-139 -255 -187 -532z" />
    <glyph glyph-name="seven.onum.1" horiz-adv-x="546" 
d="M320 -166h-123q-57 0 -57 57v31q0 76 25 136.5t60.5 97.5t71 69.5t60.5 71t25 83.5v45h-226l-20 -75h-118v211h510v-174q0 -48 -11.5 -86t-30 -64t-40.5 -49l-44 -47.5t-40.5 -52.5t-30 -70.5t-11.5 -95.5v-88z" />
    <glyph glyph-name="eight.onum" horiz-adv-x="683" 
d="M339 -16q-140 0 -220.5 56t-80.5 168q0 73 50 123q13 13 27 23t22 14t13 8.5t5 9.5q0 6 -6.5 11t-21.5 14.5t-28 22.5q-39 39 -39 100q0 99 76 154t208 55q133 0 206 -54.5t73 -155.5q0 -57 -39 -96q-13 -13 -28 -22.5t-21.5 -14.5t-6.5 -11q0 -5 5 -9.5t13 -8.5t22 -14
t27 -23q50 -50 50 -122q0 -112 -81.5 -170t-224.5 -58zM466 210q0 116 -125 116q-124 0 -124 -116q0 -115 125 -115q124 0 124 115zM447 530q0 102 -106 102q-105 0 -105 -102q0 -101 106 -101q105 0 105 101z" />
    <glyph glyph-name="nine.onum" horiz-adv-x="660" 
d="M101 -171v116q187 -8 256 31t81 174q-74 -38 -160 -38q-48 0 -88.5 10t-78 33t-59 68.5t-21.5 108.5q0 111 80 178t212 67q293 0 293 -333q0 -170 -51.5 -263.5t-161.5 -128.5t-302 -23zM324 224q59 0 116 38q-3 106 -32 153.5t-89 47.5q-57 0 -83.5 -34t-26.5 -89
q0 -116 115 -116z" />
    <glyph glyph-name="zero.tnum_onum" 
d="M298 -16q-141 0 -206 74.5t-65 221.5q0 297 275 297q141 0 206 -74.5t65 -221.5q0 -297 -275 -297zM301 95q53 0 75.5 42.5t22.5 142.5t-23 143t-77 43q-53 0 -75.5 -43t-22.5 -143t23 -142.5t77 -42.5z" />
    <glyph glyph-name="one.tnum_onum" 
d="M536 0h-462v94l146 20v329l-156 20v98h271q57 0 57 -57v-390l144 -20v-94z" />
    <glyph glyph-name="two.tnum_onum" 
d="M560 0h-457q-57 0 -57 57v58q0 43 17 76t43.5 53t59 35.5t65.5 27t59.5 23.5t43.5 30t17 41q0 28 -21.5 47.5t-68.5 19.5q-79 0 -142 -63l-66 113q98 59 226 59q123 0 185 -46t62 -128q0 -58 -34.5 -97.5t-83.5 -58t-98 -33t-83.5 -36.5t-34.5 -55v-5h243l18 68h107v-186
z" />
    <glyph glyph-name="three.tnum_onum" 
d="M8 -117l72 125q80 -78 178 -78q60 0 92.5 27.5t32.5 76.5q0 53 -39 86t-124 33h-39v108h41q133 0 133 107q0 44 -26.5 71t-75.5 27q-86 0 -149 -87l-73 127q101 71 235 71q130 0 194.5 -56t64.5 -142q0 -106 -97 -150v-2q58 -19 97 -62.5t39 -117.5q0 -109 -83.5 -169
t-226.5 -60q-140 0 -246 65z" />
    <glyph glyph-name="four.tnum_onum" 
d="M319 561h195l-327 -397v-34h162v133h111q57 0 57 -57v-259l77 -21v-92h-322v92l77 21v53h-326v130q0 64 26 96z" />
    <glyph glyph-name="four.tnum_onum.1" 
d="M300 561h137q57 0 57 -57q0 -39 -33.5 -76t-81 -67l-95 -61t-81 -71.5t-33.5 -84.5v-30h179v149h111q57 0 57 -57v-259l77 -21v-92h-322v92l77 21v53h-279q-57 0 -57 57v70q0 54 21.5 100t53 76.5t69 61l69 54.5t53 56t21.5 66v20z" />
    <glyph glyph-name="five.tnum_onum" 
d="M109 133q-20 0 -32 14.5t-12 41.5v372h452v-136h-302v-153q42 8 78 8q146 0 212 -64t66 -162q0 -109 -77.5 -172.5t-231.5 -63.5q-135 0 -241 65l65 127q89 -80 180 -80q124 0 124 113q0 112 -134 112q-48 0 -94.5 -11t-52.5 -11z" />
    <glyph glyph-name="six.tnum_onum" 
d="M519 616q-92 3 -145 -3t-92 -27.5t-55.5 -61.5t-21.5 -108q67 32 147 32q234 0 234 -220q0 -112 -74 -178t-205 -66q-154 0 -217 86.5t-63 245.5q0 128 25 210t84.5 131t151 65.5t231.5 9.5v-116zM306 336q-51 0 -104 -31q1 -111 27 -159t82 -48q97 0 97 122q0 58 -22 87
t-80 29z" />
    <glyph glyph-name="seven.tnum_onum" 
d="M365 -166h-128q-33 0 -42.5 16.5t-1.5 51.5q25 115 86.5 267.5t126.5 255.5h-236l-20 -76h-118v212h535v-128q0 -38 -15 -67q-139 -255 -187 -532z" />
    <glyph glyph-name="seven.tnum_onum.1" 
d="M151 350h-118v211h534v-174q0 -48 -12 -86t-31.5 -64t-43 -49l-47 -47.5t-43 -52.5t-31.5 -70.5t-12 -95.5v-88h-123q-57 0 -57 57v31q0 56 14 103.5t36.5 80.5t49.5 61t54 52t49.5 47.5t36.5 52.5t14 61v45h-250z" />
    <glyph glyph-name="eight.tnum_onum" 
d="M298 -16q-278 0 -278 224q0 77 54 131q13 13 27.5 22.5t20.5 14t6 10.5t-5 10.5t-18 13t-24 19.5q-41 41 -41 105q0 101 67.5 155t194.5 54q258 0 258 -210q0 -60 -40 -100q-12 -12 -25 -20.5t-18 -12.5t-5 -11q0 -6 6 -10.5t21 -14.5t28 -23q53 -53 53 -129
q0 -114 -72.5 -171t-209.5 -57zM402 210q0 116 -102 116t-102 -116q0 -115 102 -115t102 115zM386 530q0 102 -86 102t-86 -102q0 -101 86 -101t86 101z" />
    <glyph glyph-name="nine.tnum_onum" 
d="M71 -55q183 -8 248 29.5t76 168.5q-67 -31 -147 -31q-234 0 -234 220q0 112 74 178.5t205 66.5q154 0 217 -87t63 -246q0 -129 -25 -211t-85.5 -131t-154 -65.5t-237.5 -7.5v116zM294 224q53 0 104 30q-2 112 -27.5 160.5t-81.5 48.5q-97 0 -97 -123q0 -58 22 -87t80 -29
z" />
    <glyph glyph-name="foursuperior.1" horiz-adv-x="405" 
d="M386 389h-231v69l50 8v17h-126q-48 0 -48 49v34q0 37 12 63.5t29 40.5t34 25t29 25t12 33v10h117q31 0 31 -29q0 -26 -23 -46.5t-50.5 -31.5t-50.5 -31t-23 -46v-10h57v43h91q41 0 41 -40v-106l49 -8v-69z" />
    <glyph glyph-name="onequarter.1" horiz-adv-x="827" 
d="M319 389h-270v79l62 14v184l-71 15v82h170q48 0 48 -49v-232l61 -14v-79zM223 -52h-141l555 831h141zM808 -36h-231v69l50 8v17h-126q-48 0 -48 49v34q0 37 12 63.5t29 40.5t34 25t29 25t12 33v10h117q31 0 31 -29q0 -26 -23 -46.5t-50.5 -31.5t-50.5 -31t-23 -46v-10h57
v43h91q41 0 41 -40v-106l49 -8v-69z" />
    <glyph glyph-name="threequarters.1" horiz-adv-x="827" 
d="M36 416l47 82q39 -32 90 -32q25 0 37.5 10.5t12.5 25.5q0 42 -83 42h-14v75h19q59 0 59 37q0 32 -36 32q-39 0 -74 -35l-48 83q63 36 142 36q71 0 114.5 -26.5t43.5 -76.5q0 -55 -51 -77v-1q32 -8 52 -31.5t20 -56.5q0 -58 -54 -90.5t-135 -32.5q-78 0 -142 36zM223 -52
h-141l555 831h141zM808 -36h-231v69l50 8v17h-126q-48 0 -48 49v34q0 37 12 63.5t29 40.5t34 25t29 25t12 33v10h117q31 0 31 -29q0 -26 -23 -46.5t-50.5 -31.5t-50.5 -31t-23 -46v-10h57v43h91q41 0 41 -40v-106l49 -8v-69z" />
    <glyph glyph-name="bullet.1" horiz-adv-x="582" 
d="M291 474q12 0 20.5 8.5t8.5 20.5v55q0 18 10.5 29.5t26.5 11.5q12 0 33.5 -14t47.5 -14q12 0 27 5t27 5q25 0 40.5 -17.5t15.5 -38.5t-13.5 -35.5t-27 -32.5t-13.5 -47q0 -2 0.5 -9t0.5 -11q0 -16 -12 -26.5t-27 -10.5q-12 0 -20 5l-46 27q-10 6 -19 6q-12 0 -19.5 -9
t-7.5 -20q0 -16 16 -25l46 -27q22 -13 22 -34q0 -16 -11 -27q-5 -5 -20.5 -12.5t-24.5 -16.5q-16 -16 -23 -44t-19 -40q-15 -15 -39 -15t-39 15q-12 12 -19 40t-23 44q-9 9 -24.5 16.5t-20.5 12.5q-11 11 -11 27q0 21 22 34l46 27q16 9 16 25q0 11 -7.5 20t-19.5 9
q-9 0 -19 -6l-46 -27q-8 -5 -20 -5q-15 0 -27 10.5t-12 26.5q0 4 0.5 11t0.5 9q0 29 -13.5 47t-27 32.5t-13.5 35.5t15.5 38.5t40.5 17.5q12 0 27 -5t27 -5q26 0 47.5 14t33.5 14q16 0 26.5 -11.5t10.5 -29.5v-55q0 -12 8.5 -20.5t20.5 -8.5z" />
    <glyph glyph-name="grave.cap" horiz-adv-x="305" 
d="M280 793h-132l-123 146h177z" />
    <glyph glyph-name="acute.cap" horiz-adv-x="305" 
d="M157 793h-132l78 146h177z" />
    <glyph glyph-name="circumflex.cap" horiz-adv-x="432" 
d="M319 939l88 -146h-132l-61 82l-61 -82h-128l88 146h206z" />
    <glyph glyph-name="caron.cap" horiz-adv-x="432" 
d="M113 793l-88 146h132l61 -82l61 82h128l-88 -146h-206z" />
    <glyph glyph-name="tilde.cap" horiz-adv-x="420" 
d="M332 943l63 -65q-37 -89 -118 -89q-35 0 -78 20t-60 20q-30 0 -51 -40l-63 65q37 89 118 89q35 0 78 -20t60 -20q30 0 51 40z" />
    <glyph glyph-name="dieresis.narrow" horiz-adv-x="387" 
d="M168 727v-146h-143v146h143zM362 727v-146h-143v146h143z" />
    <glyph glyph-name="dieresis.cap" horiz-adv-x="411" 
d="M170 939v-146h-145v146h145zM386 939v-146h-145v146h145z" />
    <glyph glyph-name="ring.cap" horiz-adv-x="370" 
d="M186 977q74 0 116.5 -28t42.5 -81q0 -51 -44.5 -81.5t-116.5 -30.5q-73 0 -116 28.5t-43 81.5q0 51 44.5 81t116.5 30zM185 818q25 0 39.5 12.5t14.5 35.5t-14 36t-40 13t-40 -13t-14 -36t14.5 -35.5t39.5 -12.5z" />
    <glyph glyph-name="hungarumlaut.cap" horiz-adv-x="523" 
d="M140 793h-115l88 146h150zM355 793h-120l108 146h155z" />
    <glyph glyph-name="macron.cap" horiz-adv-x="390" 
d="M25 807v104h340v-104h-340z" />
    <glyph glyph-name="dotaccent.cap" horiz-adv-x="215" 
d="M190 939v-146h-165v146h165z" />
    <glyph glyph-name="breve.cap" horiz-adv-x="396" 
d="M271 939h100q-5 -72 -50 -112t-124 -40t-123 40t-49 112h100q6 -55 74 -55q66 0 72 55z" />
    </font>
</defs>
</svg>
